<?xml version="1.0" standalone="no"?><!DOCTYPE svg PUBLIC "-//W3C//DTD SVG 1.1//EN" "http://www.w3.org/Graphics/SVG/1.1/DTD/svg11.dtd" ><svg xmlns="http://www.w3.org/2000/svg"><metadata></metadata><defs><font id="JamesGrieshaber: Black Ops One Regular: 2011" horiz-adv-x="3052"><font-face font-family="Black Ops One" font-weight="400" font-stretch="normal" units-per-em="2048" panose-1="2 0 0 0 0 0 0 0 0 0" ascent="1871" descent="-689" x-height="0" bbox="-119 -689 2887 1871" underline-thickness="193" underline-position="-201" unicode-range="U+0001-fb02" /><missing-glyph horiz-adv-x="1837" d="M604 142 l313 315 l312 -315 l167 170 l-315 311 l313 310 l-165 168 l-311 -315 l-311 316 l-165 -170 l313 -311 l-315 -311 l164 -168 ZM1674 1443 l0 -1611 l-1512 0 l0 1611 l1512 0 Z" /><glyph glyph-name="uni0001" unicode="" d="" /><glyph glyph-name="uni0002" unicode="" d="" /><glyph glyph-name="uni0003" unicode="" d="" /><glyph glyph-name="uni0004" unicode="" d="" /><glyph glyph-name="uni0005" unicode="" d="" /><glyph glyph-name="uni0006" unicode="" d="" /><glyph glyph-name="uni0007" unicode="" d="" /><glyph glyph-name="uni0008" unicode="" d="" /><glyph glyph-name="uni0009" unicode="" d="" /><glyph glyph-name="uni0010" unicode="" d="" /><glyph glyph-name="uni0011" unicode="" d="" /><glyph glyph-name="uni0012" unicode="" d="" /><glyph glyph-name="uni0013" unicode="" d="" /><glyph glyph-name="uni0014" unicode="" d="" /><glyph glyph-name="uni0015" unicode="" d="" /><glyph glyph-name="uni0016" unicode="" d="" /><glyph glyph-name="uni0017" unicode="" d="" /><glyph glyph-name="uni0018" unicode="" d="" /><glyph glyph-name="uni0019" unicode="" d="" /><glyph glyph-name="space" unicode=" " d="" /><glyph glyph-name="exclam" unicode="!" d="M584 442 l-415 0 l-27 885 l470 0 l-28 -885 ZM156 309 l442 0 l0 -309 l-442 0 l0 309 Z" /><glyph glyph-name="quotedbl" unicode="&quot;" d="M181 1327 l411 0 l-47 -663 l-318 0 l-46 663 ZM766 1327 l411 0 l-47 -663 l-318 0 l-46 663 Z" /><glyph glyph-name="numbersign" unicode="#" d="M696 522 l211 0 l-21 -237 l-212 0 l-25 -285 l-237 0 l25 285 l-251 0 l20 237 l250 0 l25 283 l-249 0 l21 237 l249 0 l25 285 l237 0 l-24 -285 l214 0 l-22 -237 l-214 0 l-22 -283 ZM1047 1327 l238 0 l-25 -285 l253 0 l-22 -237 l-251 0 l-24 -283 l251 0 l-22 -237 l-251 0 l-25 -285 l-237 0 l115 1327 Z" /><glyph glyph-name="dollar" unicode="$" d="M672 797 l576 0 l265 -267 l0 -265 l-265 -265 l-178 0 l0 530 l-575 0 l-265 267 l0 265 l265 265 l177 0 l0 -530 ZM672 265 l331 0 l0 -422 l-302 0 l0 157 l-206 0 l-265 265 l0 133 l442 0 l0 -133 ZM740 1062 l0 414 l299 0 l0 -149 l209 0 l265 -265 l0 -133 l-443 0 l0 133 l-330 0 Z" /><glyph glyph-name="percent" unicode="%" d="M1029 783 l-200 -201 l-198 0 l0 201 l65 0 l0 346 l-65 0 l0 200 l198 0 l200 -200 l0 -346 ZM497 783 l64 0 l0 -201 l-197 0 l-200 201 l0 346 l200 200 l197 0 l0 -200 l-64 0 l0 -346 ZM2227 200 l-199 -200 l-199 0 l0 200 l66 0 l0 347 l-66 0 l0 199 l199 0 l199 -199 l0 -347 ZM1695 200 l64 0 l0 -200 l-197 0 l-199 200 l0 347 l199 199 l197 0 l0 -199 l-64 0 l0 -347 ZM1359 1458 l250 0 l-613 -1654 l-250 0 l613 1654 Z" /><glyph glyph-name="ampersand" unicode="&amp;" d="M286 904 l-1 1 l0 198 l226 224 l199 0 l0 -347 l350 -406 l301 234 l218 -252 l-296 -241 l272 -315 l-489 0 l-780 904 ZM374 0 l-223 219 l0 320 l191 197 l206 -240 l0 -241 l211 0 l174 -206 l-57 -49 l-502 0 ZM1365 1105 l0 -176 l-415 0 l0 133 l-170 0 l0 265 l363 0 l222 -222 Z" /><glyph glyph-name="quotesingle" unicode="&#39;" d="M181 1327 l411 0 l-47 -663 l-318 0 l-46 663 Z" /><glyph glyph-name="parenleft" unicode="(" d="M672 124 l164 0 l0 -266 l-341 0 l-257 266 l0 1080 l257 265 l341 0 l0 -265 l-164 0 l0 -1080 Z" /><glyph glyph-name="parenright" unicode=")" d="M307 124 l-164 0 l0 -266 l341 0 l257 266 l0 1080 l-257 265 l-341 0 l0 -265 l164 0 l0 -1080 Z" /><glyph glyph-name="asterisk" unicode="*" d="M696 678 l-216 -217 l-191 139 l140 271 l-268 137 l71 222 l299 -46 l47 297 l233 0 l46 -297 l302 49 l72 -225 l-271 -137 l142 -273 l-190 -137 l-216 217 Z" /><glyph glyph-name="plus" unicode="+" d="M186 740 l415 0 l0 413 l241 0 l0 -413 l411 0 l0 -239 l-411 0 l0 -415 l-241 0 l0 415 l-415 0 l0 239 Z" /><glyph glyph-name="comma" unicode="," d="M147 309 l442 0 l0 -309 l-177 -265 l-265 0 l123 265 l-123 0 l0 309 Z" /><glyph glyph-name="hyphen" unicode="-" d="M186 740 l883 0 l0 -239 l-883 0 l0 239 Z" /><glyph glyph-name="period" unicode="." d="M147 309 l442 0 l0 -309 l-442 0 l0 309 Z" /><glyph glyph-name="slash" unicode="/" d="M532 1418 l250 0 l-613 -1614 l-249 0 l612 1614 Z" /><glyph glyph-name="zero" unicode="0" d="M1391 265 l-265 -265 l-508 0 l0 265 l331 0 l0 1062 l177 0 l265 -265 l0 -797 ZM550 0 l-176 0 l-266 265 l0 797 l266 265 l507 0 l0 -265 l-331 0 l0 -1062 Z" /><glyph glyph-name="one" unicode="1" d="M142 1194 l132 133 l531 0 l0 -1001 l-442 0 l0 736 l-221 0 l0 132 ZM142 265 l884 0 l0 -265 l-884 0 l0 265 Z" /><glyph glyph-name="two" unicode="2" d="M550 0 l-442 0 l0 476 l283 266 l523 0 l0 585 l177 0 l265 -265 l0 -328 l-265 -265 l-541 0 l0 -469 ZM550 1088 l0 -193 l-442 0 l0 167 l266 265 l470 0 l0 -239 l-294 0 ZM620 0 l0 239 l736 0 l0 -239 l-736 0 Z" /><glyph glyph-name="three" unicode="3" d="M1121 1327 l266 -265 l0 -261 l-157 -133 l157 -135 l0 -269 l-266 -264 l-177 0 l0 560 l-308 0 l0 231 l308 0 l0 536 l177 0 ZM546 1045 l0 -194 l-442 0 l0 211 l265 265 l505 0 l0 -282 l-328 0 ZM104 265 l0 205 l442 0 l0 -187 l328 0 l0 -283 l-505 0 l-265 265 Z" /><glyph glyph-name="four" unicode="4" d="M1187 444 l150 0 l0 -259 l-150 0 l0 -185 l-425 0 l0 1327 l425 0 l0 -883 ZM13 431 l679 806 l0 -525 l-241 -268 l241 0 l0 -259 l-574 0 l-105 246 Z" /><glyph glyph-name="five" unicode="5" d="M506 594 l-399 0 l0 733 l1196 0 l0 -265 l-797 0 l0 -468 ZM922 0 l0 594 l-346 0 l0 248 l523 0 l265 -266 l0 -311 l-265 -265 l-177 0 ZM852 265 l0 -265 l-479 0 l-266 265 l0 149 l443 0 l0 -149 l302 0 Z" /><glyph glyph-name="six" unicode="6" d="M550 265 l167 0 l0 -265 l-343 0 l-266 265 l0 797 l266 265 l343 0 l0 -265 l-167 0 l0 -797 ZM618 576 l0 248 l513 0 l260 -243 l0 -316 l-265 -265 l-339 0 l0 265 l179 0 l0 311 l-348 0 ZM787 1062 l0 265 l339 0 l265 -265 l0 -97 l-442 0 l0 97 l-162 0 Z" /><glyph glyph-name="seven" unicode="7" d="M791 994 l424 0 l-401 -994 l-468 0 l445 994 ZM485 860 l-433 0 l0 334 l131 133 l1064 0 l0 -265 l-762 0 l0 -202 Z" /><glyph glyph-name="eight" unicode="8" d="M546 265 l192 0 l0 -265 l-364 0 l-266 265 l0 276 l159 131 l-159 130 l0 260 l266 265 l364 0 l0 -265 l-192 0 l0 -266 l192 0 l0 -248 l-192 0 l0 -283 ZM1013 1062 l-205 0 l0 265 l360 -1 l265 -265 l0 -257 l-158 -133 l158 -133 l0 -274 l-265 -265 l-360 1 l0 265 l205 0 l0 283 l-205 0 l0 248 l205 0 l0 266 Z" /><glyph glyph-name="nine" unicode="9" d="M949 1062 l-166 0 l0 265 l343 0 l265 -265 l0 -797 l-265 -265 l-343 0 l0 265 l166 0 l0 797 ZM881 762 l0 -266 l-507 0 l-266 266 l0 300 l266 265 l341 0 l0 -265 l-165 0 l0 -300 l331 0 ZM715 265 l0 -265 l-341 0 l-266 265 l0 89 l442 0 l0 -89 l165 0 Z" /><glyph glyph-name="colon" unicode=":" d="M147 1062 l442 0 l0 -309 l-442 0 l0 309 ZM147 309 l442 0 l0 -309 l-442 0 l0 309 Z" /><glyph glyph-name="semicolon" unicode=";" d="M147 1062 l442 0 l0 -309 l-442 0 l0 309 ZM147 309 l442 0 l0 -309 l-177 -265 l-265 0 l123 265 l-123 0 l0 309 Z" /><glyph glyph-name="less" unicode="&lt;" d="M186 524 l0 235 l1067 292 l0 -249 l-1067 -278 ZM240 466 l452 116 l561 -148 l0 -248 l-1013 280 Z" /><glyph glyph-name="equal" unicode="=" d="M186 1000 l1067 0 l0 -239 l-1067 0 l0 239 ZM186 442 l1067 0 l0 -238 l-1067 0 l0 238 Z" /><glyph glyph-name="greater" unicode="&gt;" d="M1253 713 l0 -235 l-1067 -292 l0 249 l1067 278 ZM1199 771 l-452 -116 l-561 148 l0 248 l1013 -280 Z" /><glyph glyph-name="question" unicode="?" d="M1062 1327 l265 -265 l0 -230 l-265 -266 l-190 0 l0 -124 l-444 0 l0 124 l266 266 l191 0 l0 230 l-363 0 l0 -133 l-443 0 l0 131 l266 267 l717 0 ZM428 309 l444 0 l0 -309 l-444 0 l0 309 Z" /><glyph glyph-name="at" unicode="@" d="M95 264 l0 709 l307 309 l363 0 l0 -220 l-232 0 l-218 -218 l0 -449 l218 -218 l252 0 l0 -220 l-385 0 l-305 307 ZM1048 1062 l-229 0 l0 220 l363 0 l308 -309 l0 -575 l-219 0 l0 443 l-223 221 ZM687 398 l0 443 l212 0 l0 -520 l144 -143 l316 -1 l-177 -220 l-343 0 l0 441 l-152 0 Z" /><glyph glyph-name="A" unicode="a" d="M988 145 l-434 0 l92 263 l240 0 l-355 919 l431 0 l529 -1327 l-447 0 l-56 145 ZM436 0 l-427 0 l474 1267 l196 -527 l-243 -740 Z" /><glyph glyph-name="B" unicode="b" d="M957 1062 l-328 0 l0 265 l513 0 l266 -265 l0 -270 l-133 -133 l133 -133 l0 -261 l-266 -265 l-513 0 l0 265 l328 0 l0 283 l-328 0 l0 231 l328 0 l0 283 ZM117 1327 l442 0 l0 -1327 l-442 0 l0 1327 Z" /><glyph glyph-name="C" unicode="c" d="M539 0 l-176 0 l-266 265 l0 797 l266 265 l176 0 l0 -1327 ZM609 1062 l0 265 l471 0 l265 -265 l0 -267 l-442 0 l0 267 l-294 0 ZM609 0 l0 265 l294 0 l0 194 l442 0 l0 -194 l-265 -265 l-471 0 Z" /><glyph glyph-name="D" unicode="d" d="M629 0 l0 265 l328 0 l0 797 l-328 0 l0 265 l505 0 l266 -265 l0 -797 l-266 -265 l-505 0 ZM117 1327 l442 0 l0 -1327 l-442 0 l0 1327 Z" /><glyph glyph-name="E" unicode="e" d="M559 545 l0 -545 l-442 0 l0 1327 l442 0 l0 -526 l423 0 l0 -256 l-423 0 ZM629 1070 l0 257 l691 0 l0 -384 l-416 0 l0 127 l-275 0 ZM629 0 l0 265 l249 0 l0 133 l442 0 l0 -398 l-691 0 Z" /><glyph glyph-name="F" unicode="f" d="M117 1327 l442 0 l0 -593 l408 0 l0 -261 l-408 0 l0 -473 l-442 0 l0 1327 ZM629 1062 l0 265 l674 0 l0 -440 l-442 0 l0 175 l-232 0 Z" /><glyph glyph-name="G" unicode="g" d="M557 265 l379 0 l0 -265 l-556 0 l-265 265 l0 797 l265 265 l177 0 l0 -1062 ZM791 736 l607 0 l0 -736 l-392 0 l0 473 l-215 0 l0 263 ZM627 1062 l0 265 l539 0 l232 -265 l0 -133 l-442 0 l0 133 l-329 0 Z" /><glyph glyph-name="H" unicode="h" d="M954 1327 l446 0 l0 -1327 l-443 0 l0 539 l-328 0 l0 266 l325 0 l0 522 ZM559 0 l-442 0 l0 1327 l442 0 l0 -1327 Z" /><glyph glyph-name="I" unicode="i" d="M97 283 l133 0 l0 762 l-133 0 l0 282 l708 0 l0 -282 l-133 0 l0 -762 l133 0 l0 -283 l-708 0 l0 283 Z" /><glyph glyph-name="J" unicode="j" d="M213 1327 l1052 0 l0 -1062 l-265 -265 l-177 0 l0 1038 l-610 0 l0 289 ZM511 265 l242 0 l0 -265 l-435 0 l-266 265 l0 291 l459 0 l0 -291 Z" /><glyph glyph-name="K" unicode="k" d="M117 0 l0 1327 l442 0 l0 -1327 l-442 0 ZM627 188 l0 645 l310 493 l460 1 l-770 -1139 ZM1418 0 l-478 0 l-150 309 l262 393 l366 -702 Z" /><glyph glyph-name="L" unicode="l" d="M117 0 l0 1327 l442 0 l0 -1327 l-442 0 ZM629 0 l0 265 l219 0 l0 168 l401 0 l0 -433 l-620 0 Z" /><glyph glyph-name="M" unicode="m" d="M118 1327 l470 0 l356 -590 l280 480 l0 -668 l-319 -549 l-787 1327 ZM1289 0 l0 1327 l442 0 l0 -1327 l-442 0 ZM117 0 l0 1204 l413 -693 l0 -511 l-413 0 Z" /><glyph glyph-name="N" unicode="n" d="M1391 0 l-470 0 l-804 1327 l467 0 l807 -1327 ZM117 0 l0 1201 l385 -631 l0 -570 l-385 0 ZM1391 1327 l0 -1201 l-385 634 l0 567 l385 0 Z" /><glyph glyph-name="O" unicode="o" d="M529 270 l166 0 l0 -270 l-340 0 l-269 265 l0 797 l269 265 l340 0 l0 -269 l-166 0 l0 -788 ZM934 1058 l-169 0 l0 269 l343 0 l268 -265 l0 -797 l-268 -265 l-343 0 l0 270 l169 0 l0 788 Z" /><glyph glyph-name="P" unicode="p" d="M115 0 l0 1327 l434 0 l0 -1327 l-434 0 ZM619 1062 l0 265 l496 0 l265 -265 l0 -455 l-265 -266 l-496 0 l0 266 l321 0 l0 455 l-321 0 Z" /><glyph glyph-name="Q" unicode="q" d="M693 0 l-331 0 l-266 265 l0 797 l266 265 l341 0 l0 -265 l-165 0 l0 -797 l350 0 l431 -407 l-237 -230 l-389 372 ZM1379 265 l-191 -193 l-251 232 l0 758 l-166 0 l0 265 l343 0 l265 -265 l0 -797 Z" /><glyph glyph-name="R" unicode="r" d="M117 0 l0 1327 l442 0 l0 -1327 l-442 0 ZM629 1062 l0 265 l505 0 l266 -265 l0 -398 l-204 -204 l-14 28 l-415 -55 l16 -35 l-154 0 l0 257 l332 0 l0 407 l-332 0 ZM1445 0 l-472 0 l-190 398 l351 0 l62 62 l249 -460 Z" /><glyph glyph-name="S" unicode="s" d="M937 0 l0 497 l-574 0 l-266 266 l0 299 l266 265 l150 0 l0 -471 l610 0 l257 -266 l0 -325 l-265 -265 l-178 0 ZM583 1088 l0 239 l531 0 l230 -231 l0 -141 l-407 0 l0 133 l-354 0 ZM97 398 l442 0 l0 -158 l328 0 l0 -240 l-547 0 l-223 265 l0 133 Z" /><glyph glyph-name="T" unicode="t" d="M398 969 l460 0 l0 -969 l-460 0 l0 969 ZM52 1327 l1152 0 l0 -289 l-1152 0 l0 289 Z" /><glyph glyph-name="U" unicode="u" d="M1388 265 l-265 -265 l-341 0 l0 265 l164 0 l0 1062 l442 0 l0 -1062 ZM549 265 l163 0 l0 -265 l-340 0 l-266 265 l0 1062 l443 0 l0 -1062 Z" /><glyph glyph-name="V" unicode="v" d="M884 0 l-430 0 l-480 1327 l451 0 l459 -1327 ZM953 1327 l444 0 l-459 -1287 l-199 584 l214 703 Z" /><glyph glyph-name="W" unicode="w" d="M609 598 l133 557 l173 -630 l-143 -525 l-401 0 l-397 1327 l440 0 l195 -729 ZM1547 0 l-422 0 l-364 1327 l446 0 l340 -1327 ZM1551 1327 l403 0 l-360 -1258 l-180 707 l137 551 Z" /><glyph glyph-name="X" unicode="x" d="M956 727 l-236 345 l155 255 l474 0 l-393 -600 ZM-26 0 l423 618 l237 -360 l-155 -258 l-505 0 ZM1368 0 l-482 0 l-885 1327 l477 0 l890 -1327 Z" /><glyph glyph-name="Y" unicode="y" d="M424 422 l-450 905 l434 0 l459 -936 l0 -391 l-443 0 l0 422 ZM895 484 l-215 436 l218 407 l425 0 l-428 -843 Z" /><glyph glyph-name="Z" unicode="z" d="M52 248 l867 1079 l300 0 l0 -257 l-876 -1070 l-291 0 l0 248 ZM1201 0 l-769 0 l252 291 l517 0 l0 -291 ZM79 1327 l753 0 l-251 -290 l-502 0 l0 290 Z" /><glyph glyph-name="bracketleft" unicode="[" d="M672 124 l164 0 l0 -266 l-562 0 l0 1611 l562 0 l0 -265 l-164 0 l0 -1080 Z" /><glyph glyph-name="backslash" unicode="\" d="M216 1418 l-250 0 l613 -1614 l249 0 l-612 1614 Z" /><glyph glyph-name="bracketright" unicode="]" d="M306 124 l-164 0 l0 -266 l562 0 l0 1611 l-562 0 l0 -265 l164 0 l0 -1080 Z" /><glyph glyph-name="asciicircum" unicode="^" d="M534 1167 l236 0 l346 -1067 l-266 0 l-316 1067 ZM476 1113 l122 -432 l-158 -581 l-266 0 l302 1013 Z" /><glyph glyph-name="underscore" unicode="_" d="M-86 -200 l1503 0 l0 -193 l-1503 0 l0 193 Z" /><glyph glyph-name="grave" unicode="`" d="M791 1291 l-61 -147 l-555 167 l-54 211 l184 85 l486 -316 Z" /><glyph glyph-name="a" unicode="a" d="M804 0 l0 797 l-629 0 l0 132 l133 133 l663 0 l265 -265 l0 -797 l-432 0 ZM734 618 l0 -184 l-228 0 l0 -186 l228 0 l0 -117 l-132 -131 l-338 0 l-178 175 l0 266 l178 177 l470 0 Z" /><glyph glyph-name="b" unicode="b" d="M546 1467 l0 -1467 l-442 0 l0 1467 l442 0 ZM814 797 l-198 0 l0 134 l130 131 l242 0 l266 -265 l0 -532 l-266 -265 l-372 0 l0 248 l198 0 l0 549 Z" /><glyph glyph-name="c" unicode="c" d="M537 0 l-177 0 l-265 265 l0 532 l265 265 l177 0 l0 -1062 ZM607 797 l0 265 l373 0 l265 -265 l0 -159 l-442 0 l0 159 l-196 0 ZM607 0 l0 248 l196 0 l0 133 l442 0 l0 -116 l-265 -265 l-373 0 Z" /><glyph glyph-name="d" unicode="d" d="M1262 1467 l0 -1467 l-442 0 l0 1467 l442 0 ZM537 248 l213 0 l0 -143 l-105 -105 l-311 0 l-239 239 l0 584 l239 239 l416 0 l0 -265 l-213 0 l0 -549 Z" /><glyph glyph-name="e" unicode="e" d="M537 0 l-177 0 l-265 265 l0 532 l265 265 l177 0 l0 -1062 ZM607 426 l0 185 l233 0 l0 186 l-233 0 l0 265 l375 0 l265 -265 l0 -371 l-640 0 ZM607 0 l0 248 l594 0 l0 -115 l-132 -133 l-462 0 Z" /><glyph glyph-name="f" unicode="f" d="M586 1202 l0 -1202 l-443 0 l0 797 l-105 0 l0 265 l105 0 l0 157 l267 248 l496 0 l0 -265 l-320 0 ZM653 797 l3 265 l250 0 l0 -265 l-253 0 Z" /><glyph glyph-name="g" unicode="g" d="M803 797 l-196 0 l0 265 l373 0 l265 -265 l0 -902 l-265 -267 l-583 0 l-133 134 l0 98 l539 0 l0 937 ZM733 248 l0 -117 l-132 -131 l-241 0 l-265 265 l0 532 l265 265 l177 0 l0 -814 l196 0 Z" /><glyph glyph-name="h" unicode="h" d="M104 1467 l442 0 l0 -1467 l-442 0 l0 1467 ZM811 797 l-195 0 l0 134 l130 131 l242 0 l266 -265 l0 -797 l-443 0 l0 797 Z" /><glyph glyph-name="i" unicode="i" d="M105 1062 l443 0 l0 -1062 l-443 0 l0 1062 ZM105 1476 l443 0 l0 -282 l-443 0 l0 282 Z" /><glyph glyph-name="j" unicode="j" d="M-100 -88 l205 0 l0 1150 l443 0 l0 -1150 l-266 -266 l-382 0 l0 266 ZM105 1476 l442 0 l0 -282 l-442 0 l0 282 Z" /><glyph glyph-name="k" unicode="k" d="M546 0 l-442 0 l0 1467 l442 0 l0 -1467 ZM615 150 l0 606 l204 304 l457 1 l-661 -911 ZM1299 0 l-480 0 l-73 214 l261 352 l292 -566 Z" /><glyph glyph-name="l" unicode="l" d="M744 0 l-392 0 l-248 248 l0 1219 l442 0 l0 -1202 l198 0 l0 -265 Z" /><glyph glyph-name="m" unicode="m" d="M119 0 l0 1062 l443 0 l0 -1062 l-443 0 ZM812 797 l-180 0 l0 125 l139 140 l342 0 l142 -142 l0 -920 l-443 0 l0 797 ZM1505 797 l-180 0 l0 123 l136 142 l270 0 l216 -218 l0 -844 l-442 0 l0 797 Z" /><glyph glyph-name="n" unicode="n" d="M104 0 l0 1062 l446 0 l0 -1062 l-446 0 ZM812 797 l-190 0 l0 116 l148 149 l246 0 l239 -239 l0 -823 l-443 0 l0 797 Z" /><glyph glyph-name="o" unicode="o" d="M1288 265 l-265 -265 l-296 0 l0 248 l110 0 l0 549 l-110 0 l0 265 l296 0 l265 -265 l0 -532 ZM542 248 l115 0 l0 -248 l-297 0 l-265 265 l0 532 l265 265 l297 0 l0 -265 l-115 0 l0 -549 Z" /><glyph glyph-name="p" unicode="p" d="M104 -354 l0 1416 l442 0 l0 -1416 l-442 0 ZM811 797 l-195 0 l0 134 l130 131 l242 0 l266 -265 l0 -532 l-266 -265 l-372 0 l0 248 l195 0 l0 549 Z" /><glyph glyph-name="q" unicode="q" d="M934 -354 l-130 133 l0 1018 l-197 0 l0 265 l373 0 l266 -265 l0 -1151 l-312 0 ZM537 248 l197 0 l0 -117 l-132 -131 l-241 0 l-266 265 l0 532 l266 265 l176 0 l0 -814 Z" /><glyph glyph-name="r" unicode="r" d="M805 797 l-188 0 l0 116 l148 149 l268 0 l215 -248 l0 -275 l-443 0 l0 258 ZM104 0 l0 1062 l442 0 l0 -1062 l-442 0 Z" /><glyph glyph-name="s" unicode="s" d="M335 1062 l177 0 l0 -375 l504 0 l230 -232 l0 -207 l-247 -248 l-195 0 l0 401 l-478 0 l-230 221 l0 202 l239 238 ZM538 195 l196 0 l0 -195 l-455 1 l-184 218 l0 85 l443 0 l0 -109 ZM804 867 l-222 0 l0 195 l470 0 l158 -158 l0 -120 l-406 0 l0 83 Z" /><glyph glyph-name="t" unicode="t" d="M558 265 l292 0 l0 -265 l-468 0 l-266 265 l0 532 l-88 0 l0 265 l88 0 l0 115 l442 150 l0 -1062 ZM628 797 l0 265 l238 0 l0 -265 l-238 0 Z" /><glyph glyph-name="u" unicode="u" d="M1246 1062 l0 -1062 l-442 0 l0 1062 l442 0 ZM537 265 l197 0 l0 -132 l-128 -133 l-245 0 l-266 265 l0 797 l442 0 l0 -797 Z" /><glyph glyph-name="v" unicode="v" d="M-14 1062 l439 0 l378 -1062 l-420 0 l-397 1062 ZM848 59 l-198 562 l143 441 l413 0 l-358 -1003 Z" /><glyph glyph-name="w" unicode="w" d="M-14 1062 l422 0 l173 -553 l123 383 l159 -489 l-126 -404 l-1 1 l-369 0 l-381 1062 ZM710 1062 l417 0 l342 -1062 l-401 0 l-358 1062 ZM1513 66 l-186 572 l119 424 l414 0 l-347 -996 Z" /><glyph glyph-name="x" unicode="x" d="M446 1062 l707 -1062 l-459 0 l-708 1062 l460 0 ZM619 915 l75 147 l459 0 l-306 -490 l-228 343 ZM446 0 l-460 0 l295 506 l237 -357 l-72 -149 Z" /><glyph glyph-name="y" unicode="y" d="M696 -370 l-424 0 l538 1432 l425 0 l-539 -1432 ZM-14 1062 l441 0 l149 -432 l-198 -541 l-392 973 Z" /><glyph glyph-name="z" unicode="z" d="M1091 0 l-618 0 l235 265 l383 0 l0 -265 ZM105 1062 l597 0 l-229 -265 l-368 0 l0 265 ZM95 257 l690 805 l305 0 l0 -265 l-699 -797 l-296 0 l0 257 Z" /><glyph glyph-name="braceleft" unicode="{" d="M664 817 l-144 -133 l144 -174 l0 -386 l164 0 l0 -266 l-333 0 l-265 266 l0 386 l-143 154 l143 153 l0 387 l265 265 l333 0 l0 -265 l-164 0 l0 -387 Z" /><glyph glyph-name="bar" unicode="|" d="M230 -196 l0 1614 l240 0 l0 -1614 l-240 0 Z" /><glyph glyph-name="braceright" unicode="}" d="M313 817 l144 -133 l-144 -174 l0 -386 l-164 0 l0 -266 l333 0 l265 266 l0 386 l143 154 l-143 153 l0 387 l-265 265 l-333 0 l0 -265 l164 0 l0 -387 Z" /><glyph glyph-name="asciitilde" unicode="~" d="M1153 336 l-403 0 l-233 233 l-108 0 l-209 -144 l-87 88 l237 294 l400 0 l238 -238 l103 0 l208 149 l88 -90 l-234 -292 Z" /><glyph glyph-name="nonbreakingspace" unicode=" " d="" /><glyph glyph-name="exclamdown" unicode="¡" d="M170 781 l415 0 l27 -885 l-470 0 l28 885 ZM598 914 l-442 0 l0 309 l442 0 l0 -309 Z" /><glyph glyph-name="cent" unicode="¢" d="M605 133 l-110 0 l-265 265 l0 531 l265 265 l177 0 l0 -796 l198 0 l0 -415 l-265 0 l0 150 ZM740 929 l0 415 l265 0 l0 -150 l110 0 l265 -265 l0 -132 l-443 0 l0 132 l-197 0 ZM937 133 l0 397 l443 0 l0 -132 l-265 -265 l-178 0 Z" /><glyph glyph-name="sterling" unicode="£" d="M849 708 l307 0 l0 -188 l-307 0 l0 -520 l-619 0 l0 265 l177 -1 l0 1 l0 255 l-177 0 l0 188 l177 0 l0 443 l265 265 l177 0 l0 -708 ZM917 1151 l0 265 l322 0 l265 -265 l0 -131 l-399 0 l0 131 l-188 0 ZM917 0 l0 265 l596 -1 l0 -264 l-596 0 Z" /><glyph glyph-name="currency" unicode="¤" d="M485 709 l-241 0 l0 152 l85 84 l-219 223 l115 117 l224 -220 l94 94 l153 0 l0 -253 l-211 0 l0 -197 ZM1235 709 l-241 0 l0 197 l-216 0 l0 253 l158 0 l84 -87 l215 213 l116 -117 l-211 -214 l95 -93 l0 -152 ZM329 382 l-85 84 l0 162 l241 0 l0 -211 l211 0 l0 -249 l-153 0 l-94 94 l-224 -220 l-115 115 l219 225 ZM1020 255 l-84 -87 l-158 0 l0 249 l216 0 l0 211 l241 0 l0 -162 l-95 -93 l211 -216 l-116 -115 l-215 213 Z" /><glyph glyph-name="yen" unicode="¥" d="M371 556 l244 0 l-420 771 l425 0 l422 -771 l320 0 l0 -133 l-274 0 l0 -109 l274 0 l0 -132 l-274 0 l0 -182 l-443 0 l0 182 l-274 0 l0 132 l274 0 l0 109 l-274 0 l0 133 ZM1148 616 l-57 0 l-196 348 l224 363 l425 0 l-396 -711 Z" /><glyph glyph-name="brokenbar" unicode="¦" d="M230 697 l0 721 l238 0 l0 -721 l-238 0 ZM230 -196 l0 708 l238 0 l0 -708 l-238 0 Z" /><glyph glyph-name="section" unicode="§" d="M956 540 l0 356 l-586 1 l-189 188 l0 215 l190 190 l380 0 l0 -190 l-133 0 l0 -215 l559 0 l192 -189 l0 -356 l-413 0 ZM1202 473 l190 -190 l0 -215 l-189 -189 l-380 0 l0 189 l133 0 l0 215 l-547 0 l-193 190 l0 356 l402 0 l0 -356 l584 0 ZM822 1490 l380 0 l190 -190 l0 -113 l-437 0 l0 113 l-133 0 l0 190 ZM752 -121 l-380 0 l-191 189 l0 113 l438 0 l0 -113 l133 0 l0 -189 Z" /><glyph glyph-name="dieresis" unicode="¨" d="M274 1560 l336 0 l0 -281 l-336 0 l0 281 ZM804 1560 l336 0 l0 -281 l-336 0 l0 281 Z" /><glyph glyph-name="copyright" unicode="©" d="M822 1062 l0 220 l361 0 l308 -309 l0 -708 l-308 -308 l-344 0 l0 220 l207 0 l190 191 l0 162 l-337 0 l0 -132 l-212 0 l0 443 l212 0 l0 -133 l337 0 l0 159 l-191 195 l-223 0 ZM95 265 l0 708 l309 309 l364 0 l0 -220 l-223 0 l-194 -195 l0 -497 l192 -193 l243 0 l0 -220 l-382 0 l-309 308 Z" /><glyph glyph-name="ordfeminine" unicode="ª" d="M670 530 l0 598 l-464 0 l0 100 l100 99 l498 0 l199 -199 l0 -598 l-333 0 ZM603 1001 l0 -145 l-130 0 l0 -127 l130 0 l0 -101 l-99 -98 l-230 0 l-132 132 l0 207 l132 132 l329 0 ZM483 361 l177 0 l132 -133 l0 -176 l-132 -133 l-177 0 l-133 133 l0 176 l133 133 Z" /><glyph glyph-name="guillemotleft" unicode="«" d="M834 613 l420 432 l265 0 l-281 -509 l281 -509 l-265 0 l-420 432 l0 154 ZM202 613 l420 432 l265 0 l-281 -509 l281 -509 l-265 0 l-420 432 l0 154 Z" /><glyph glyph-name="logicalnot" unicode="¬" d="M186 969 l1251 0 l0 -699 l-239 0 l0 461 l-1012 0 l0 238 Z" /><glyph glyph-name="uni00AD" unicode="­" d="M97 752 l885 0 l0 -266 l-885 0 l0 266 Z" /><glyph glyph-name="registered" unicode="®" d="M1085 -43 l0 220 l182 0 l-164 306 l134 135 l0 267 l-177 177 l-240 0 l0 220 l363 0 l308 -309 l0 -708 l-308 -308 l-98 0 ZM404 -43 l-309 308 l0 708 l309 309 l362 0 l0 -220 l-419 0 l0 -885 l154 0 l0 -220 l-97 0 ZM905 177 l127 0 l0 -220 l-477 0 l0 220 l141 0 l0 265 l76 0 l133 -265 ZM696 849 l195 0 l0 -194 l-195 0 l0 194 Z" /><glyph glyph-name="macron" unicode="¯" d="M251 1393 l729 0 l0 -170 l-729 0 l0 170 Z" /><glyph glyph-name="degree" unicode="°" d="M620 481 l0 237 l147 0 l0 363 l-147 0 l0 246 l172 0 l243 -243 l0 -360 l-243 -243 l-172 0 ZM553 718 l0 -237 l-173 0 l-242 243 l0 360 l242 243 l173 0 l0 -246 l-147 0 l0 -363 l147 0 Z" /><glyph glyph-name="plusminus" unicode="±" d="M186 910 l415 0 l0 230 l241 0 l0 -230 l411 0 l0 -240 l-411 0 l0 -228 l-241 0 l0 228 l-415 0 l0 240 ZM186 313 l1067 0 l0 -239 l-1067 0 l0 239 Z" /><glyph glyph-name="twosuperior" unicode="²" d="M424 398 l-327 0 l0 340 l186 186 l384 0 l0 403 l124 0 l203 -186 l0 -217 l-185 -186 l-385 0 l0 -340 ZM283 1327 l314 0 l0 -186 l-190 0 l0 -94 l-310 0 l0 94 l186 186 ZM485 398 l0 186 l527 0 l0 -186 l-527 0 Z" /><glyph glyph-name="threesuperior" unicode="³" d="M665 398 l0 374 l-306 0 l0 184 l306 0 l0 371 l127 0 l186 -182 l0 -189 l-92 -95 l92 -89 l0 -190 l-186 -184 l-127 0 ZM265 1327 l333 0 l0 -186 l-209 0 l0 -94 l-310 0 l0 94 l186 186 ZM598 582 l0 -184 l-333 0 l-186 184 l0 95 l310 0 l0 -95 l209 0 Z" /><glyph glyph-name="acute" unicode="´" d="M760 1607 l184 -85 l-54 -211 l-554 -167 l-62 147 l486 316 Z" /><glyph glyph-name="mu" unicode="µ&#x3bc;" d="M431 1062 l0 -1416 l-310 0 l0 1416 l310 0 ZM499 237 l394 0 l0 825 l317 0 l0 -825 l167 0 l0 -237 l-192 0 l-133 133 l-133 -133 l-293 0 l-127 133 l0 104 Z" /><glyph glyph-name="paragraph" unicode="¶" d="M917 444 l0 -267 l-475 0 l-266 267 l0 618 l266 265 l475 0 l0 -265 l-132 0 l0 -618 l132 0 ZM1424 74 l-265 -265 l-176 0 l0 1518 l441 0 l0 -1253 Z" /><glyph glyph-name="periodcentered" unicode="·" d="M273 906 l177 0 l133 -133 l0 -177 l-133 -132 l-177 0 l-132 132 l0 177 l132 133 Z" /><glyph glyph-name="cedilla" unicode="¸" d="M570 -225 l0 163 l202 0 l0 -245 l-175 -200 l-312 0 l0 282 l285 0 Z" /><glyph glyph-name="onesuperior" unicode="¹" d="M622 651 l-325 0 l0 490 l-155 0 l0 186 l480 0 l0 -676 ZM142 584 l636 0 l0 -186 l-636 0 l0 186 Z" /><glyph glyph-name="ordmasculine" unicode="º" d="M1007 731 l-200 -201 l-200 0 l0 201 l67 0 l0 398 l-67 0 l0 200 l200 0 l200 -200 l0 -398 ZM474 731 l65 0 l0 -201 l-198 0 l-199 201 l0 398 l199 200 l198 0 l0 -200 l-65 0 l0 -398 ZM486 361 l178 0 l132 -133 l0 -176 l-132 -133 l-178 0 l-133 133 l0 176 l133 133 Z" /><glyph glyph-name="guillemotright" unicode="»" d="M888 458 l-420 -432 l-265 0 l281 509 l-281 509 l265 0 l420 -432 l0 -154 ZM1518 458 l-420 -432 l-265 0 l281 509 l-281 509 l265 0 l420 -432 l0 -154 Z" /><glyph glyph-name="onequarter" unicode="¼" d="M1268 1327 l248 0 l-479 -1327 l-248 0 l479 1327 ZM649 651 l-308 0 l0 490 l-155 0 l0 186 l463 0 l0 -676 ZM186 584 l619 0 l0 -186 l-619 0 l0 186 ZM2145 309 l145 0 l0 -170 l-145 0 l0 -139 l-309 0 l0 929 l309 0 l0 -620 ZM1314 309 l455 530 l0 -368 l-158 -162 l158 0 l0 -170 l-455 0 l0 170 Z" /><glyph glyph-name="onehalf" unicode="½" d="M1267 1327 l249 0 l-479 -1327 l-250 0 l480 1327 ZM649 651 l-309 0 l0 490 l-154 0 l0 186 l463 0 l0 -676 ZM186 584 l619 0 l0 -186 l-619 0 l0 186 ZM1813 15 l-327 0 l0 340 l186 186 l384 0 l0 403 l124 0 l203 -186 l0 -217 l-185 -186 l-385 0 l0 -340 ZM1672 944 l314 0 l0 -186 l-190 0 l0 -94 l-310 0 l0 94 l186 186 ZM1874 15 l0 186 l527 0 l0 -186 l-527 0 Z" /><glyph glyph-name="threequarters" unicode="¾" d="M1395 1327 l250 0 l-479 -1327 l-250 0 l479 1327 ZM2291 309 l145 0 l0 -170 l-145 0 l0 -139 l-309 0 l0 929 l309 0 l0 -620 ZM1460 309 l455 530 l0 -368 l-158 -162 l158 0 l0 -170 l-455 0 l0 170 ZM665 398 l0 374 l-306 0 l0 184 l306 0 l0 371 l127 0 l186 -182 l0 -189 l-92 -95 l92 -89 l0 -190 l-186 -184 l-127 0 ZM265 1327 l333 0 l0 -186 l-209 0 l0 -94 l-310 0 l0 94 l186 186 ZM598 582 l0 -184 l-333 0 l-186 184 l0 95 l310 0 l0 -95 l209 0 Z" /><glyph glyph-name="questiondown" unicode="¿" d="M344 -104 l-265 265 l0 230 l265 266 l190 0 l0 124 l444 0 l0 -124 l-266 -266 l-191 0 l0 -230 l363 0 l0 133 l443 0 l0 -131 l-266 -267 l-717 0 ZM978 914 l-444 0 l0 309 l444 0 l0 -309 Z" /><glyph glyph-name="Agrave" unicode="à" d="M988 145 l-434 0 l92 263 l240 0 l-355 919 l431 0 l529 -1327 l-447 0 l-56 145 ZM436 0 l-427 0 l474 1267 l196 -527 l-243 -740 ZM906 1527 l-52 -122 l-502 115 l-47 169 l155 78 l446 -240 Z" /><glyph glyph-name="Aacute" unicode="á" d="M988 145 l-434 0 l92 263 l240 0 l-355 919 l431 0 l529 -1327 l-447 0 l-56 145 ZM436 0 l-427 0 l474 1267 l196 -527 l-243 -740 ZM1032 1767 l155 -78 l-47 -169 l-503 -115 l-51 122 l446 240 Z" /><glyph glyph-name="Acircumflex" unicode="â" d="M988 145 l-434 0 l92 263 l240 0 l-355 919 l431 0 l529 -1327 l-447 0 l-56 145 ZM436 0 l-427 0 l474 1267 l196 -527 l-243 -740 ZM619 1732 l252 0 l254 -260 l-76 -79 l-303 159 l-306 -159 l-77 80 l256 259 Z" /><glyph glyph-name="Atilde" unicode="ã" d="M988 145 l-434 0 l92 263 l240 0 l-355 919 l431 0 l529 -1327 l-447 0 l-56 145 ZM436 0 l-427 0 l474 1267 l196 -527 l-243 -740 ZM931 1610 l181 107 l64 -78 l-207 -214 l-205 0 l-160 116 l-41 0 l-181 -106 l-64 78 l207 214 l205 0 l160 -117 l41 0 Z" /><glyph glyph-name="Adieresis" unicode="ä" d="M988 145 l-434 0 l92 263 l240 0 l-355 919 l431 0 l529 -1327 l-447 0 l-56 145 ZM436 0 l-427 0 l474 1267 l196 -527 l-243 -740 ZM313 1682 l336 0 l0 -221 l-336 0 l0 221 ZM843 1682 l336 0 l0 -221 l-336 0 l0 221 Z" /><glyph glyph-name="Aring" unicode="å" d="M858 1386 l0 226 l-77 0 l0 155 l114 0 l139 -137 l0 -229 l-75 -74 l3 0 l529 -1327 l-447 0 l-46 117 l-454 0 l92 263 l261 0 l-366 947 l1 0 l-74 74 l0 229 l138 137 l115 0 l0 -155 l-76 0 l0 -226 l223 0 ZM436 0 l-427 0 l474 1267 l196 -527 l-243 -740 Z" /><glyph glyph-name="AE" unicode="æ" d="M1449 530 l0 -530 l-442 0 l0 1327 l442 0 l0 -530 l442 0 l0 -267 l-442 0 ZM939 211 l-379 0 l-95 -211 l-456 0 l633 1327 l297 0 l0 -276 l-261 -577 l261 0 l0 -263 ZM1516 1062 l0 265 l730 0 l0 -398 l-443 0 l0 133 l-287 0 ZM1516 0 l0 265 l287 0 l0 133 l443 0 l0 -398 l-730 0 Z" /><glyph glyph-name="Ccedilla" unicode="ç" d="M539 0 l-176 0 l-266 265 l0 797 l266 265 l176 0 l0 -1327 ZM609 1062 l0 265 l471 0 l265 -265 l0 -267 l-442 0 l0 267 l-294 0 ZM609 0 l0 265 l294 0 l0 194 l442 0 l0 -194 l-265 -265 l-471 0 ZM722 -225 l0 163 l202 0 l0 -245 l-175 -200 l-312 0 l0 282 l285 0 Z" /><glyph glyph-name="Egrave" unicode="è" d="M559 545 l0 -545 l-442 0 l0 1327 l442 0 l0 -526 l423 0 l0 -256 l-423 0 ZM629 1070 l0 257 l691 0 l0 -384 l-416 0 l0 127 l-275 0 ZM629 0 l0 265 l249 0 l0 133 l442 0 l0 -398 l-691 0 ZM895 1527 l-52 -122 l-502 115 l-47 169 l155 78 l446 -240 Z" /><glyph glyph-name="Eacute" unicode="é" d="M559 545 l0 -545 l-442 0 l0 1327 l442 0 l0 -526 l423 0 l0 -256 l-423 0 ZM629 1070 l0 257 l691 0 l0 -384 l-416 0 l0 127 l-275 0 ZM629 0 l0 265 l249 0 l0 133 l442 0 l0 -398 l-691 0 ZM1021 1767 l155 -78 l-47 -169 l-503 -115 l-51 122 l446 240 Z" /><glyph glyph-name="Ecircumflex" unicode="ê" d="M559 545 l0 -545 l-442 0 l0 1327 l442 0 l0 -526 l423 0 l0 -256 l-423 0 ZM629 1070 l0 257 l691 0 l0 -384 l-416 0 l0 127 l-275 0 ZM629 0 l0 265 l249 0 l0 133 l442 0 l0 -398 l-691 0 ZM608 1732 l252 0 l254 -260 l-76 -79 l-303 159 l-306 -159 l-77 80 l256 259 Z" /><glyph glyph-name="Edieresis" unicode="ë" d="M559 545 l0 -545 l-442 0 l0 1327 l442 0 l0 -526 l423 0 l0 -256 l-423 0 ZM629 1070 l0 257 l691 0 l0 -384 l-416 0 l0 127 l-275 0 ZM629 0 l0 265 l249 0 l0 133 l442 0 l0 -398 l-691 0 ZM302 1682 l336 0 l0 -221 l-336 0 l0 221 ZM832 1682 l336 0 l0 -221 l-336 0 l0 221 Z" /><glyph glyph-name="Igrave" unicode="ì" d="M97 283 l133 0 l0 762 l-133 0 l0 282 l708 0 l0 -282 l-133 0 l0 -762 l133 0 l0 -283 l-708 0 l0 283 ZM612 1526 l-52 -122 l-502 115 l-47 169 l155 78 l446 -240 Z" /><glyph glyph-name="Iacute" unicode="í" d="M97 283 l133 0 l0 762 l-133 0 l0 282 l708 0 l0 -282 l-133 0 l0 -762 l133 0 l0 -283 l-708 0 l0 283 ZM737 1766 l155 -78 l-47 -169 l-503 -115 l-51 122 l446 240 Z" /><glyph glyph-name="Icircumflex" unicode="î" d="M97 283 l133 0 l0 762 l-133 0 l0 282 l708 0 l0 -282 l-133 0 l0 -762 l133 0 l0 -283 l-708 0 l0 283 ZM325 1731 l252 0 l254 -260 l-76 -79 l-303 159 l-306 -159 l-77 80 l256 259 Z" /><glyph glyph-name="Idieresis" unicode="ï" d="M97 283 l133 0 l0 762 l-133 0 l0 282 l708 0 l0 -282 l-133 0 l0 -762 l133 0 l0 -283 l-708 0 l0 283 ZM19 1681 l336 0 l0 -221 l-336 0 l0 221 ZM549 1681 l336 0 l0 -221 l-336 0 l0 221 Z" /><glyph glyph-name="Eth" unicode="ð" d="M629 0 l0 265 l328 0 l0 797 l-328 0 l0 265 l505 0 l266 -265 l0 -797 l-266 -265 l-505 0 ZM29 757 l88 0 l0 570 l442 0 l0 -570 l215 0 l0 -187 l-215 0 l0 -570 l-442 0 l0 570 l-88 0 l0 187 Z" /><glyph glyph-name="Ntilde" unicode="ñ" d="M1391 0 l-470 0 l-804 1327 l467 0 l807 -1327 ZM117 0 l0 1201 l385 -631 l0 -570 l-385 0 ZM1391 1327 l0 -1201 l-385 634 l0 567 l385 0 ZM929 1609 l181 107 l64 -78 l-207 -214 l-205 0 l-160 116 l-41 0 l-181 -106 l-64 78 l207 214 l205 0 l160 -117 l41 0 Z" /><glyph glyph-name="Ograve" unicode="ò" d="M529 270 l166 0 l0 -270 l-340 0 l-269 265 l0 797 l269 265 l340 0 l0 -269 l-166 0 l0 -788 ZM934 1058 l-169 0 l0 269 l343 0 l268 -265 l0 -797 l-268 -265 l-343 0 l0 270 l169 0 l0 788 ZM891 1527 l-52 -122 l-502 115 l-47 169 l155 78 l446 -240 Z" /><glyph glyph-name="Oacute" unicode="ó" d="M529 270 l166 0 l0 -270 l-340 0 l-269 265 l0 797 l269 265 l340 0 l0 -269 l-166 0 l0 -788 ZM934 1058 l-169 0 l0 269 l343 0 l268 -265 l0 -797 l-268 -265 l-343 0 l0 270 l169 0 l0 788 ZM1017 1767 l155 -78 l-47 -169 l-503 -115 l-51 122 l446 240 Z" /><glyph glyph-name="Ocircumflex" unicode="ô" d="M529 270 l166 0 l0 -270 l-340 0 l-269 265 l0 797 l269 265 l340 0 l0 -269 l-166 0 l0 -788 ZM934 1058 l-169 0 l0 269 l343 0 l268 -265 l0 -797 l-268 -265 l-343 0 l0 270 l169 0 l0 788 ZM604 1732 l252 0 l254 -260 l-76 -79 l-303 159 l-306 -159 l-77 80 l256 259 Z" /><glyph glyph-name="Otilde" unicode="õ" d="M529 270 l166 0 l0 -270 l-340 0 l-269 265 l0 797 l269 265 l340 0 l0 -269 l-166 0 l0 -788 ZM934 1058 l-169 0 l0 269 l343 0 l268 -265 l0 -797 l-268 -265 l-343 0 l0 270 l169 0 l0 788 ZM916 1610 l181 107 l64 -78 l-207 -214 l-205 0 l-160 116 l-41 0 l-181 -106 l-64 78 l207 214 l205 0 l160 -117 l41 0 Z" /><glyph glyph-name="Odieresis" unicode="ö" d="M529 270 l166 0 l0 -270 l-340 0 l-269 265 l0 797 l269 265 l340 0 l0 -269 l-166 0 l0 -788 ZM934 1058 l-169 0 l0 269 l343 0 l268 -265 l0 -797 l-268 -265 l-343 0 l0 270 l169 0 l0 788 ZM298 1682 l336 0 l0 -221 l-336 0 l0 221 ZM828 1682 l336 0 l0 -221 l-336 0 l0 221 Z" /><glyph glyph-name="multiply" unicode="×" d="M187 310 l316 311 l-314 311 l166 170 l311 -316 l311 315 l165 -168 l-313 -310 l315 -311 l-167 -170 l-313 315 l-312 -315 l-165 168 Z" /><glyph glyph-name="Oslash" unicode="ø" d="M240 111 l-154 154 l0 797 l267 265 l461 0 l-73 -265 l-212 0 l0 -797 l116 0 l-111 -437 l-347 84 l53 199 ZM1369 265 l-265 -265 l-458 0 l69 264 l212 1 l0 797 l-113 0 l109 437 l348 -84 l-54 -202 l152 -151 l0 -797 Z" /><glyph glyph-name="Ugrave" unicode="ù" d="M1388 265 l-265 -265 l-341 0 l0 265 l164 0 l0 1062 l442 0 l0 -1062 ZM549 265 l163 0 l0 -265 l-340 0 l-266 265 l0 1062 l443 0 l0 -1062 ZM907 1526 l-52 -122 l-502 115 l-47 169 l155 78 l446 -240 Z" /><glyph glyph-name="Uacute" unicode="ú" d="M1388 265 l-265 -265 l-341 0 l0 265 l164 0 l0 1062 l442 0 l0 -1062 ZM549 265 l163 0 l0 -265 l-340 0 l-266 265 l0 1062 l443 0 l0 -1062 ZM1033 1766 l155 -78 l-47 -169 l-503 -115 l-51 122 l446 240 Z" /><glyph glyph-name="Ucircumflex" unicode="û" d="M1388 265 l-265 -265 l-341 0 l0 265 l164 0 l0 1062 l442 0 l0 -1062 ZM549 265 l163 0 l0 -265 l-340 0 l-266 265 l0 1062 l443 0 l0 -1062 ZM620 1731 l252 0 l254 -260 l-76 -79 l-303 159 l-306 -159 l-77 80 l256 259 Z" /><glyph glyph-name="Udieresis" unicode="ü" d="M1388 265 l-265 -265 l-341 0 l0 265 l164 0 l0 1062 l442 0 l0 -1062 ZM549 265 l163 0 l0 -265 l-340 0 l-266 265 l0 1062 l443 0 l0 -1062 ZM314 1681 l336 0 l0 -221 l-336 0 l0 221 ZM844 1681 l336 0 l0 -221 l-336 0 l0 221 Z" /><glyph glyph-name="Yacute" unicode="ý" d="M424 422 l-450 905 l434 0 l459 -936 l0 -391 l-443 0 l0 422 ZM895 484 l-215 436 l218 407 l425 0 l-428 -843 ZM934 1766 l155 -78 l-47 -169 l-503 -115 l-51 122 l446 240 Z" /><glyph glyph-name="Thorn" unicode="þ" d="M104 0 l0 1327 l433 0 l0 -1327 l-433 0 ZM607 873 l0 265 l496 0 l266 -265 l0 -399 l-266 -265 l-496 0 l0 265 l328 0 l0 399 l-328 0 Z" /><glyph glyph-name="germandbls" unicode="ß" d="M666 0 l0 265 l258 0 l0 429 l-229 0 l0 214 l150 0 l0 295 l-231 0 l0 264 l402 0 l221 -220 l0 -345 l-71 -68 l199 -203 l0 -378 l-253 -253 l-446 0 ZM104 0 l0 1203 l265 264 l177 0 l0 -1467 l-442 0 Z" /><glyph glyph-name="agrave" unicode="à" d="M804 0 l0 797 l-629 0 l0 132 l133 133 l663 0 l265 -265 l0 -797 l-432 0 ZM734 618 l0 -184 l-228 0 l0 -186 l228 0 l0 -117 l-132 -131 l-338 0 l-178 175 l0 266 l178 177 l470 0 ZM959 1291 l-61 -147 l-555 167 l-54 211 l184 85 l486 -316 Z" /><glyph glyph-name="aacute" unicode="á" d="M804 0 l0 797 l-629 0 l0 132 l133 133 l663 0 l265 -265 l0 -797 l-432 0 ZM734 618 l0 -184 l-228 0 l0 -186 l228 0 l0 -117 l-132 -131 l-338 0 l-178 175 l0 266 l178 177 l470 0 ZM867 1607 l184 -85 l-54 -211 l-554 -167 l-62 147 l486 316 Z" /><glyph glyph-name="acircumflex" unicode="â" d="M804 0 l0 797 l-629 0 l0 132 l133 133 l663 0 l265 -265 l0 -797 l-432 0 ZM734 618 l0 -184 l-228 0 l0 -186 l228 0 l0 -117 l-132 -131 l-338 0 l-178 175 l0 266 l178 177 l470 0 ZM1113 1250 l-93 -97 l-354 210 l-353 -210 l-94 97 l295 335 l304 0 l295 -335 Z" /><glyph glyph-name="atilde" unicode="ã" d="M804 0 l0 797 l-629 0 l0 132 l133 133 l663 0 l265 -265 l0 -797 l-432 0 ZM734 618 l0 -184 l-228 0 l0 -186 l228 0 l0 -117 l-132 -131 l-338 0 l-178 175 l0 266 l178 177 l470 0 ZM706 1558 l108 -151 l67 0 l138 115 l87 -87 l-195 -214 l-283 0 l-108 150 l-67 0 l-138 -114 l-87 87 l195 214 l283 0 Z" /><glyph glyph-name="adieresis" unicode="ä" d="M804 0 l0 797 l-629 0 l0 132 l133 133 l663 0 l265 -265 l0 -797 l-432 0 ZM734 618 l0 -184 l-228 0 l0 -186 l228 0 l0 -117 l-132 -131 l-338 0 l-178 175 l0 266 l178 177 l470 0 ZM232 1560 l336 0 l0 -281 l-336 0 l0 281 ZM762 1560 l336 0 l0 -281 l-336 0 l0 281 Z" /><glyph glyph-name="aring" unicode="å" d="M804 0 l0 797 l-629 0 l0 132 l133 133 l663 0 l265 -265 l0 -797 l-432 0 ZM734 618 l0 -184 l-228 0 l0 -186 l228 0 l0 -117 l-132 -131 l-338 0 l-178 175 l0 266 l178 177 l470 0 ZM699 1200 l0 156 l78 0 l0 171 l-78 0 l0 155 l97 0 l139 -137 l0 -208 l-139 -137 l-97 0 ZM630 1356 l0 -156 l-99 0 l-137 137 l0 208 l137 137 l99 0 l0 -155 l-77 0 l0 -171 l77 0 Z" /><glyph glyph-name="ae" unicode="æ" d="M308 1062 l617 0 l92 -89 l87 89 l232 0 l0 -265 l-100 0 l0 -532 l100 0 l0 -265 l-232 0 l-89 88 l-90 -88 l-229 0 l0 265 l98 0 l0 532 l-619 0 l0 132 l133 133 ZM724 628 l0 -194 l-195 0 l0 -169 l97 0 l0 -265 l-362 0 l-178 175 l0 276 l178 177 l460 0 ZM1309 434 l0 194 l193 0 l0 169 l-96 0 l0 265 l273 0 l266 -265 l0 -363 l-636 0 ZM1406 0 l0 265 l494 0 l0 -132 l-132 -133 l-362 0 Z" /><glyph glyph-name="ccedilla" unicode="ç" d="M537 0 l-177 0 l-265 265 l0 532 l265 265 l177 0 l0 -1062 ZM607 797 l0 265 l373 0 l265 -265 l0 -159 l-442 0 l0 159 l-196 0 ZM607 0 l0 248 l196 0 l0 133 l442 0 l0 -116 l-265 -265 l-373 0 ZM647 -225 l0 163 l202 0 l0 -245 l-175 -200 l-312 0 l0 282 l285 0 Z" /><glyph glyph-name="egrave" unicode="è" d="M537 0 l-177 0 l-265 265 l0 532 l265 265 l177 0 l0 -1062 ZM607 426 l0 185 l233 0 l0 186 l-233 0 l0 265 l375 0 l265 -265 l0 -371 l-640 0 ZM607 0 l0 248 l594 0 l0 -115 l-132 -133 l-462 0 ZM961 1291 l-61 -147 l-555 167 l-54 211 l184 85 l486 -316 Z" /><glyph glyph-name="eacute" unicode="é" d="M537 0 l-177 0 l-265 265 l0 532 l265 265 l177 0 l0 -1062 ZM607 426 l0 185 l233 0 l0 186 l-233 0 l0 265 l375 0 l265 -265 l0 -371 l-640 0 ZM607 0 l0 248 l594 0 l0 -115 l-132 -133 l-462 0 ZM869 1607 l184 -85 l-54 -211 l-554 -167 l-62 147 l486 316 Z" /><glyph glyph-name="ecircumflex" unicode="ê" d="M537 0 l-177 0 l-265 265 l0 532 l265 265 l177 0 l0 -1062 ZM607 426 l0 185 l233 0 l0 186 l-233 0 l0 265 l375 0 l265 -265 l0 -371 l-640 0 ZM607 0 l0 248 l594 0 l0 -115 l-132 -133 l-462 0 ZM1115 1250 l-93 -97 l-354 210 l-353 -210 l-94 97 l295 335 l304 0 l295 -335 Z" /><glyph glyph-name="edieresis" unicode="ë" d="M537 0 l-177 0 l-265 265 l0 532 l265 265 l177 0 l0 -1062 ZM607 426 l0 185 l233 0 l0 186 l-233 0 l0 265 l375 0 l265 -265 l0 -371 l-640 0 ZM607 0 l0 248 l594 0 l0 -115 l-132 -133 l-462 0 ZM234 1560 l336 0 l0 -281 l-336 0 l0 281 ZM764 1560 l336 0 l0 -281 l-336 0 l0 281 Z" /><glyph glyph-name="igrave" unicode="ì" d="M105 1062 l443 0 l0 -1062 l-443 0 l0 1062 ZM621 1291 l-61 -147 l-555 167 l-54 211 l184 85 l486 -316 Z" /><glyph glyph-name="iacute" unicode="í" d="M105 1062 l443 0 l0 -1062 l-443 0 l0 1062 ZM529 1607 l184 -85 l-54 -211 l-554 -167 l-62 147 l486 316 Z" /><glyph glyph-name="icircumflex" unicode="î" d="M105 1062 l443 0 l0 -1062 l-443 0 l0 1062 ZM775 1250 l-93 -97 l-354 210 l-353 -210 l-94 97 l295 335 l304 0 l295 -335 Z" /><glyph glyph-name="idieresis" unicode="ï" d="M105 1062 l443 0 l0 -1062 l-443 0 l0 1062 ZM-107 1560 l336 0 l0 -281 l-336 0 l0 281 ZM423 1560 l336 0 l0 -281 l-336 0 l0 281 Z" /><glyph glyph-name="eth" unicode="ð" d="M446 1178 l162 81 l-102 118 l320 152 l107 -129 l184 84 l88 -172 l-151 -77 l191 -269 l3 -701 l-266 -265 l-177 0 l0 962 l-97 131 l-166 -78 l-96 163 ZM539 265 l196 0 l0 -265 l-372 0 l-266 265 l0 437 l266 239 l372 0 l0 -239 l-196 0 l0 -437 Z" /><glyph glyph-name="ntilde" unicode="ñ" d="M104 0 l0 1062 l446 0 l0 -1062 l-446 0 ZM812 797 l-190 0 l0 116 l148 149 l246 0 l239 -239 l0 -823 l-443 0 l0 797 ZM718 1558 l108 -151 l67 0 l138 115 l87 -87 l-195 -214 l-283 0 l-108 150 l-67 0 l-138 -114 l-87 87 l195 214 l283 0 Z" /><glyph glyph-name="ograve" unicode="ò" d="M1288 265 l-265 -265 l-296 0 l0 248 l110 0 l0 549 l-110 0 l0 265 l296 0 l265 -265 l0 -532 ZM542 248 l115 0 l0 -248 l-297 0 l-265 265 l0 532 l265 265 l297 0 l0 -265 l-115 0 l0 -549 ZM984 1291 l-61 -147 l-555 167 l-54 211 l184 85 l486 -316 Z" /><glyph glyph-name="oacute" unicode="ó" d="M1288 265 l-265 -265 l-296 0 l0 248 l110 0 l0 549 l-110 0 l0 265 l296 0 l265 -265 l0 -532 ZM542 248 l115 0 l0 -248 l-297 0 l-265 265 l0 532 l265 265 l297 0 l0 -265 l-115 0 l0 -549 ZM892 1607 l184 -85 l-54 -211 l-554 -167 l-62 147 l486 316 Z" /><glyph glyph-name="ocircumflex" unicode="ô" d="M1288 265 l-265 -265 l-296 0 l0 248 l110 0 l0 549 l-110 0 l0 265 l296 0 l265 -265 l0 -532 ZM542 248 l115 0 l0 -248 l-297 0 l-265 265 l0 532 l265 265 l297 0 l0 -265 l-115 0 l0 -549 ZM1138 1250 l-93 -97 l-354 210 l-353 -210 l-94 97 l295 335 l304 0 l295 -335 Z" /><glyph glyph-name="otilde" unicode="õ" d="M1288 265 l-265 -265 l-296 0 l0 248 l110 0 l0 549 l-110 0 l0 265 l296 0 l265 -265 l0 -532 ZM542 248 l115 0 l0 -248 l-297 0 l-265 265 l0 532 l265 265 l297 0 l0 -265 l-115 0 l0 -549 ZM731 1558 l108 -151 l67 0 l138 115 l87 -87 l-195 -214 l-283 0 l-108 150 l-67 0 l-138 -114 l-87 87 l195 214 l283 0 Z" /><glyph glyph-name="odieresis" unicode="ö" d="M1288 265 l-265 -265 l-296 0 l0 248 l110 0 l0 549 l-110 0 l0 265 l296 0 l265 -265 l0 -532 ZM542 248 l115 0 l0 -248 l-297 0 l-265 265 l0 532 l265 265 l297 0 l0 -265 l-115 0 l0 -549 ZM257 1560 l336 0 l0 -281 l-336 0 l0 281 ZM787 1560 l336 0 l0 -281 l-336 0 l0 281 Z" /><glyph glyph-name="divide" unicode="÷" d="M186 740 l1067 0 l0 -239 l-1067 0 l0 239 ZM554 1153 l331 0 l0 -238 l-331 0 l0 238 ZM554 326 l331 0 l0 -240 l-331 0 l0 240 Z" /><glyph glyph-name="oslash" unicode="ø" d="M257 107 l-162 158 l0 532 l274 265 l329 0 l-72 -265 l-80 0 l0 -532 l23 0 l0 -1 l76 0 l-129 -485 l-323 84 l64 244 ZM1102 952 l160 -155 l0 -532 l-274 -265 l-325 0 l69 264 l79 1 l0 532 l-96 0 l126 479 l323 -84 l-62 -240 Z" /><glyph glyph-name="ugrave" unicode="ù" d="M1246 1062 l0 -1062 l-442 0 l0 1062 l442 0 ZM537 265 l197 0 l0 -132 l-128 -133 l-245 0 l-266 265 l0 797 l442 0 l0 -797 ZM963 1291 l-61 -147 l-555 167 l-54 211 l184 85 l486 -316 Z" /><glyph glyph-name="uacute" unicode="ú" d="M1246 1062 l0 -1062 l-442 0 l0 1062 l442 0 ZM537 265 l197 0 l0 -132 l-128 -133 l-245 0 l-266 265 l0 797 l442 0 l0 -797 ZM871 1607 l184 -85 l-54 -211 l-554 -167 l-62 147 l486 316 Z" /><glyph glyph-name="ucircumflex" unicode="û" d="M1246 1062 l0 -1062 l-442 0 l0 1062 l442 0 ZM537 265 l197 0 l0 -132 l-128 -133 l-245 0 l-266 265 l0 797 l442 0 l0 -797 ZM1117 1250 l-93 -97 l-354 210 l-353 -210 l-94 97 l295 335 l304 0 l295 -335 Z" /><glyph glyph-name="udieresis" unicode="ü" d="M1246 1062 l0 -1062 l-442 0 l0 1062 l442 0 ZM537 265 l197 0 l0 -132 l-128 -133 l-245 0 l-266 265 l0 797 l442 0 l0 -797 ZM236 1560 l336 0 l0 -281 l-336 0 l0 281 ZM766 1560 l336 0 l0 -281 l-336 0 l0 281 Z" /><glyph glyph-name="yacute" unicode="ý" d="M696 -370 l-424 0 l538 1432 l425 0 l-539 -1432 ZM-14 1062 l441 0 l149 -432 l-198 -541 l-392 973 ZM821 1607 l184 -85 l-54 -211 l-554 -167 l-62 147 l486 316 Z" /><glyph glyph-name="thorn" unicode="þ" d="M546 1450 l0 -1804 l-442 0 l0 1804 l442 0 ZM811 797 l-198 0 l0 134 l131 131 l244 0 l266 -265 l0 -532 l-266 -265 l-375 0 l0 265 l198 0 l0 532 Z" /><glyph glyph-name="ydieresis" unicode="ÿ" d="M696 -370 l-424 0 l538 1432 l425 0 l-539 -1432 ZM-14 1062 l441 0 l149 -432 l-198 -541 l-392 973 ZM186 1560 l336 0 l0 -281 l-336 0 l0 281 ZM716 1560 l336 0 l0 -281 l-336 0 l0 281 Z" /><glyph glyph-name="Amacron" unicode="&#x100;" d="M988 145 l-434 0 l92 263 l240 0 l-355 919 l431 0 l529 -1327 l-447 0 l-56 145 ZM436 0 l-427 0 l474 1267 l196 -527 l-243 -740 ZM383 1651 l729 0 l0 -170 l-729 0 l0 170 Z" /><glyph glyph-name="amacron" unicode="&#x101;" d="M804 0 l0 797 l-629 0 l0 132 l133 133 l663 0 l265 -265 l0 -797 l-432 0 ZM734 618 l0 -184 l-228 0 l0 -186 l228 0 l0 -117 l-132 -131 l-338 0 l-178 175 l0 266 l178 177 l470 0 ZM302 1393 l729 0 l0 -170 l-729 0 l0 170 Z" /><glyph glyph-name="Abreve" unicode="&#x102;" d="M988 145 l-434 0 l92 263 l240 0 l-355 919 l431 0 l529 -1327 l-447 0 l-56 145 ZM436 0 l-427 0 l474 1267 l196 -527 l-243 -740 ZM374 1717 l138 39 l72 -152 l305 0 l72 152 l138 -39 l-36 -181 l-146 -144 l-361 0 l-146 144 l-36 181 Z" /><glyph glyph-name="abreve" unicode="&#x103;" d="M804 0 l0 797 l-629 0 l0 132 l133 133 l663 0 l265 -265 l0 -797 l-432 0 ZM734 618 l0 -184 l-228 0 l0 -186 l228 0 l0 -117 l-132 -131 l-338 0 l-178 175 l0 266 l178 177 l470 0 ZM283 1530 l138 39 l82 -182 l325 0 l82 182 l138 -39 l-56 -231 l-146 -144 l-361 0 l-146 144 l-56 231 Z" /><glyph glyph-name="Aogonek" unicode="&#x104;" d="M988 145 l-434 0 l92 263 l240 0 l-355 919 l431 0 l529 -1327 l-447 0 l-56 145 ZM436 0 l-427 0 l474 1267 l196 -527 l-243 -740 ZM1491 -175 l0 -270 l-282 0 l-175 200 l0 183 l202 0 l0 -113 l255 0 Z" /><glyph glyph-name="aogonek" unicode="&#x105;" d="M804 0 l0 797 l-629 0 l0 132 l133 133 l663 0 l265 -265 l0 -797 l-432 0 ZM734 618 l0 -184 l-228 0 l0 -186 l228 0 l0 -117 l-132 -131 l-338 0 l-178 175 l0 266 l178 177 l470 0 ZM1235 -175 l0 -270 l-282 0 l-175 200 l0 183 l202 0 l0 -113 l255 0 Z" /><glyph glyph-name="Cacute" unicode="&#x106;" d="M539 0 l-176 0 l-266 265 l0 797 l266 265 l176 0 l0 -1327 ZM609 1062 l0 265 l471 0 l265 -265 l0 -267 l-442 0 l0 267 l-294 0 ZM609 0 l0 265 l294 0 l0 194 l442 0 l0 -194 l-265 -265 l-471 0 ZM1003 1767 l155 -78 l-47 -169 l-503 -115 l-51 122 l446 240 Z" /><glyph glyph-name="cacute" unicode="&#x107;" d="M537 0 l-177 0 l-265 265 l0 532 l265 265 l177 0 l0 -1062 ZM607 797 l0 265 l373 0 l265 -265 l0 -159 l-442 0 l0 159 l-196 0 ZM607 0 l0 248 l196 0 l0 133 l442 0 l0 -116 l-265 -265 l-373 0 ZM881 1607 l184 -85 l-54 -211 l-554 -167 l-62 147 l486 316 Z" /><glyph glyph-name="Ccircumflex" unicode="&#x108;" d="M539 0 l-176 0 l-266 265 l0 797 l266 265 l176 0 l0 -1327 ZM609 1062 l0 265 l471 0 l265 -265 l0 -267 l-442 0 l0 267 l-294 0 ZM609 0 l0 265 l294 0 l0 194 l442 0 l0 -194 l-265 -265 l-471 0 ZM590 1732 l252 0 l254 -260 l-76 -79 l-303 159 l-306 -159 l-77 80 l256 259 Z" /><glyph glyph-name="ccircumflex" unicode="&#x109;" d="M537 0 l-177 0 l-265 265 l0 532 l265 265 l177 0 l0 -1062 ZM607 797 l0 265 l373 0 l265 -265 l0 -159 l-442 0 l0 159 l-196 0 ZM607 0 l0 248 l196 0 l0 133 l442 0 l0 -116 l-265 -265 l-373 0 ZM1127 1250 l-93 -97 l-354 210 l-353 -210 l-94 97 l295 335 l304 0 l295 -335 Z" /><glyph glyph-name="Cdotaccent" unicode="&#x10a;" d="M539 0 l-176 0 l-266 265 l0 797 l266 265 l176 0 l0 -1327 ZM609 1062 l0 265 l471 0 l265 -265 l0 -267 l-442 0 l0 267 l-294 0 ZM609 0 l0 265 l294 0 l0 194 l442 0 l0 -194 l-265 -265 l-471 0 ZM551 1682 l336 0 l0 -221 l-336 0 l0 221 Z" /><glyph glyph-name="cdotaccent" unicode="&#x10b;" d="M537 0 l-177 0 l-265 265 l0 532 l265 265 l177 0 l0 -1062 ZM607 797 l0 265 l373 0 l265 -265 l0 -159 l-442 0 l0 159 l-196 0 ZM607 0 l0 248 l196 0 l0 133 l442 0 l0 -116 l-265 -265 l-373 0 ZM512 1560 l336 0 l0 -281 l-336 0 l0 281 Z" /><glyph glyph-name="Ccaron" unicode="&#x10c;" d="M539 0 l-176 0 l-266 265 l0 797 l266 265 l176 0 l0 -1327 ZM609 1062 l0 265 l471 0 l265 -265 l0 -267 l-442 0 l0 267 l-294 0 ZM609 0 l0 265 l294 0 l0 194 l442 0 l0 -194 l-265 -265 l-471 0 ZM844 1393 l-252 0 l-254 261 l77 78 l302 -158 l306 158 l78 -79 l-257 -260 Z" /><glyph glyph-name="ccaron" unicode="&#x10d;" d="M537 0 l-177 0 l-265 265 l0 532 l265 265 l177 0 l0 -1062 ZM607 797 l0 265 l373 0 l265 -265 l0 -159 l-442 0 l0 159 l-196 0 ZM607 0 l0 248 l196 0 l0 133 l442 0 l0 -116 l-265 -265 l-373 0 ZM241 1487 l93 97 l353 -210 l354 210 l94 -97 l-295 -334 l-304 0 l-295 334 Z" /><glyph glyph-name="Dcaron" unicode="&#x10e;" d="M629 0 l0 265 l328 0 l0 797 l-328 0 l0 265 l505 0 l266 -265 l0 -797 l-266 -265 l-505 0 ZM117 1327 l442 0 l0 -1327 l-442 0 l0 1327 ZM854 1393 l-252 0 l-254 261 l77 78 l302 -158 l306 158 l78 -79 l-257 -260 Z" /><glyph glyph-name="dcaron" unicode="&#x10f;" d="M1262 1467 l0 -1467 l-442 0 l0 1467 l442 0 ZM537 248 l213 0 l0 -143 l-105 -105 l-311 0 l-239 239 l0 584 l239 239 l416 0 l0 -265 l-213 0 l0 -549 ZM1379 1327 l386 0 l0 -309 l-97 -266 l-186 0 l24 266 l-127 0 l0 309 Z" /><glyph glyph-name="Dcroat" unicode="&#x110;" d="M629 0 l0 265 l328 0 l0 797 l-328 0 l0 265 l505 0 l266 -265 l0 -797 l-266 -265 l-505 0 ZM29 757 l88 0 l0 570 l442 0 l0 -570 l215 0 l0 -187 l-215 0 l0 -570 l-442 0 l0 570 l-88 0 l0 187 Z" /><glyph glyph-name="dcroat" unicode="&#x111;" d="M1262 1467 l0 -109 l140 0 l0 -179 l-140 0 l0 -1179 l-442 0 l0 1179 l-189 0 l0 179 l189 0 l0 109 l442 0 ZM537 248 l213 0 l0 -143 l-105 -105 l-311 0 l-239 239 l0 584 l239 239 l416 0 l0 -265 l-213 0 l0 -549 Z" /><glyph glyph-name="Emacron" unicode="&#x112;" d="M559 545 l0 -545 l-442 0 l0 1327 l442 0 l0 -526 l423 0 l0 -256 l-423 0 ZM629 1070 l0 257 l691 0 l0 -384 l-416 0 l0 127 l-275 0 ZM629 0 l0 265 l249 0 l0 133 l442 0 l0 -398 l-691 0 ZM372 1651 l729 0 l0 -170 l-729 0 l0 170 Z" /><glyph glyph-name="emacron" unicode="&#x113;" d="M537 0 l-177 0 l-265 265 l0 532 l265 265 l177 0 l0 -1062 ZM607 426 l0 185 l233 0 l0 186 l-233 0 l0 265 l375 0 l265 -265 l0 -371 l-640 0 ZM607 0 l0 248 l594 0 l0 -115 l-132 -133 l-462 0 ZM304 1393 l729 0 l0 -170 l-729 0 l0 170 Z" /><glyph glyph-name="Ebreve" unicode="&#x114;" d="M559 545 l0 -545 l-442 0 l0 1327 l442 0 l0 -526 l423 0 l0 -256 l-423 0 ZM629 1070 l0 257 l691 0 l0 -384 l-416 0 l0 127 l-275 0 ZM629 0 l0 265 l249 0 l0 133 l442 0 l0 -398 l-691 0 ZM363 1717 l138 39 l72 -152 l305 0 l72 152 l138 -39 l-36 -181 l-146 -144 l-361 0 l-146 144 l-36 181 Z" /><glyph glyph-name="ebreve" unicode="&#x115;" d="M537 0 l-177 0 l-265 265 l0 532 l265 265 l177 0 l0 -1062 ZM607 426 l0 185 l233 0 l0 186 l-233 0 l0 265 l375 0 l265 -265 l0 -371 l-640 0 ZM607 0 l0 248 l594 0 l0 -115 l-132 -133 l-462 0 ZM285 1530 l138 39 l82 -182 l325 0 l82 182 l138 -39 l-56 -231 l-146 -144 l-361 0 l-146 144 l-56 231 Z" /><glyph glyph-name="Edotaccent" unicode="&#x116;" d="M559 545 l0 -545 l-442 0 l0 1327 l442 0 l0 -526 l423 0 l0 -256 l-423 0 ZM629 1070 l0 257 l691 0 l0 -384 l-416 0 l0 127 l-275 0 ZM629 0 l0 265 l249 0 l0 133 l442 0 l0 -398 l-691 0 ZM569 1682 l336 0 l0 -221 l-336 0 l0 221 Z" /><glyph glyph-name="edotaccent" unicode="&#x117;" d="M537 0 l-177 0 l-265 265 l0 532 l265 265 l177 0 l0 -1062 ZM607 426 l0 185 l233 0 l0 186 l-233 0 l0 265 l375 0 l265 -265 l0 -371 l-640 0 ZM607 0 l0 248 l594 0 l0 -115 l-132 -133 l-462 0 ZM500 1560 l336 0 l0 -281 l-336 0 l0 281 Z" /><glyph glyph-name="Eogonek" unicode="&#x118;" d="M559 545 l0 -545 l-442 0 l0 1327 l442 0 l0 -526 l423 0 l0 -256 l-423 0 ZM629 1070 l0 257 l691 0 l0 -384 l-416 0 l0 127 l-275 0 ZM629 0 l0 265 l249 0 l0 133 l442 0 l0 -398 l-691 0 ZM1320 -175 l0 -270 l-282 0 l-175 200 l0 183 l202 0 l0 -113 l255 0 Z" /><glyph glyph-name="eogonek" unicode="&#x119;" d="M537 0 l-177 0 l-265 265 l0 532 l265 265 l177 0 l0 -1062 ZM607 426 l0 185 l233 0 l0 186 l-233 0 l0 265 l375 0 l265 -265 l0 -371 l-640 0 ZM607 0 l0 248 l594 0 l0 -115 l-132 -133 l-462 0 ZM1245 -175 l0 -270 l-282 0 l-175 200 l0 183 l202 0 l0 -113 l255 0 Z" /><glyph glyph-name="Ecaron" unicode="&#x11a;" d="M559 545 l0 -545 l-442 0 l0 1327 l442 0 l0 -526 l423 0 l0 -256 l-423 0 ZM629 1070 l0 257 l691 0 l0 -384 l-416 0 l0 127 l-275 0 ZM629 0 l0 265 l249 0 l0 133 l442 0 l0 -398 l-691 0 ZM862 1393 l-252 0 l-254 261 l77 78 l302 -158 l306 158 l78 -79 l-257 -260 Z" /><glyph glyph-name="ecaron" unicode="&#x11b;" d="M537 0 l-177 0 l-265 265 l0 532 l265 265 l177 0 l0 -1062 ZM607 426 l0 185 l233 0 l0 186 l-233 0 l0 265 l375 0 l265 -265 l0 -371 l-640 0 ZM607 0 l0 248 l594 0 l0 -115 l-132 -133 l-462 0 ZM229 1487 l93 97 l353 -210 l354 210 l94 -97 l-295 -334 l-304 0 l-295 334 Z" /><glyph glyph-name="Gcircumflex" unicode="&#x11c;" d="M557 265 l379 0 l0 -265 l-556 0 l-265 265 l0 797 l265 265 l177 0 l0 -1062 ZM791 736 l607 0 l0 -736 l-392 0 l0 473 l-215 0 l0 263 ZM627 1062 l0 265 l539 0 l232 -265 l0 -133 l-442 0 l0 133 l-329 0 ZM664 1732 l252 0 l254 -260 l-76 -79 l-303 159 l-306 -159 l-77 80 l256 259 Z" /><glyph glyph-name="gcircumflex" unicode="&#x11d;" d="M803 797 l-196 0 l0 265 l373 0 l265 -265 l0 -902 l-265 -267 l-583 0 l-133 134 l0 98 l539 0 l0 937 ZM733 248 l0 -117 l-132 -131 l-241 0 l-265 265 l0 532 l265 265 l177 0 l0 -814 l196 0 ZM1146 1250 l-93 -97 l-354 210 l-353 -210 l-94 97 l295 335 l304 0 l295 -335 Z" /><glyph glyph-name="Gbreve" unicode="&#x11e;" d="M557 265 l379 0 l0 -265 l-556 0 l-265 265 l0 797 l265 265 l177 0 l0 -1062 ZM791 736 l607 0 l0 -736 l-392 0 l0 473 l-215 0 l0 263 ZM627 1062 l0 265 l539 0 l232 -265 l0 -133 l-442 0 l0 133 l-329 0 ZM419 1717 l138 39 l72 -152 l305 0 l72 152 l138 -39 l-36 -181 l-146 -144 l-361 0 l-146 144 l-36 181 Z" /><glyph glyph-name="gbreve" unicode="&#x11f;" d="M803 797 l-196 0 l0 265 l373 0 l265 -265 l0 -902 l-265 -267 l-583 0 l-133 134 l0 98 l539 0 l0 937 ZM733 248 l0 -117 l-132 -131 l-241 0 l-265 265 l0 532 l265 265 l177 0 l0 -814 l196 0 ZM316 1530 l138 39 l82 -182 l325 0 l82 182 l138 -39 l-56 -231 l-146 -144 l-361 0 l-146 144 l-56 231 Z" /><glyph glyph-name="Gdotaccent" unicode="&#x120;" d="M557 265 l379 0 l0 -265 l-556 0 l-265 265 l0 797 l265 265 l177 0 l0 -1062 ZM791 736 l607 0 l0 -736 l-392 0 l0 473 l-215 0 l0 263 ZM627 1062 l0 265 l539 0 l232 -265 l0 -133 l-442 0 l0 133 l-329 0 ZM625 1682 l336 0 l0 -221 l-336 0 l0 221 Z" /><glyph glyph-name="gdotaccent" unicode="&#x121;" d="M803 797 l-196 0 l0 265 l373 0 l265 -265 l0 -902 l-265 -267 l-583 0 l-133 134 l0 98 l539 0 l0 937 ZM733 248 l0 -117 l-132 -131 l-241 0 l-265 265 l0 532 l265 265 l177 0 l0 -814 l196 0 ZM531 1560 l336 0 l0 -281 l-336 0 l0 281 Z" /><glyph glyph-name="Gcommaaccent" unicode="&#x122;" d="M557 265 l379 0 l0 -265 l-556 0 l-265 265 l0 797 l265 265 l177 0 l0 -1062 ZM791 736 l607 0 l0 -736 l-392 0 l0 473 l-215 0 l0 263 ZM627 1062 l0 265 l539 0 l232 -265 l0 -133 l-442 0 l0 133 l-329 0 ZM526 -169 l442 0 l0 -247 l-167 -273 l-178 0 l61 228 l-158 0 l0 292 Z" /><glyph glyph-name="gcommaaccent" unicode="&#x123;" d="M803 797 l-196 0 l0 265 l373 0 l265 -265 l0 -902 l-265 -267 l-583 0 l-133 134 l0 98 l539 0 l0 937 ZM733 248 l0 -117 l-132 -131 l-241 0 l-265 265 l0 532 l265 265 l177 0 l0 -814 l196 0 ZM891 1272 l-442 0 l0 247 l167 273 l178 0 l-61 -228 l158 0 l0 -292 Z" /><glyph glyph-name="Hcircumflex" unicode="&#x124;" d="M954 1327 l446 0 l0 -1327 l-443 0 l0 539 l-328 0 l0 266 l325 0 l0 522 ZM559 0 l-442 0 l0 1327 l442 0 l0 -1327 ZM632 1732 l252 0 l254 -260 l-76 -79 l-303 159 l-306 -159 l-77 80 l256 259 Z" /><glyph glyph-name="hcircumflex" unicode="&#x125;" d="M104 1467 l442 0 l0 -1467 l-442 0 l0 1467 ZM811 797 l-195 0 l0 134 l130 131 l242 0 l266 -265 l0 -797 l-443 0 l0 797 ZM549 1731 l252 0 l254 -260 l-76 -79 l-303 159 l-306 -159 l-77 80 l256 259 Z" /><glyph glyph-name="Hbar" unicode="&#x126;" d="M629 1144 l325 0 l0 183 l446 0 l0 -183 l116 0 l0 -189 l-116 0 l0 -955 l-443 0 l0 539 l-328 0 l0 266 l325 0 l0 150 l-325 0 l0 189 ZM0 1144 l117 0 l0 183 l442 0 l0 -1327 l-442 0 l0 955 l-117 0 l0 189 Z" /><glyph glyph-name="hbar" unicode="&#x127;" d="M104 1150 l-140 0 l0 177 l140 0 l0 133 l442 0 l0 -133 l303 0 l0 -177 l-303 0 l0 -1150 l-442 0 l0 1150 ZM811 797 l-198 0 l0 134 l131 131 l244 0 l266 -265 l0 -797 l-443 0 l0 797 Z" /><glyph glyph-name="Itilde" unicode="&#x128;" d="M97 283 l133 0 l0 762 l-133 0 l0 282 l708 0 l0 -282 l-133 0 l0 -762 l133 0 l0 -283 l-708 0 l0 283 ZM637 1609 l181 107 l64 -78 l-207 -214 l-205 0 l-160 116 l-41 0 l-181 -106 l-64 78 l207 214 l205 0 l160 -117 l41 0 Z" /><glyph glyph-name="itilde" unicode="&#x129;" d="M105 1062 l443 0 l0 -1062 l-443 0 l0 1062 ZM368 1558 l108 -151 l67 0 l138 115 l87 -87 l-195 -214 l-283 0 l-108 150 l-67 0 l-138 -114 l-87 87 l195 214 l283 0 Z" /><glyph glyph-name="Imacron" unicode="&#x12a;" d="M97 283 l133 0 l0 762 l-133 0 l0 282 l708 0 l0 -282 l-133 0 l0 -762 l133 0 l0 -283 l-708 0 l0 283 ZM89 1650 l729 0 l0 -170 l-729 0 l0 170 Z" /><glyph glyph-name="imacron" unicode="&#x12b;" d="M105 1062 l443 0 l0 -1062 l-443 0 l0 1062 ZM-36 1393 l729 0 l0 -170 l-729 0 l0 170 Z" /><glyph glyph-name="Ibreve" unicode="&#x12c;" d="M97 283 l133 0 l0 762 l-133 0 l0 282 l708 0 l0 -282 l-133 0 l0 -762 l133 0 l0 -283 l-708 0 l0 283 ZM80 1716 l138 39 l72 -152 l305 0 l72 152 l138 -39 l-36 -181 l-146 -144 l-361 0 l-146 144 l-36 181 Z" /><glyph glyph-name="ibreve" unicode="&#x12d;" d="M105 1062 l443 0 l0 -1062 l-443 0 l0 1062 ZM-55 1530 l138 39 l82 -182 l325 0 l82 182 l138 -39 l-56 -231 l-146 -144 l-361 0 l-146 144 l-56 231 Z" /><glyph glyph-name="Iogonek" unicode="&#x12e;" d="M97 283 l133 0 l0 762 l-133 0 l0 282 l708 0 l0 -282 l-133 0 l0 -762 l133 0 l0 -283 l-708 0 l0 283 ZM806 -175 l0 -270 l-282 0 l-175 200 l0 183 l202 0 l0 -113 l255 0 Z" /><glyph glyph-name="iogonek" unicode="&#x12f;" d="M105 1062 l443 0 l0 -1062 l-443 0 l0 1062 ZM105 1476 l443 0 l0 -282 l-443 0 l0 282 ZM549 -175 l0 -270 l-282 0 l-175 200 l0 183 l202 0 l0 -113 l255 0 Z" /><glyph glyph-name="Idotaccent" unicode="&#x130;" d="M97 283 l133 0 l0 762 l-133 0 l0 282 l708 0 l0 -282 l-133 0 l0 -762 l133 0 l0 -283 l-708 0 l0 283 ZM285 1681 l336 0 l0 -221 l-336 0 l0 221 Z" /><glyph glyph-name="dotlessi" unicode="&#x131;" d="M105 1062 l443 0 l0 -1062 l-443 0 l0 1062 Z" /><glyph glyph-name="IJ" unicode="&#x132;" d="M119 265 l803 0 l0 1062 l442 0 l0 -1062 l-265 -265 l-982 0 l2 265 ZM117 432 l0 895 l459 0 l0 -895 l-459 0 Z" /><glyph glyph-name="ij" unicode="&#x133;" d="M105 239 l0 823 l443 0 l0 -1062 l-203 0 l-240 239 ZM105 1476 l443 0 l0 -282 l-443 0 l0 282 ZM107 -123 l681 0 l0 1185 l442 0 l0 -1185 l-266 -266 l-857 0 l0 266 ZM786 1476 l443 0 l0 -282 l-443 0 l0 282 Z" /><glyph glyph-name="Jcircumflex" unicode="&#x134;" d="M213 1327 l1052 0 l0 -1062 l-265 -265 l-177 0 l0 1038 l-610 0 l0 289 ZM511 265 l242 0 l0 -265 l-435 0 l-266 265 l0 291 l459 0 l0 -291 ZM638 1731 l252 0 l254 -260 l-76 -79 l-303 159 l-306 -159 l-77 80 l256 259 Z" /><glyph glyph-name="jcircumflex" unicode="&#x135;" d="M-100 -88 l205 0 l0 1150 l443 0 l0 -1150 l-266 -266 l-382 0 l0 266 ZM775 1250 l-93 -97 l-354 210 l-353 -210 l-94 97 l295 335 l304 0 l295 -335 Z" /><glyph glyph-name="Kcommaaccent" unicode="&#x136;" d="M117 0 l0 1327 l442 0 l0 -1327 l-442 0 ZM627 188 l0 645 l310 493 l460 1 l-770 -1139 ZM1418 0 l-478 0 l-150 309 l262 393 l366 -702 ZM534 -169 l442 0 l0 -247 l-167 -273 l-178 0 l61 228 l-158 0 l0 292 Z" /><glyph glyph-name="kcommaaccent" unicode="&#x137;" d="M546 0 l-442 0 l0 1467 l442 0 l0 -1467 ZM615 150 l0 606 l204 304 l457 1 l-661 -911 ZM1299 0 l-480 0 l-73 214 l261 352 l292 -566 ZM440 -168 l442 0 l0 -247 l-167 -273 l-178 0 l61 228 l-158 0 l0 292 Z" /><glyph glyph-name="kgreenlandic" unicode="&#x138;" d="M546 0 l-442 0 l0 1062 l442 0 l0 -1062 ZM613 150 l0 606 l206 306 l457 -1 l-663 -911 ZM1299 0 l-480 0 l-74 214 l257 352 l297 -566 Z" /><glyph glyph-name="Lacute" unicode="&#x139;" d="M117 0 l0 1327 l442 0 l0 -1327 l-442 0 ZM629 0 l0 265 l219 0 l0 168 l401 0 l0 -433 l-620 0 ZM1136 1598 l155 -78 l-47 -169 l-503 -115 l-51 122 l446 240 Z" /><glyph glyph-name="lacute" unicode="&#x13a;" d="M744 0 l-392 0 l-248 248 l0 1005 l442 0 l0 -988 l198 0 l0 -265 ZM610 1693 l155 -78 l-47 -169 l-503 -115 l-51 122 l446 240 Z" /><glyph glyph-name="Lcommaaccent" unicode="&#x13b;" d="M117 0 l0 1327 l442 0 l0 -1327 l-442 0 ZM629 0 l0 265 l219 0 l0 168 l401 0 l0 -433 l-620 0 ZM530 -169 l442 0 l0 -247 l-167 -273 l-178 0 l61 228 l-158 0 l0 292 Z" /><glyph glyph-name="lcommaaccent" unicode="&#x13c;" d="M744 0 l-392 0 l-248 248 l0 1219 l442 0 l0 -1202 l198 0 l0 -265 ZM129 -169 l442 0 l0 -247 l-167 -273 l-178 0 l61 228 l-158 0 l0 292 Z" /><glyph glyph-name="Lcaron" unicode="&#x13d;" d="M117 0 l0 1327 l442 0 l0 -1327 l-442 0 ZM629 0 l0 265 l219 0 l0 168 l401 0 l0 -433 l-620 0 ZM751 1327 l386 0 l0 -309 l-97 -266 l-186 0 l24 266 l-127 0 l0 309 Z" /><glyph glyph-name="lcaron" unicode="&#x13e;" d="M744 0 l-392 0 l-248 248 l0 1219 l442 0 l0 -1202 l198 0 l0 -265 ZM710 1327 l386 0 l0 -309 l-97 -266 l-186 0 l24 266 l-127 0 l0 309 Z" /><glyph glyph-name="Ldot" unicode="&#x13f;" d="M116 0 l0 1327 l442 0 l0 -1327 l-442 0 ZM628 0 l0 265 l219 0 l0 168 l401 0 l0 -433 l-620 0 ZM862 1071 l177 0 l133 -133 l0 -177 l-133 -132 l-177 0 l-132 132 l0 177 l132 133 Z" /><glyph glyph-name="ldot" unicode="&#x140;" d="M778 906 l176 0 l133 -133 l0 -177 l-133 -132 l-176 0 l-133 132 l0 177 l133 133 ZM744 0 l-392 0 l-248 248 l0 1219 l442 0 l0 -1202 l198 0 l0 -265 Z" /><glyph glyph-name="Lslash" unicode="&#x141;" d="M177 0 l0 444 l-116 -48 l-90 198 l206 85 l0 648 l442 0 l0 -464 l356 148 l90 -198 l-446 -186 l0 -627 l-442 0 ZM689 0 l0 265 l219 0 l0 168 l401 0 l0 -433 l-620 0 Z" /><glyph glyph-name="lslash" unicode="&#x142;" d="M-13 606 l0 177 l740 254 l0 -177 l-740 -254 ZM744 0 l-392 0 l-248 248 l0 1219 l442 0 l0 -1202 l198 0 l0 -265 Z" /><glyph glyph-name="Nacute" unicode="&#x143;" d="M1391 0 l-470 0 l-804 1327 l467 0 l807 -1327 ZM117 0 l0 1201 l385 -631 l0 -570 l-385 0 ZM1391 1327 l0 -1201 l-385 634 l0 567 l385 0 ZM1030 1766 l155 -78 l-47 -169 l-503 -115 l-51 122 l446 240 Z" /><glyph glyph-name="nacute" unicode="&#x144;" d="M104 0 l0 1062 l446 0 l0 -1062 l-446 0 ZM812 797 l-190 0 l0 116 l148 149 l246 0 l239 -239 l0 -823 l-443 0 l0 797 ZM879 1607 l184 -85 l-54 -211 l-554 -167 l-62 147 l486 316 Z" /><glyph glyph-name="Ncommaaccent" unicode="&#x145;" d="M1391 0 l-470 0 l-804 1327 l467 0 l807 -1327 ZM117 0 l0 1201 l385 -631 l0 -570 l-385 0 ZM1391 1327 l0 -1201 l-385 634 l0 567 l385 0 ZM516 -169 l442 0 l0 -247 l-167 -273 l-178 0 l61 228 l-158 0 l0 292 Z" /><glyph glyph-name="ncommaaccent" unicode="&#x146;" d="M104 0 l0 1062 l446 0 l0 -1062 l-446 0 ZM812 797 l-190 0 l0 116 l148 149 l246 0 l239 -239 l0 -823 l-443 0 l0 797 ZM456 -169 l442 0 l0 -247 l-167 -273 l-178 0 l61 228 l-158 0 l0 292 Z" /><glyph glyph-name="Ncaron" unicode="&#x147;" d="M1391 0 l-470 0 l-804 1327 l467 0 l807 -1327 ZM117 0 l0 1201 l385 -631 l0 -570 l-385 0 ZM1391 1327 l0 -1201 l-385 634 l0 567 l385 0 ZM871 1392 l-252 0 l-254 261 l77 78 l302 -158 l306 158 l78 -79 l-257 -260 Z" /><glyph glyph-name="ncaron" unicode="&#x148;" d="M104 0 l0 1062 l446 0 l0 -1062 l-446 0 ZM812 797 l-190 0 l0 116 l148 149 l246 0 l239 -239 l0 -823 l-443 0 l0 797 ZM239 1487 l93 97 l353 -210 l354 210 l94 -97 l-295 -334 l-304 0 l-295 334 Z" /><glyph glyph-name="Eng" unicode="&#x14a;" d="M1391 1327 l0 -1436 l-265 -335 l-446 0 l0 265 l326 0 l0 1506 l385 0 ZM939 742 l0 -742 l-822 1327 l467 0 l355 -585 ZM117 0 l0 1201 l385 -623 l0 -578 l-385 0 Z" /><glyph glyph-name="eng" unicode="&#x14b;" d="M812 797 l-190 0 l0 116 l148 149 l246 0 l239 -239 l0 -1003 l-266 -266 l-382 0 l0 266 l205 0 l0 977 ZM104 0 l0 1062 l446 0 l0 -1062 l-446 0 Z" /><glyph glyph-name="Omacron" unicode="&#x14c;" d="M529 270 l166 0 l0 -270 l-340 0 l-269 265 l0 797 l269 265 l340 0 l0 -269 l-166 0 l0 -788 ZM934 1058 l-169 0 l0 269 l343 0 l268 -265 l0 -797 l-268 -265 l-343 0 l0 270 l169 0 l0 788 ZM368 1650 l729 0 l0 -170 l-729 0 l0 170 Z" /><glyph glyph-name="omacron" unicode="&#x14d;" d="M1288 265 l-265 -265 l-296 0 l0 248 l110 0 l0 549 l-110 0 l0 265 l296 0 l265 -265 l0 -532 ZM542 248 l115 0 l0 -248 l-297 0 l-265 265 l0 532 l265 265 l297 0 l0 -265 l-115 0 l0 -549 ZM327 1393 l729 0 l0 -170 l-729 0 l0 170 Z" /><glyph glyph-name="Obreve" unicode="&#x14e;" d="M529 270 l166 0 l0 -270 l-340 0 l-269 265 l0 797 l269 265 l340 0 l0 -269 l-166 0 l0 -788 ZM934 1058 l-169 0 l0 269 l343 0 l268 -265 l0 -797 l-268 -265 l-343 0 l0 270 l169 0 l0 788 ZM359 1717 l138 39 l72 -152 l305 0 l72 152 l138 -39 l-36 -181 l-146 -144 l-361 0 l-146 144 l-36 181 Z" /><glyph glyph-name="obreve" unicode="&#x14f;" d="M1288 265 l-265 -265 l-296 0 l0 248 l110 0 l0 549 l-110 0 l0 265 l296 0 l265 -265 l0 -532 ZM542 248 l115 0 l0 -248 l-297 0 l-265 265 l0 532 l265 265 l297 0 l0 -265 l-115 0 l0 -549 ZM308 1530 l138 39 l82 -182 l325 0 l82 182 l138 -39 l-56 -231 l-146 -144 l-361 0 l-146 144 l-56 231 Z" /><glyph glyph-name="Ohungarumlaut" unicode="&#x150;" d="M529 270 l166 0 l0 -270 l-340 0 l-269 265 l0 797 l269 265 l340 0 l0 -269 l-166 0 l0 -788 ZM934 1058 l-169 0 l0 269 l343 0 l268 -265 l0 -797 l-268 -265 l-343 0 l0 270 l169 0 l0 788 ZM701 1767 l148 -48 l2 -139 l-344 -165 l-89 112 l283 240 ZM1225 1767 l148 -48 l2 -139 l-344 -165 l-89 112 l283 240 Z" /><glyph glyph-name="ohungarumlaut" unicode="&#x151;" d="M1288 265 l-265 -265 l-296 0 l0 248 l110 0 l0 549 l-110 0 l0 265 l296 0 l265 -265 l0 -532 ZM542 248 l115 0 l0 -248 l-297 0 l-265 265 l0 532 l265 265 l297 0 l0 -265 l-115 0 l0 -549 ZM674 1607 l184 -55 l-14 -181 l-406 -227 l-102 127 l338 336 ZM1222 1607 l184 -55 l-14 -181 l-406 -227 l-102 127 l338 336 Z" /><glyph glyph-name="OE" unicode="&#x152;" d="M1145 88 l-90 -88 l-294 0 l0 265 l166 0 l0 797 l-166 0 l0 265 l294 0 l92 -88 l87 88 l135 0 l0 -542 l443 0 l0 -232 l-443 0 l0 -553 l-135 0 l-89 88 ZM529 265 l165 0 l0 -265 l-341 0 l-267 265 l0 797 l267 265 l341 0 l0 -265 l-165 0 l0 -797 ZM1437 1062 l0 265 l729 0 l0 -398 l-442 0 l0 133 l-287 0 ZM1437 0 l0 265 l287 0 l0 133 l442 0 l0 -398 l-729 0 Z" /><glyph glyph-name="oe" unicode="&#x153;" d="M704 1062 l230 0 l92 -89 l87 89 l231 0 l0 -265 l-99 0 l0 -532 l99 0 l0 -265 l-231 0 l-89 88 l-90 -88 l-230 0 l0 265 l99 0 l0 532 l-99 0 l0 265 ZM1315 434 l0 194 l196 0 l0 169 l-97 0 l0 265 l273 0 l267 -265 l0 -363 l-639 0 ZM1414 0 l0 265 l495 0 l0 -132 l-133 -133 l-362 0 ZM537 265 l97 0 l0 -265 l-274 0 l-265 265 l0 532 l265 265 l274 0 l0 -265 l-97 0 l0 -532 Z" /><glyph glyph-name="Racute" unicode="&#x154;" d="M117 0 l0 1327 l442 0 l0 -1327 l-442 0 ZM629 1062 l0 265 l505 0 l266 -265 l0 -398 l-204 -204 l-14 28 l-415 -55 l16 -35 l-154 0 l0 257 l332 0 l0 407 l-332 0 ZM1445 0 l-472 0 l-190 398 l351 0 l62 62 l249 -460 ZM1066 1766 l155 -78 l-47 -169 l-503 -115 l-51 122 l446 240 Z" /><glyph glyph-name="racute" unicode="&#x155;" d="M805 797 l-188 0 l0 116 l148 149 l268 0 l215 -248 l0 -275 l-443 0 l0 258 ZM104 0 l0 1062 l442 0 l0 -1062 l-442 0 ZM854 1607 l184 -85 l-54 -211 l-554 -167 l-62 147 l486 316 Z" /><glyph glyph-name="Rcommaaccent" unicode="&#x156;" d="M117 0 l0 1327 l442 0 l0 -1327 l-442 0 ZM629 1062 l0 265 l505 0 l266 -265 l0 -398 l-204 -204 l-14 28 l-415 -55 l16 -35 l-154 0 l0 257 l332 0 l0 407 l-332 0 ZM1445 0 l-472 0 l-190 398 l351 0 l62 62 l249 -460 ZM551 -169 l442 0 l0 -247 l-167 -273 l-178 0 l61 228 l-158 0 l0 292 Z" /><glyph glyph-name="rcommaaccent" unicode="&#x157;" d="M805 797 l-188 0 l0 116 l148 149 l268 0 l215 -248 l0 -275 l-443 0 l0 258 ZM104 0 l0 1062 l442 0 l0 -1062 l-442 0 ZM116 -169 l442 0 l0 -247 l-167 -273 l-178 0 l61 228 l-158 0 l0 292 Z" /><glyph glyph-name="Rcaron" unicode="&#x158;" d="M117 0 l0 1327 l442 0 l0 -1327 l-442 0 ZM629 1062 l0 265 l505 0 l266 -265 l0 -398 l-204 -204 l-14 28 l-415 -55 l16 -35 l-154 0 l0 257 l332 0 l0 407 l-332 0 ZM1445 0 l-472 0 l-190 398 l351 0 l62 62 l249 -460 ZM907 1392 l-252 0 l-254 261 l77 78 l302 -158 l306 158 l78 -79 l-257 -260 Z" /><glyph glyph-name="rcaron" unicode="&#x159;" d="M805 797 l-188 0 l0 116 l148 149 l268 0 l215 -248 l0 -275 l-443 0 l0 258 ZM104 0 l0 1062 l442 0 l0 -1062 l-442 0 ZM214 1487 l93 97 l353 -210 l354 210 l94 -97 l-295 -334 l-304 0 l-295 334 Z" /><glyph glyph-name="Sacute" unicode="&#x15a;" d="M937 0 l0 497 l-574 0 l-266 266 l0 299 l266 265 l150 0 l0 -471 l610 0 l257 -266 l0 -325 l-265 -265 l-178 0 ZM583 1088 l0 239 l531 0 l230 -231 l0 -141 l-407 0 l0 133 l-354 0 ZM97 398 l442 0 l0 -158 l328 0 l0 -240 l-547 0 l-223 265 l0 133 ZM1053 1773 l155 -78 l-47 -169 l-503 -115 l-51 122 l446 240 Z" /><glyph glyph-name="sacute" unicode="&#x15b;" d="M335 1062 l177 0 l0 -375 l504 0 l230 -232 l0 -207 l-247 -248 l-195 0 l0 401 l-478 0 l-230 221 l0 202 l239 238 ZM538 195 l196 0 l0 -195 l-455 1 l-184 218 l0 85 l443 0 l0 -109 ZM804 867 l-222 0 l0 195 l470 0 l158 -158 l0 -120 l-406 0 l0 83 ZM881 1607 l184 -85 l-54 -211 l-554 -167 l-62 147 l486 316 Z" /><glyph glyph-name="Scircumflex" unicode="&#x15c;" d="M937 0 l0 497 l-574 0 l-266 266 l0 299 l266 265 l150 0 l0 -471 l610 0 l257 -266 l0 -325 l-265 -265 l-178 0 ZM583 1088 l0 239 l531 0 l230 -231 l0 -141 l-407 0 l0 133 l-354 0 ZM97 398 l442 0 l0 -158 l328 0 l0 -240 l-547 0 l-223 265 l0 133 ZM640 1738 l252 0 l254 -260 l-76 -79 l-303 159 l-306 -159 l-77 80 l256 259 Z" /><glyph glyph-name="scircumflex" unicode="&#x15d;" d="M335 1062 l177 0 l0 -375 l504 0 l230 -232 l0 -207 l-247 -248 l-195 0 l0 401 l-478 0 l-230 221 l0 202 l239 238 ZM538 195 l196 0 l0 -195 l-455 1 l-184 218 l0 85 l443 0 l0 -109 ZM804 867 l-222 0 l0 195 l470 0 l158 -158 l0 -120 l-406 0 l0 83 ZM1127 1250 l-93 -97 l-354 210 l-353 -210 l-94 97 l295 335 l304 0 l295 -335 Z" /><glyph glyph-name="Scedilla" unicode="&#x15e;" d="M937 0 l0 497 l-574 0 l-266 266 l0 299 l266 265 l150 0 l0 -471 l610 0 l257 -266 l0 -325 l-265 -265 l-178 0 ZM583 1088 l0 239 l531 0 l230 -231 l0 -141 l-407 0 l0 133 l-354 0 ZM97 398 l442 0 l0 -158 l328 0 l0 -240 l-547 0 l-223 265 l0 133 ZM741 -225 l0 163 l202 0 l0 -245 l-175 -200 l-312 0 l0 282 l285 0 Z" /><glyph glyph-name="scedilla" unicode="&#x15f;" d="M335 1062 l177 0 l0 -375 l504 0 l230 -232 l0 -207 l-247 -248 l-195 0 l0 401 l-478 0 l-230 221 l0 202 l239 238 ZM538 195 l196 0 l0 -195 l-455 1 l-184 218 l0 85 l443 0 l0 -109 ZM804 867 l-222 0 l0 195 l470 0 l158 -158 l0 -120 l-406 0 l0 83 ZM653 -225 l0 163 l202 0 l0 -245 l-175 -200 l-312 0 l0 282 l285 0 Z" /><glyph glyph-name="Scaron" unicode="&#x160;" d="M937 0 l0 497 l-574 0 l-266 266 l0 299 l266 265 l150 0 l0 -471 l610 0 l257 -266 l0 -325 l-265 -265 l-178 0 ZM583 1088 l0 239 l531 0 l230 -231 l0 -141 l-407 0 l0 133 l-354 0 ZM97 398 l442 0 l0 -158 l328 0 l0 -240 l-547 0 l-223 265 l0 133 ZM894 1399 l-252 0 l-254 261 l77 78 l302 -158 l306 158 l78 -79 l-257 -260 Z" /><glyph glyph-name="scaron" unicode="&#x161;" d="M335 1062 l177 0 l0 -375 l504 0 l230 -232 l0 -207 l-247 -248 l-195 0 l0 401 l-478 0 l-230 221 l0 202 l239 238 ZM538 195 l196 0 l0 -195 l-455 1 l-184 218 l0 85 l443 0 l0 -109 ZM804 867 l-222 0 l0 195 l470 0 l158 -158 l0 -120 l-406 0 l0 83 ZM241 1487 l93 97 l353 -210 l354 210 l94 -97 l-295 -334 l-304 0 l-295 334 Z" /><glyph glyph-name="Tcommaaccent" unicode="&#x162;" d="M398 969 l460 0 l0 -969 l-460 0 l0 969 ZM52 1327 l1152 0 l0 -289 l-1152 0 l0 289 ZM407 -169 l442 0 l0 -247 l-167 -273 l-178 0 l61 228 l-158 0 l0 292 Z" /><glyph glyph-name="tcommaaccent" unicode="&#x163;" d="M558 265 l292 0 l0 -265 l-468 0 l-266 265 l0 532 l-88 0 l0 265 l88 0 l0 115 l442 150 l0 -1062 ZM628 797 l0 265 l238 0 l0 -265 l-238 0 ZM210 -169 l442 0 l0 -247 l-167 -273 l-178 0 l61 228 l-158 0 l0 292 Z" /><glyph glyph-name="Tcaron" unicode="&#x164;" d="M398 969 l460 0 l0 -969 l-460 0 l0 969 ZM52 1327 l1152 0 l0 -289 l-1152 0 l0 289 ZM752 1392 l-252 0 l-254 261 l77 78 l302 -158 l306 158 l78 -79 l-257 -260 Z" /><glyph glyph-name="tcaron" unicode="&#x165;" d="M558 265 l292 0 l0 -265 l-468 0 l-266 265 l0 532 l-88 0 l0 265 l88 0 l0 115 l442 150 l0 -1062 ZM628 797 l0 265 l238 0 l0 -265 l-238 0 ZM938 1471 l386 0 l0 -309 l-97 -266 l-186 0 l24 266 l-127 0 l0 309 Z" /><glyph glyph-name="Tbar" unicode="&#x166;" d="M181 675 l217 0 l0 294 l460 0 l0 -294 l210 0 l0 -189 l-210 0 l0 -486 l-460 0 l0 486 l-217 0 l0 189 ZM52 1327 l1152 0 l0 -289 l-1152 0 l0 289 Z" /><glyph glyph-name="tbar" unicode="&#x167;" d="M558 635 l138 0 l0 -189 l-138 0 l0 -181 l292 0 l0 -265 l-468 0 l-266 265 l0 181 l-89 0 l0 189 l89 0 l0 162 l-88 0 l0 265 l88 0 l0 115 l442 150 l0 -692 ZM628 797 l0 265 l238 0 l0 -265 l-238 0 Z" /><glyph glyph-name="Utilde" unicode="&#x168;" d="M1388 265 l-265 -265 l-341 0 l0 265 l164 0 l0 1062 l442 0 l0 -1062 ZM549 265 l163 0 l0 -265 l-340 0 l-266 265 l0 1062 l443 0 l0 -1062 ZM932 1609 l181 107 l64 -78 l-207 -214 l-205 0 l-160 116 l-41 0 l-181 -106 l-64 78 l207 214 l205 0 l160 -117 l41 0 Z" /><glyph glyph-name="utilde" unicode="&#x169;" d="M1246 1062 l0 -1062 l-442 0 l0 1062 l442 0 ZM537 265 l197 0 l0 -132 l-128 -133 l-245 0 l-266 265 l0 797 l442 0 l0 -797 ZM710 1558 l108 -151 l67 0 l138 115 l87 -87 l-195 -214 l-283 0 l-108 150 l-67 0 l-138 -114 l-87 87 l195 214 l283 0 Z" /><glyph glyph-name="Umacron" unicode="&#x16a;" d="M1388 265 l-265 -265 l-341 0 l0 265 l164 0 l0 1062 l442 0 l0 -1062 ZM549 265 l163 0 l0 -265 l-340 0 l-266 265 l0 1062 l443 0 l0 -1062 ZM384 1650 l729 0 l0 -170 l-729 0 l0 170 Z" /><glyph glyph-name="umacron" unicode="&#x16b;" d="M1246 1062 l0 -1062 l-442 0 l0 1062 l442 0 ZM537 265 l197 0 l0 -132 l-128 -133 l-245 0 l-266 265 l0 797 l442 0 l0 -797 ZM306 1393 l729 0 l0 -170 l-729 0 l0 170 Z" /><glyph glyph-name="Ubreve" unicode="&#x16c;" d="M1388 265 l-265 -265 l-341 0 l0 265 l164 0 l0 1062 l442 0 l0 -1062 ZM549 265 l163 0 l0 -265 l-340 0 l-266 265 l0 1062 l443 0 l0 -1062 ZM375 1716 l138 39 l72 -152 l305 0 l72 152 l138 -39 l-36 -181 l-146 -144 l-361 0 l-146 144 l-36 181 Z" /><glyph glyph-name="ubreve" unicode="&#x16d;" d="M1246 1062 l0 -1062 l-442 0 l0 1062 l442 0 ZM537 265 l197 0 l0 -132 l-128 -133 l-245 0 l-266 265 l0 797 l442 0 l0 -797 ZM287 1530 l138 39 l82 -182 l325 0 l82 182 l138 -39 l-56 -231 l-146 -144 l-361 0 l-146 144 l-56 231 Z" /><glyph glyph-name="Uring" unicode="&#x16e;" d="M1388 265 l-265 -265 l-341 0 l0 265 l164 0 l0 1062 l442 0 l0 -1062 ZM549 265 l163 0 l0 -265 l-340 0 l-266 265 l0 1062 l443 0 l0 -1062 ZM780 1333 l0 156 l78 0 l0 121 l-78 0 l0 155 l117 0 l139 -137 l0 -158 l-139 -137 l-117 0 ZM711 1489 l0 -156 l-119 0 l-137 137 l0 158 l137 137 l119 0 l0 -155 l-77 0 l0 -121 l77 0 Z" /><glyph glyph-name="uring" unicode="&#x16f;" d="M1246 1062 l0 -1062 l-442 0 l0 1062 l442 0 ZM537 265 l197 0 l0 -132 l-128 -133 l-245 0 l-266 265 l0 797 l442 0 l0 -797 ZM703 1200 l0 156 l78 0 l0 171 l-78 0 l0 155 l97 0 l139 -137 l0 -208 l-139 -137 l-97 0 ZM634 1356 l0 -156 l-99 0 l-137 137 l0 208 l137 137 l99 0 l0 -155 l-77 0 l0 -171 l77 0 Z" /><glyph glyph-name="Uhungarumlaut" unicode="&#x170;" d="M1388 265 l-265 -265 l-341 0 l0 265 l164 0 l0 1062 l442 0 l0 -1062 ZM549 265 l163 0 l0 -265 l-340 0 l-266 265 l0 1062 l443 0 l0 -1062 ZM717 1766 l148 -48 l2 -139 l-344 -165 l-89 112 l283 240 ZM1241 1766 l148 -48 l2 -139 l-344 -165 l-89 112 l283 240 Z" /><glyph glyph-name="uhungarumlaut" unicode="&#x171;" d="M1246 1062 l0 -1062 l-442 0 l0 1062 l442 0 ZM537 265 l197 0 l0 -132 l-128 -133 l-245 0 l-266 265 l0 797 l442 0 l0 -797 ZM653 1607 l184 -55 l-14 -181 l-406 -227 l-102 127 l338 336 ZM1201 1607 l184 -55 l-14 -181 l-406 -227 l-102 127 l338 336 Z" /><glyph glyph-name="Uogonek" unicode="&#x172;" d="M1388 265 l-265 -265 l-341 0 l0 265 l164 0 l0 1062 l442 0 l0 -1062 ZM549 265 l163 0 l0 -265 l-340 0 l-266 265 l0 1062 l443 0 l0 -1062 ZM1263 -175 l0 -270 l-282 0 l-175 200 l0 183 l202 0 l0 -113 l255 0 Z" /><glyph glyph-name="uogonek" unicode="&#x173;" d="M1246 1062 l0 -1062 l-442 0 l0 1062 l442 0 ZM537 265 l197 0 l0 -132 l-128 -133 l-245 0 l-266 265 l0 797 l442 0 l0 -797 ZM1246 -175 l0 -270 l-282 0 l-175 200 l0 183 l202 0 l0 -113 l255 0 Z" /><glyph glyph-name="Wcircumflex" unicode="&#x174;" d="M609 598 l133 557 l173 -630 l-143 -525 l-401 0 l-397 1327 l440 0 l195 -729 ZM1547 0 l-422 0 l-364 1327 l446 0 l340 -1327 ZM1551 1327 l403 0 l-360 -1258 l-180 707 l137 551 ZM882 1732 l252 0 l254 -260 l-76 -79 l-303 159 l-306 -159 l-77 80 l256 259 Z" /><glyph glyph-name="wcircumflex" unicode="&#x175;" d="M-14 1062 l422 0 l173 -553 l123 383 l159 -489 l-126 -404 l-1 1 l-369 0 l-381 1062 ZM710 1062 l417 0 l342 -1062 l-401 0 l-358 1062 ZM1513 66 l-186 572 l119 424 l414 0 l-347 -996 ZM1368 1250 l-93 -97 l-354 210 l-353 -210 l-94 97 l295 335 l304 0 l295 -335 Z" /><glyph glyph-name="Ycircumflex" unicode="&#x176;" d="M424 422 l-450 905 l434 0 l459 -936 l0 -391 l-443 0 l0 422 ZM895 484 l-215 436 l218 407 l425 0 l-428 -843 ZM521 1731 l252 0 l254 -260 l-76 -79 l-303 159 l-306 -159 l-77 80 l256 259 Z" /><glyph glyph-name="ycircumflex" unicode="&#x177;" d="M696 -370 l-424 0 l538 1432 l425 0 l-539 -1432 ZM-14 1062 l441 0 l149 -432 l-198 -541 l-392 973 ZM1067 1250 l-93 -97 l-354 210 l-353 -210 l-94 97 l295 335 l304 0 l295 -335 Z" /><glyph glyph-name="Ydieresis" unicode="&#x178;" d="M424 422 l-450 905 l434 0 l459 -936 l0 -391 l-443 0 l0 422 ZM895 484 l-215 436 l218 407 l425 0 l-428 -843 ZM216 1741 l336 0 l0 -281 l-336 0 l0 281 ZM746 1741 l336 0 l0 -281 l-336 0 l0 281 Z" /><glyph glyph-name="Zacute" unicode="&#x179;" d="M52 248 l867 1079 l300 0 l0 -257 l-876 -1070 l-291 0 l0 248 ZM1201 0 l-769 0 l252 291 l517 0 l0 -291 ZM79 1327 l753 0 l-251 -290 l-502 0 l0 290 ZM934 1767 l155 -78 l-47 -169 l-503 -115 l-51 122 l446 240 Z" /><glyph glyph-name="zacute" unicode="&#x17a;" d="M1091 0 l-618 0 l235 265 l383 0 l0 -265 ZM105 1062 l597 0 l-229 -265 l-368 0 l0 265 ZM95 257 l690 805 l305 0 l0 -265 l-699 -797 l-296 0 l0 257 ZM835 1607 l184 -85 l-54 -211 l-554 -167 l-62 147 l486 316 Z" /><glyph glyph-name="Zdotaccent" unicode="&#x17b;" d="M52 248 l867 1079 l300 0 l0 -257 l-876 -1070 l-291 0 l0 248 ZM1201 0 l-769 0 l252 291 l517 0 l0 -291 ZM79 1327 l753 0 l-251 -290 l-502 0 l0 290 ZM482 1682 l336 0 l0 -221 l-336 0 l0 221 Z" /><glyph glyph-name="zdotaccent" unicode="&#x17c;" d="M1091 0 l-618 0 l235 265 l383 0 l0 -265 ZM105 1062 l597 0 l-229 -265 l-368 0 l0 265 ZM95 257 l690 805 l305 0 l0 -265 l-699 -797 l-296 0 l0 257 ZM466 1560 l336 0 l0 -281 l-336 0 l0 281 Z" /><glyph glyph-name="Zcaron" unicode="&#x17d;" d="M52 248 l867 1079 l300 0 l0 -257 l-876 -1070 l-291 0 l0 248 ZM1201 0 l-769 0 l252 291 l517 0 l0 -291 ZM79 1327 l753 0 l-251 -290 l-502 0 l0 290 ZM775 1393 l-252 0 l-254 261 l77 78 l302 -158 l306 158 l78 -79 l-257 -260 Z" /><glyph glyph-name="zcaron" unicode="&#x17e;" d="M1091 0 l-618 0 l235 265 l383 0 l0 -265 ZM105 1062 l597 0 l-229 -265 l-368 0 l0 265 ZM95 257 l690 805 l305 0 l0 -265 l-699 -797 l-296 0 l0 257 ZM195 1487 l93 97 l353 -210 l354 210 l94 -97 l-295 -334 l-304 0 l-295 334 Z" /><glyph glyph-name="florin" unicode="&#x192;" d="M813 1202 l-202 -1542 l-443 0 l127 918 l-105 0 l34 265 l105 0 l43 376 l299 248 l496 0 l-34 -265 l-320 0 ZM805 578 l37 265 l250 0 l-34 -265 l-253 0 Z" /><glyph glyph-name="AEacute" unicode="&#x1fc;" d="M1449 530 l0 -530 l-442 0 l0 1327 l442 0 l0 -530 l442 0 l0 -267 l-442 0 ZM939 211 l-379 0 l-95 -211 l-456 0 l633 1327 l297 0 l0 -276 l-261 -577 l261 0 l0 -263 ZM1516 1062 l0 265 l730 0 l0 -398 l-443 0 l0 133 l-287 0 ZM1516 0 l0 265 l287 0 l0 133 l443 0 l0 -398 l-730 0 ZM1522 1767 l155 -78 l-47 -169 l-503 -115 l-51 122 l446 240 Z" /><glyph glyph-name="aeacute" unicode="&#x1fd;" d="M308 1062 l617 0 l92 -89 l87 89 l232 0 l0 -265 l-100 0 l0 -532 l100 0 l0 -265 l-232 0 l-89 88 l-90 -88 l-229 0 l0 265 l98 0 l0 532 l-619 0 l0 132 l133 133 ZM724 628 l0 -194 l-195 0 l0 -169 l97 0 l0 -265 l-362 0 l-178 175 l0 276 l178 177 l460 0 ZM1309 434 l0 194 l193 0 l0 169 l-96 0 l0 265 l273 0 l266 -265 l0 -363 l-636 0 ZM1406 0 l0 265 l494 0 l0 -132 l-132 -133 l-362 0 ZM1221 1607 l184 -85 l-54 -211 l-554 -167 l-62 147 l486 316 Z" /><glyph glyph-name="Scommaaccent" unicode="&#x218;" d="M937 0 l0 497 l-574 0 l-266 266 l0 299 l266 265 l150 0 l0 -471 l610 0 l257 -266 l0 -325 l-265 -265 l-178 0 ZM583 1088 l0 239 l531 0 l230 -231 l0 -141 l-407 0 l0 133 l-354 0 ZM97 398 l442 0 l0 -158 l328 0 l0 -240 l-547 0 l-223 265 l0 133 ZM543 -169 l442 0 l0 -247 l-167 -273 l-178 0 l61 228 l-158 0 l0 292 Z" /><glyph glyph-name="scommaaccent" unicode="&#x219;" d="M335 1062 l177 0 l0 -375 l504 0 l230 -232 l0 -207 l-247 -248 l-195 0 l0 401 l-478 0 l-230 221 l0 202 l239 238 ZM538 195 l196 0 l0 -195 l-455 1 l-184 218 l0 85 l443 0 l0 -109 ZM804 867 l-222 0 l0 195 l470 0 l158 -158 l0 -120 l-406 0 l0 83 ZM455 -169 l442 0 l0 -247 l-167 -273 l-178 0 l61 228 l-158 0 l0 292 Z" /><glyph glyph-name="dotlessj" unicode="&#x237;" d="M-100 -88 l205 0 l0 1150 l443 0 l0 -1150 l-266 -266 l-382 0 l0 266 Z" /><glyph glyph-name="circumflex" unicode="&#x2c6;" d="M1067 1250 l-93 -97 l-354 210 l-353 -210 l-94 97 l295 335 l304 0 l295 -335 Z" /><glyph glyph-name="caron" unicode="&#x2c7;" d="M173 1487 l93 97 l353 -210 l354 210 l94 -97 l-295 -334 l-304 0 l-295 334 Z" /><glyph glyph-name="breve" unicode="&#x2d8;" d="M240 1530 l138 39 l82 -182 l325 0 l82 182 l138 -39 l-56 -231 l-146 -144 l-361 0 l-146 144 l-56 231 Z" /><glyph glyph-name="dotaccent" unicode="&#x2d9;" d="M170 1560 l336 0 l0 -281 l-336 0 l0 281 Z" /><glyph glyph-name="ring" unicode="&#x2da;" d="M605 1200 l0 156 l78 0 l0 171 l-78 0 l0 155 l97 0 l139 -137 l0 -208 l-139 -137 l-97 0 ZM536 1356 l0 -156 l-99 0 l-137 137 l0 208 l137 137 l99 0 l0 -155 l-77 0 l0 -171 l77 0 Z" /><glyph glyph-name="ogonek" unicode="&#x2db;" d="M852 -175 l0 -270 l-282 0 l-175 200 l0 183 l202 0 l0 -113 l255 0 Z" /><glyph glyph-name="tilde" unicode="&#x2dc;" d="M694 1558 l108 -151 l67 0 l138 115 l87 -87 l-195 -214 l-283 0 l-108 150 l-67 0 l-138 -114 l-87 87 l195 214 l283 0 Z" /><glyph glyph-name="hungarumlaut" unicode="&#x2dd;" d="M542 1607 l184 -55 l-14 -181 l-406 -227 l-102 127 l338 336 ZM1090 1607 l184 -55 l-14 -181 l-406 -227 l-102 127 l338 336 Z" /><glyph glyph-name="Delta" unicode="&#x394;&#x2206;" d="M602 263 l340 0 l-410 1064 l431 0 l528 -1327 l-981 0 l92 263 ZM436 0 l-427 0 l475 1267 l196 -527 l-244 -740 Z" /><glyph glyph-name="pi" unicode="&#x3c0;" d="M95 724 l440 0 l0 -724 l-440 0 l0 724 ZM95 1062 l1194 0 l0 -269 l-1194 0 l0 269 ZM850 724 l440 0 l0 -724 l-440 0 l0 724 Z" /><glyph glyph-name="uni1E02" unicode="&#x1e02;" d="M957 1062 l-328 0 l0 265 l513 0 l266 -265 l0 -270 l-133 -133 l133 -133 l0 -261 l-266 -265 l-513 0 l0 265 l328 0 l0 283 l-328 0 l0 231 l328 0 l0 283 ZM117 1327 l442 0 l0 -1327 l-442 0 l0 1327 ZM584 1682 l336 0 l0 -221 l-336 0 l0 221 Z" /><glyph glyph-name="uni1E03" unicode="&#x1e03;" d="M546 1467 l0 -1467 l-442 0 l0 1467 l442 0 ZM814 797 l-198 0 l0 134 l130 131 l242 0 l266 -265 l0 -532 l-266 -265 l-372 0 l0 248 l198 0 l0 549 ZM813 1560 l336 0 l0 -281 l-336 0 l0 281 Z" /><glyph glyph-name="uni1E0A" unicode="&#x1e0a;" d="M629 0 l0 265 l328 0 l0 797 l-328 0 l0 265 l505 0 l266 -265 l0 -797 l-266 -265 l-505 0 ZM117 1327 l442 0 l0 -1327 l-442 0 l0 1327 ZM561 1682 l336 0 l0 -221 l-336 0 l0 221 Z" /><glyph glyph-name="uni1E0B" unicode="&#x1e0b;" d="M1262 1467 l0 -1467 l-442 0 l0 1467 l442 0 ZM537 248 l213 0 l0 -143 l-105 -105 l-311 0 l-239 239 l0 584 l239 239 l416 0 l0 -265 l-213 0 l0 -549 ZM170 1560 l336 0 l0 -281 l-336 0 l0 281 Z" /><glyph glyph-name="uni1E1E" unicode="&#x1e1e;" d="M117 1327 l442 0 l0 -593 l408 0 l0 -261 l-408 0 l0 -473 l-442 0 l0 1327 ZM629 1062 l0 265 l674 0 l0 -440 l-442 0 l0 175 l-232 0 ZM514 1682 l336 0 l0 -221 l-336 0 l0 221 Z" /><glyph glyph-name="uni1E1F" unicode="&#x1e1f;" d="M586 1202 l0 -1202 l-443 0 l0 797 l-105 0 l0 265 l105 0 l0 157 l267 248 l496 0 l0 -265 l-320 0 ZM653 797 l3 265 l250 0 l0 -265 l-253 0 ZM211 1830 l336 0 l0 -281 l-336 0 l0 281 Z" /><glyph glyph-name="uni1E40" unicode="&#x1e40;" d="M118 1327 l470 0 l356 -590 l280 480 l0 -668 l-319 -549 l-787 1327 ZM1289 0 l0 1327 l442 0 l0 -1327 l-442 0 ZM117 0 l0 1204 l413 -693 l0 -511 l-413 0 ZM761 1682 l336 0 l0 -221 l-336 0 l0 221 Z" /><glyph glyph-name="uni1E41" unicode="&#x1e41;" d="M119 0 l0 1062 l443 0 l0 -1062 l-443 0 ZM812 797 l-180 0 l0 125 l139 140 l342 0 l142 -142 l0 -920 l-443 0 l0 797 ZM1505 797 l-180 0 l0 123 l136 142 l270 0 l216 -218 l0 -844 l-442 0 l0 797 ZM873 1560 l336 0 l0 -281 l-336 0 l0 281 Z" /><glyph glyph-name="uni1E56" unicode="&#x1e56;" d="M115 0 l0 1327 l434 0 l0 -1327 l-434 0 ZM619 1062 l0 265 l496 0 l265 -265 l0 -455 l-265 -266 l-496 0 l0 266 l321 0 l0 455 l-321 0 ZM602 1682 l336 0 l0 -221 l-336 0 l0 221 Z" /><glyph glyph-name="uni1E57" unicode="&#x1e57;" d="M104 -354 l0 1416 l442 0 l0 -1416 l-442 0 ZM811 797 l-195 0 l0 134 l130 131 l242 0 l266 -265 l0 -532 l-266 -265 l-372 0 l0 248 l195 0 l0 549 ZM669 1560 l336 0 l0 -281 l-336 0 l0 281 Z" /><glyph glyph-name="uni1E60" unicode="&#x1e60;" d="M937 0 l0 497 l-574 0 l-266 266 l0 299 l266 265 l150 0 l0 -471 l610 0 l257 -266 l0 -325 l-265 -265 l-178 0 ZM583 1088 l0 239 l531 0 l230 -231 l0 -141 l-407 0 l0 133 l-354 0 ZM97 398 l442 0 l0 -158 l328 0 l0 -240 l-547 0 l-223 265 l0 133 ZM601 1688 l336 0 l0 -221 l-336 0 l0 221 Z" /><glyph glyph-name="uni1E61" unicode="&#x1e61;" d="M335 1062 l177 0 l0 -375 l504 0 l230 -232 l0 -207 l-247 -248 l-195 0 l0 401 l-478 0 l-230 221 l0 202 l239 238 ZM538 195 l196 0 l0 -195 l-455 1 l-184 218 l0 85 l443 0 l0 -109 ZM804 867 l-222 0 l0 195 l470 0 l158 -158 l0 -120 l-406 0 l0 83 ZM512 1560 l336 0 l0 -281 l-336 0 l0 281 Z" /><glyph glyph-name="uni1E6A" unicode="&#x1e6a;" d="M398 969 l460 0 l0 -969 l-460 0 l0 969 ZM52 1327 l1152 0 l0 -289 l-1152 0 l0 289 ZM458 1681 l336 0 l0 -221 l-336 0 l0 221 Z" /><glyph glyph-name="uni1E6B" unicode="&#x1e6b;" d="M558 265 l292 0 l0 -265 l-468 0 l-266 265 l0 532 l-88 0 l0 265 l88 0 l0 115 l442 150 l0 -1062 ZM628 797 l0 265 l238 0 l0 -265 l-238 0 ZM170 1664 l336 0 l0 -281 l-336 0 l0 281 Z" /><glyph glyph-name="Wgrave" unicode="&#x1e80;" d="M609 598 l133 557 l173 -630 l-143 -525 l-401 0 l-397 1327 l440 0 l195 -729 ZM1547 0 l-422 0 l-364 1327 l446 0 l340 -1327 ZM1551 1327 l403 0 l-360 -1258 l-180 707 l137 551 ZM1169 1527 l-52 -122 l-502 115 l-47 169 l155 78 l446 -240 Z" /><glyph glyph-name="wgrave" unicode="&#x1e81;" d="M-14 1062 l422 0 l173 -553 l123 383 l159 -489 l-126 -404 l-1 1 l-369 0 l-381 1062 ZM710 1062 l417 0 l342 -1062 l-401 0 l-358 1062 ZM1513 66 l-186 572 l119 424 l414 0 l-347 -996 ZM1214 1291 l-61 -147 l-555 167 l-54 211 l184 85 l486 -316 Z" /><glyph glyph-name="Wacute" unicode="&#x1e82;" d="M609 598 l133 557 l173 -630 l-143 -525 l-401 0 l-397 1327 l440 0 l195 -729 ZM1547 0 l-422 0 l-364 1327 l446 0 l340 -1327 ZM1551 1327 l403 0 l-360 -1258 l-180 707 l137 551 ZM1295 1767 l155 -78 l-47 -169 l-503 -115 l-51 122 l446 240 Z" /><glyph glyph-name="wacute" unicode="&#x1e83;" d="M-14 1062 l422 0 l173 -553 l123 383 l159 -489 l-126 -404 l-1 1 l-369 0 l-381 1062 ZM710 1062 l417 0 l342 -1062 l-401 0 l-358 1062 ZM1513 66 l-186 572 l119 424 l414 0 l-347 -996 ZM1122 1607 l184 -85 l-54 -211 l-554 -167 l-62 147 l486 316 Z" /><glyph glyph-name="Wdieresis" unicode="&#x1e84;" d="M609 598 l133 557 l173 -630 l-143 -525 l-401 0 l-397 1327 l440 0 l195 -729 ZM1547 0 l-422 0 l-364 1327 l446 0 l340 -1327 ZM1551 1327 l403 0 l-360 -1258 l-180 707 l137 551 ZM576 1682 l336 0 l0 -221 l-336 0 l0 221 ZM1106 1682 l336 0 l0 -221 l-336 0 l0 221 Z" /><glyph glyph-name="wdieresis" unicode="&#x1e85;" d="M-14 1062 l422 0 l173 -553 l123 383 l159 -489 l-126 -404 l-1 1 l-369 0 l-381 1062 ZM710 1062 l417 0 l342 -1062 l-401 0 l-358 1062 ZM1513 66 l-186 572 l119 424 l414 0 l-347 -996 ZM490 1560 l336 0 l0 -281 l-336 0 l0 281 ZM1020 1560 l336 0 l0 -281 l-336 0 l0 281 Z" /><glyph glyph-name="Ygrave" unicode="&#x1ef2;" d="M424 422 l-450 905 l434 0 l459 -936 l0 -391 l-443 0 l0 422 ZM895 484 l-215 436 l218 407 l425 0 l-428 -843 ZM808 1526 l-52 -122 l-502 115 l-47 169 l155 78 l446 -240 Z" /><glyph glyph-name="ygrave" unicode="&#x1ef3;" d="M696 -370 l-424 0 l538 1432 l425 0 l-539 -1432 ZM-14 1062 l441 0 l149 -432 l-198 -541 l-392 973 ZM913 1291 l-61 -147 l-555 167 l-54 211 l184 85 l486 -316 Z" /><glyph glyph-name="endash" unicode="&#x2013;" d="M186 740 l1251 0 l0 -239 l-1251 0 l0 239 Z" /><glyph glyph-name="emdash" unicode="&#x2014;" d="M186 740 l1619 0 l0 -239 l-1619 0 l0 239 Z" /><glyph glyph-name="quoteleft" unicode="&#x2018;" d="M650 752 l-486 0 l0 310 l176 265 l267 0 l-125 -265 l168 0 l0 -310 Z" /><glyph glyph-name="quoteright" unicode="&#x2019;" d="M164 1327 l486 0 l0 -310 l-176 -265 l-267 0 l125 265 l-168 0 l0 310 Z" /><glyph glyph-name="quotesinglbase" unicode="&#x201a;" d="M164 309 l486 0 l0 -310 l-176 -265 l-267 0 l125 265 l-168 0 l0 310 Z" /><glyph glyph-name="quotedblleft" unicode="&#x201c;" d="M650 752 l-486 0 l0 310 l176 265 l267 0 l-125 -265 l168 0 l0 -310 ZM1259 752 l-486 0 l0 310 l176 265 l267 0 l-125 -265 l168 0 l0 -310 Z" /><glyph glyph-name="quotedblright" unicode="&#x201d;" d="M768 1327 l486 0 l0 -310 l-176 -265 l-267 0 l125 265 l-168 0 l0 310 ZM164 1327 l486 0 l0 -310 l-176 -265 l-267 0 l125 265 l-168 0 l0 310 Z" /><glyph glyph-name="quotedblbase" unicode="&#x201e;" d="" /><glyph glyph-name="dagger" unicode="&#x2020;" d="M557 429 l-1 0 l101 393 l-362 -61 l-134 162 l134 161 l365 -64 l-68 396 l161 135 l162 -135 l-68 -396 l364 63 l135 -162 l-135 -162 l-362 62 l99 -390 l2 -1 l-151 -745 l-91 0 l-151 744 Z" /><glyph glyph-name="daggerdbl" unicode="&#x2021;" d="M557 614 l97 206 l-359 -60 l-134 162 l134 161 l365 -63 l-68 395 l161 135 l162 -135 l-68 -395 l364 62 l135 -162 l-135 -161 l-357 61 l98 -205 l-100 -201 l359 60 l135 -161 l-135 -162 l-364 64 l68 -396 l-162 -134 l-161 134 l68 396 l-365 -62 l-134 161 l134 162 l363 -62 l-101 200 Z" /><glyph glyph-name="bullet" unicode="&#x2022;" d="M326 966 l266 0 l176 -177 l0 -265 l-176 -178 l-266 0 l-177 178 l0 265 l177 177 Z" /><glyph glyph-name="ellipsis" unicode="&#x2026;" d="M147 309 l442 0 l0 -309 l-442 0 l0 309 ZM883 309 l442 0 l0 -309 l-442 0 l0 309 ZM1618 309 l442 0 l0 -309 l-442 0 l0 309 Z" /><glyph glyph-name="perthousand" unicode="&#x2030;" d="M1359 1458 l250 0 l-613 -1654 l-250 0 l613 1654 ZM2355 200 l64 0 l0 -200 l-197 0 l-97 97 l-97 -97 l-199 0 l0 200 l66 0 l0 347 l-66 0 l0 199 l199 0 l97 -97 l97 97 l197 0 l0 -199 l-64 0 l0 -347 ZM1029 783 l-200 -201 l-198 0 l0 201 l65 0 l0 346 l-65 0 l0 200 l198 0 l200 -200 l0 -346 ZM497 783 l64 0 l0 -201 l-197 0 l-200 201 l0 346 l200 200 l197 0 l0 -200 l-64 0 l0 -346 ZM2887 200 l-199 -200 l-199 0 l0 200 l66 0 l0 347 l-66 0 l0 199 l199 0 l199 -199 l0 -347 ZM1695 200 l64 0 l0 -200 l-197 0 l-199 200 l0 347 l199 199 l197 0 l0 -199 l-64 0 l0 -347 Z" /><glyph glyph-name="guilsinglleft" unicode="&#x2039;" d="M202 613 l420 432 l265 0 l-281 -509 l281 -509 l-265 0 l-420 432 l0 154 Z" /><glyph glyph-name="guilsinglright" unicode="&#x203a;" d="M888 458 l-420 -432 l-265 0 l281 509 l-281 509 l265 0 l420 -432 l0 -154 Z" /><glyph glyph-name="fraction" unicode="&#x2044;" d="M480 1327 l249 0 l-479 -1327 l-250 0 l480 1327 Z" /><glyph glyph-name="Euro" unicode="&#x20ac;" d="M204 905 l122 0 l0 204 l265 266 l177 0 l0 -470 l289 0 l0 -142 l-289 0 l0 -147 l262 0 l0 -142 l-262 0 l0 -474 l-177 0 l-265 265 l0 209 l-139 0 l0 142 l139 0 l0 147 l-122 0 l0 142 ZM835 1109 l0 266 l508 0 l265 -266 l0 -209 l-442 0 l0 209 l-331 0 ZM835 0 l0 265 l331 0 l0 209 l442 0 l0 -209 l-265 -265 l-508 0 Z" /><glyph glyph-name="trademark" unicode="&#x2122;" d="M651 1328 l208 0 l160 -264 l88 152 l0 -297 l-107 -181 l-349 590 ZM1174 738 l0 590 l196 0 l0 -590 l-196 0 ZM273 1121 l204 0 l0 -383 l-204 0 l0 383 ZM572 1328 l88 -146 l-562 0 l0 146 l474 0 ZM651 738 l0 383 l45 0 l139 -227 l0 -156 l-184 0 Z" /><glyph glyph-name="Omega" unicode="&#x2126;" d="M88 250 l267 0 l-269 265 l0 547 l269 265 l340 0 l0 -269 l-166 0 l0 -538 l116 -120 l0 -399 l-557 0 l0 249 ZM1374 1 l-557 0 l0 399 l116 120 l0 538 l-166 0 l0 269 l340 0 l269 -265 l0 -547 l-269 -265 l267 0 l0 -249 Z" /><glyph glyph-name="partialdiff" unicode="&#x2202;" d="M816 1202 l-109 0 l0 265 l285 0 l266 -265 l0 -937 l-266 -265 l-285 0 l0 265 l109 0 l0 937 ZM536 686 l0 -421 l101 0 l0 -265 l-281 0 l-265 265 l0 426 l260 243 l393 0 l0 -248 l-208 0 ZM513 1202 l0 -107 l-402 0 l0 107 l265 265 l261 0 l0 -265 l-124 0 Z" /><glyph glyph-name="product" unicode="&#x220f;" d="M87 989 l440 0 l0 -1158 l-440 0 l0 1158 ZM87 1327 l1288 0 l0 -269 l-1288 0 l0 269 ZM935 989 l440 0 l0 -1158 l-440 0 l0 1158 Z" /><glyph glyph-name="summation" unicode="&#x2211;" d="M476 -173 l-358 0 l-1 225 l336 516 l-336 535 l0 224 l360 0 l395 -762 l-396 -738 ZM1320 1327 l0 -398 l-442 0 l0 133 l-207 0 l-123 265 l772 0 ZM545 -173 l126 265 l207 0 l0 133 l442 0 l0 -398 l-775 0 Z" /><glyph glyph-name="minus" unicode="&#x2212;" d="M186 740 l883 0 l0 -239 l-883 0 l0 239 Z" /><glyph glyph-name="radical" unicode="&#x221a;" d="M-14 1062 l439 0 l378 -1062 l-420 0 l-397 1062 ZM848 59 l-198 562 l317 1145 l413 0 l-532 -1707 Z" /><glyph glyph-name="infinity" unicode="&#x221e;" d="M2035 265 l-265 -265 l-296 0 l0 247 l110 0 l0 550 l-197 0 l-137 137 l122 128 l398 0 l265 -265 l0 -532 ZM1289 247 l115 0 l0 -247 l-319 0 l-247 247 l0 550 l-110 0 l0 265 l296 0 l265 -265 l0 -550 ZM95 797 l265 265 l296 0 l0 -265 l-110 0 l0 -550 l190 0 l119 -119 l-122 -128 l-373 0 l-265 265 l0 532 Z" /><glyph glyph-name="integral" unicode="&#x222b;" d="M459 -239 l0 1862 l267 248 l496 0 l0 -265 l-320 0 l0 -1862 l-267 -248 l-496 0 l0 265 l320 0 Z" /><glyph glyph-name="approxequal" unicode="&#x2248;" d="M1153 717 l-403 0 l-233 233 l-108 0 l-209 -144 l-87 88 l237 294 l400 0 l238 -238 l103 0 l208 149 l88 -90 l-234 -292 ZM1150 174 l-403 0 l-233 233 l-108 0 l-209 -144 l-87 88 l237 294 l400 0 l238 -238 l103 0 l208 149 l88 -90 l-234 -292 Z" /><glyph glyph-name="notequal" unicode="&#x2260;" d="M186 1000 l528 0 l69 223 l249 0 l-69 -223 l290 0 l0 -239 l-364 0 l-98 -319 l462 0 l0 -238 l-535 0 l-62 -204 l-250 0 l63 204 l-283 0 l0 238 l356 0 l98 319 l-454 0 l0 239 Z" /><glyph glyph-name="lessequal" unicode="&#x2264;" d="M146 789 l0 235 l1067 292 l0 -249 l-1067 -278 ZM146 203 l1067 0 l0 -238 l-1067 0 l0 238 ZM200 731 l452 116 l561 -148 l0 -248 l-1013 280 Z" /><glyph glyph-name="greaterequal" unicode="&#x2265;" d="M1213 789 l0 235 l-1067 292 l0 -249 l1067 -278 ZM1213 203 l-1067 0 l0 -238 l1067 0 l0 238 ZM1159 731 l-452 116 l-561 -148 l0 -248 l1013 280 Z" /><glyph glyph-name="lozenge" unicode="&#x25ca;" d="M649 368 l140 291 l-297 609 l234 0 l324 -610 l-283 -533 l-118 243 ZM576 948 l-140 -291 l297 -609 l-234 0 l-324 610 l283 533 l118 -243 Z" /><glyph glyph-name="ff" unicode="&#xfb00;" d="M1493 1202 l0 -1202 l-443 0 l0 797 l-397 0 l3 265 l394 0 l0 157 l267 248 l496 0 l0 -265 l-320 0 ZM586 1202 l0 -1202 l-443 0 l0 797 l-105 0 l0 265 l105 0 l0 157 l267 248 l496 0 l0 -265 l-320 0 ZM1560 797 l3 265 l250 0 l0 -265 l-253 0 Z" /><glyph glyph-name="fi" unicode="&#xfb01;" d="M586 1202 l0 -1202 l-443 0 l0 797 l-105 0 l0 265 l105 0 l0 157 l267 248 l496 0 l0 -265 l-320 0 ZM1012 797 l-359 0 l3 265 l799 0 l0 -1062 l-443 0 l0 797 ZM1012 1476 l443 0 l0 -282 l-443 0 l0 282 Z" /><glyph glyph-name="fl" unicode="&#xfb02;" d="M1651 0 l-392 0 l-248 248 l0 954 l-425 0 l0 -1202 l-443 0 l0 797 l-105 0 l0 265 l105 0 l0 157 l267 248 l1045 0 l0 -265 l-2 0 l0 -937 l198 0 l0 -265 ZM653 797 l3 265 l250 0 l0 -265 l-253 0 Z" /></font>
</defs>
</svg>
