<?xml version="1.0" standalone="no"?><!DOCTYPE svg PUBLIC "-//W3C//DTD SVG 1.1//EN" "http://www.w3.org/Graphics/SVG/1.1/DTD/svg11.dtd" ><svg xmlns="http://www.w3.org/2000/svg"><metadata></metadata><defs><font id="JamesGrieshaber: Atomic Age: 2013" horiz-adv-x="2919"><font-face font-family="Atomic Age" font-weight="400" font-stretch="normal" units-per-em="2048" panose-1="2 1 6 4 1 2 0 4 0 4" ascent="2091" descent="-656" x-height="4" bbox="-552 -656 2685 2091" underline-thickness="96" underline-position="-157" unicode-range="U+0000-feff" /><missing-glyph horiz-adv-x="2027" d="M-40 1636 l1715 0 l0 -1826 l-1715 0 l0 1826 ZM461 160 l354 359 l356 -359 l189 193 l-359 354 l357 351 l-187 190 l-354 -356 l-352 357 l-188 -192 l355 -352 l-357 -354 l186 -191 Z" /><glyph glyph-name="space" unicode=" " d="" /><glyph glyph-name="c" unicode="c" d="M192 793 q0 53 15 99 q15 46 40.5 80.5 q25.5 34.5 60.5 54.5 q35 20 74 20 l526 0 q39 0 73.5 -20 q34.5 -20 60.5 -54.5 q26 -34.5 41 -80.5 q15 -46 15 -99 l0 -186 l-239 0 l0 269 l-429 0 l0 -705 l700 0 q-4 -35 -19.5 -66 q-15.5 -31 -39 -54 q-23.5 -23 -53.5 -36.5 q-30 -13.5 -63 -14.5 l-573 0 q-39 -1 -74 19 q-35 20 -60.5 54.5 q-25.5 34.5 -40.5 81 q-15 46.5 -15 99.5 l0 539 Z" /><glyph glyph-name="d" unicode="d" d="M192 793 q0 53 15 99 q15 46 40.5 80.5 q25.5 34.5 60.5 54.5 q35 20 74 20 l462 0 l0 543 l238 0 l0 -1419 l190 0 q-4 -35 -19.5 -66.5 q-15.5 -31.5 -39 -54.5 q-23.5 -23 -53.5 -36.5 q-30 -13.5 -63 -13.5 l-253 0 l0 109 q-27 -51 -69 -80 q-42 -29 -89 -29 l-304 0 q-39 0 -74 20 q-35 20 -60.5 54.5 q-25.5 34.5 -40.5 80.5 q-15 46 -15 99 l0 539 ZM844 171 l0 705 l-414 0 l0 -705 l414 0 Z" /><glyph glyph-name="f" unicode="f" d="M496 -269 q0 -53 -16 -99.5 q-16 -46.5 -43.5 -81 q-27.5 -34.5 -64.5 -55 q-37 -20.5 -78 -20.5 l-36 0 l0 1419 l-80 0 l0 154 l80 0 l0 288 q0 53 15 99.5 q15 46.5 40.5 81 q25.5 34.5 60.5 54.5 q35 20 74 20 l382 0 l0 -174 l-334 0 l0 -369 l250 0 l0 -154 l-250 0 l0 -1163 l0 0 Z" /><glyph glyph-name="b" unicode="b" d="M192 1591 l238 0 l0 -660 q28 54 70 85 q42 31 91 31 l302 0 q39 0 73 -20 q34 -20 60 -54.5 q26 -34.5 41 -80.5 q15 -46 15 -99 l0 -622 l211 0 q-4 -35 -19.5 -66.5 q-15.5 -31.5 -39 -54.5 q-23.5 -23 -53.5 -36.5 q-30 -13.5 -63 -13.5 l-527 0 q-49 0 -90.5 30.5 q-41.5 30.5 -70.5 82.5 l0 -113 l-238 0 l0 1591 ZM844 171 l0 705 l-414 0 l0 -705 l414 0 Z" /><glyph glyph-name="g" unicode="g" d="M192 793 q0 53 15 99 q15 46 40.5 80.5 q25.5 34.5 60.5 54.5 q35 20 74 20 l700 0 l0 -876 l211 0 q-4 -35 -19.5 -66.5 q-15.5 -31.5 -39 -54.5 q-23.5 -23 -53.5 -36.5 q-30 -13.5 -63 -13.5 l-36 0 l0 -285 q0 -53 -15 -99.5 q-15 -46.5 -41 -81 q-26 -34.5 -60 -55 q-34 -20.5 -73 -20.5 l-485 0 l0 173 l435 0 l0 479 q-29 -52 -71 -81.5 q-42 -29.5 -88 -29.5 l-302 0 q-39 0 -74 20 q-35 20 -60.5 54.5 q-25.5 34.5 -40.5 80.5 q-15 46 -15 99 l0 539 ZM843 171 l0 705 l-413 0 l0 -705 l413 0 Z" /><glyph glyph-name="h" unicode="h" d="M192 1590 l239 0 l0 -657 q28 54 69.5 84 q41.5 30 90.5 30 l301 0 q39 0 73.5 -20 q34.5 -20 60.5 -54.5 q26 -34.5 41 -80.5 q15 -46 15 -99 l0 -622 l214 0 q-4 -35 -19.5 -66.5 q-15.5 -31.5 -38.5 -54.5 q-23 -23 -53 -36.5 q-30 -13.5 -62 -13.5 l-89 0 q-39 0 -74 20 q-35 20 -61 54.5 q-26 34.5 -41 80.5 q-15 46 -15 99 l0 622 l-412 0 l0 -876 l-239 0 l0 1590 Z" /><glyph glyph-name="n" unicode="n" d="M220 1047 l239 0 l0 -396 l309 320 q32 37 66.5 57 q34.5 20 82.5 20 q40 0 77 -20 q37 -20 65 -54.5 q28 -34.5 44.5 -80.5 q16.5 -46 16.5 -99 l0 -622 l202 0 q-4 -36 -19.5 -67 q-15.5 -31 -39 -54.5 q-23.5 -23.5 -53.5 -37 q-30 -13.5 -63 -13.5 l-78 0 q-40 0 -74.5 20 q-34.5 20 -60 54.5 q-25.5 34.5 -40.5 80.5 q-15 46 -15 99 l0 608 l-420 -432 l0 -430 l-239 0 l0 1047 Z" /><glyph glyph-name="i" unicode="i" d="M297 1289 q-35 0 -65.5 13 q-30.5 13 -53.5 36 q-23 23 -36 53.5 q-13 30.5 -13 65.5 q0 35 13 65.5 q13 30.5 36 53.5 q23 23 53.5 36.5 q30.5 13.5 65.5 13.5 q35 0 65.5 -13.5 q30.5 -13.5 53.5 -36.5 q23 -23 36.5 -53.5 q13.5 -30.5 13.5 -65.5 q0 -35 -13.5 -65.5 q-13.5 -30.5 -36.5 -53.5 q-23 -23 -54 -36 q-31 -13 -65 -13 ZM180 1047 l239 0 l0 -876 l214 0 q-3 -35 -18.5 -66.5 q-15.5 -31.5 -39 -54.5 q-23.5 -23 -53.5 -36.5 q-30 -13.5 -63 -13.5 l-88 0 q-39 0 -74 20 q-35 20 -61 54.5 q-26 34.5 -41 80.5 q-15 46 -15 99 l0 793 Z" /><glyph glyph-name="k" unicode="k" d="M192 1591 l239 0 l0 -966 l195 0 l227 422 l251 0 l-241 -419 q40 -7 75 -29.5 q35 -22.5 60.5 -57 q25.5 -34.5 40 -78 q14.5 -43.5 14.5 -92.5 l0 -200 l230 0 q-4 -35 -19.5 -66.5 q-15.5 -31.5 -39 -54.5 q-23.5 -23 -53.5 -36.5 q-30 -13.5 -63 -13.5 l-103 0 q-39 0 -73.5 20 q-34.5 20 -60.5 54.5 q-26 34.5 -41 80.5 q-15 46 -15 99 l0 203 l-384 0 l0 -457 l-239 0 l0 1591 Z" /><glyph glyph-name="l" unicode="l" d="M172 1591 l239 0 l0 -1420 l213 0 q-6 -40 -22.5 -72 q-16.5 -32 -40 -54 q-23.5 -22 -53 -33.5 q-29.5 -11.5 -61.5 -11.5 l-84 0 q-39 0 -74 20 q-35 20 -61 54.5 q-26 34.5 -41 80.5 q-15 46 -15 99 l0 1337 Z" /><glyph glyph-name="p" unicode="p" d="M431 -285 q0 -53 -14.5 -99.5 q-14.5 -46.5 -40 -81 q-25.5 -34.5 -59.5 -55 q-34 -20.5 -73 -20.5 l-52 0 l0 1588 l701 0 q39 0 73 -20 q34 -20 60 -54.5 q26 -34.5 41 -80.5 q15 -46 15 -99 l0 -622 l211 0 q-4 -35 -19.5 -66.5 q-15.5 -31.5 -39 -54.5 q-23.5 -23 -53.5 -36.5 q-30 -13.5 -63 -13.5 l-527 0 q-48 0 -90 30.5 q-42 30.5 -71 81.5 l1 -397 ZM843 172 l0 704 l-413 0 l0 -704 l413 0 Z" /><glyph glyph-name="q" unicode="q" d="M192 793 q0 53 15 99 q15 46 40.5 80.5 q25.5 34.5 60.5 54.5 q35 20 74 20 l700 0 l0 -876 l211 0 q-4 -35 -19.5 -66.5 q-15.5 -31.5 -39 -54.5 q-23.5 -23 -53.5 -36.5 q-30 -13.5 -63 -13.5 l-36 0 l0 -541 l-239 0 l0 661 q-15 -27 -36.5 -49 q-21.5 -22 -46.5 -37.5 q-25 -15.5 -51 -24.5 q-26 -9 -50 -9 l-277 0 q-39 0 -74 20 q-35 20 -60.5 54.5 q-25.5 34.5 -40.5 80.5 q-15 46 -15 99 l0 539 ZM843 171 l0 705 l-413 0 l0 -705 l413 0 Z" /><glyph glyph-name="t" unicode="t" d="M222 893 l-80 0 l0 154 l80 0 l0 278 l239 119 l0 -397 l269 0 l0 -154 l-269 0 l0 -722 l358 0 q-4 -35 -19.5 -66.5 q-15.5 -31.5 -39.5 -54.5 q-24 -23 -54 -36.5 q-30 -13.5 -63 -13.5 l-231 0 q-39 0 -74 20 q-35 20 -60.5 54.5 q-25.5 34.5 -40.5 80.5 q-15 46 -15 99 l0 639 Z" /><glyph glyph-name="y" unicode="y" d="M192 1047 l239 0 l0 -876 l412 0 l0 876 l239 0 l0 -876 l202 0 q-4 -35 -19.5 -66.5 q-15.5 -31.5 -39 -54.5 q-23.5 -23 -53.5 -36.5 q-30 -13.5 -63 -13.5 l-27 0 l0 -285 q0 -53 -15 -99.5 q-15 -46.5 -41 -81 q-26 -34.5 -60.5 -55 q-34.5 -20.5 -73.5 -20.5 l-484 0 l0 173 l435 0 l0 475 q-27 -50 -69.5 -78.5 q-42.5 -28.5 -90.5 -28.5 l-301 0 q-39 0 -74 20 q-35 20 -60.5 54.5 q-25.5 34.5 -40.5 80.5 q-15 46 -15 99 l0 793 Z" /><glyph glyph-name="u" unicode="u" d="M180 1047 l239 0 l0 -876 l413 0 l0 876 l238 0 l0 -876 l203 0 q-4 -35 -19.5 -66.5 q-15.5 -31.5 -39 -54.5 q-23.5 -23 -53.5 -36.5 q-30 -13.5 -63 -13.5 l-188 0 l-78 127 q-11 -28 -28 -51.5 q-17 -23.5 -38.5 -40 q-21.5 -16.5 -45 -26 q-23.5 -9.5 -45.5 -9.5 l-305 0 q-39 0 -74 20 q-35 20 -60.5 54.5 q-25.5 34.5 -40.5 80.5 q-15 46 -15 99 l0 793 Z" /><glyph glyph-name="v" unicode="v" d="M41 1047 l243 0 l273 -879 l273 879 l242 0 l-363 -1047 l-306 0 l-362 1047 Z" /><glyph glyph-name="x" unicode="x" d="M442 551 l-374 496 l234 0 l265 -334 l259 334 l234 0 l-370 -489 l308 -387 l142 0 q-4 -35 -19 -66 q-15 -31 -37.5 -54 q-22.5 -23 -52 -37 q-29.5 -14 -61.5 -14 l-111 0 l-295 390 l-295 -390 l-254 0 l427 551 Z" /><glyph glyph-name="z" unicode="z" d="M162 186 l570 690 l-540 0 l0 171 l795 0 l0 -184 l-567 -692 l645 0 q-4 -35 -19.5 -66.5 q-15.5 -31.5 -39 -54.5 q-23.5 -23 -53.5 -36.5 q-30 -13.5 -63 -13.5 l-728 0 l0 186 Z" /><glyph glyph-name="w" unicode="w" d="M180 1047 l239 0 l0 -875 l360 0 l0 875 l240 0 l0 -875 l360 0 l0 875 l443 0 q-4 -35 -19.5 -66.5 q-15.5 -31.5 -39 -54.5 q-23.5 -23 -53.5 -36.5 q-30 -13.5 -63 -13.5 l-29 0 l0 -622 q0 -53 -15 -99 q-15 -46 -41 -80.5 q-26 -34.5 -61 -54.5 q-35 -20 -74 -20 l-365 0 q-49 0 -93 33.5 q-44 33.5 -73 90.5 q-29 -57 -73 -90.5 q-44 -33.5 -93 -33.5 l-359 0 q-39 0 -74 20 q-35 20 -61 54.5 q-26 34.5 -41 80.5 q-15 46 -15 99 l0 793 Z" /><glyph glyph-name="j" unicode="j" d="M309 1289 q-35 0 -65.5 13 q-30.5 13 -53.5 36 q-23 23 -36 53.5 q-13 30.5 -13 65.5 q0 35 13 65.5 q13 30.5 36 53.5 q23 23 53.5 36.5 q30.5 13.5 65.5 13.5 q35 0 65.5 -13.5 q30.5 -13.5 53.5 -36.5 q23 -23 36.5 -53.5 q13.5 -30.5 13.5 -65.5 q0 -35 -13.5 -65.5 q-13.5 -30.5 -36.5 -53.5 q-23 -23 -54 -36 q-31 -13 -65 -13 ZM192 -368 l0 1415 l239 0 l0 -1332 q0 -53 -15 -99.5 q-15 -46.5 -40.5 -81 q-25.5 -34.5 -60 -55 q-34.5 -20.5 -73.5 -20.5 l-196 0 l0 173 l146 0 Z" /><glyph glyph-name="m" unicode="m" d="M220 1047 l239 0 l0 -402 l243 326 q32 38 66.5 57.5 q34.5 19.5 84.5 19.5 q40 0 76.5 -20 q36.5 -20 64 -54.5 q27.5 -34.5 44 -80.5 q16.5 -46 16.5 -99 l0 -113 l210 290 q32 37 72 57 q40 20 89 20 q40 0 76.5 -20 q36.5 -20 64 -54.5 q27.5 -34.5 44 -80.5 q16.5 -46 16.5 -99 l0 -623 l178 0 q-4 -35 -19.5 -66.5 q-15.5 -31.5 -39 -54.5 q-23.5 -23 -53.5 -36.5 q-30 -13.5 -63 -13.5 l-54 0 q-39 0 -73.5 20 q-34.5 20 -59.5 54.5 q-25 34.5 -39.5 80.5 q-14.5 46 -14.5 99 l0 601 l-334 -405 l0 -450 l-239 0 l0 855 l-356 -440 l0 -415 l-239 0 l0 1047 Z" /><glyph glyph-name="r" unicode="r" d="M192 1157 l240 0 l0 -110 l754 0 q-4 -35 -19.5 -66.5 q-15.5 -31.5 -38.5 -54.5 q-23 -23 -52.5 -36.5 q-29.5 -13.5 -60.5 -13.5 l0 -705 l232 0 q-4 -35 -19.5 -66.5 q-15.5 -31.5 -39.5 -54.5 q-24 -23 -55 -36.5 q-31 -13.5 -66 -13.5 l-100 0 q-39 0 -74 20 q-35 20 -61 54.5 q-26 34.5 -41 80.5 q-15 46 -15 99 l0 622 l-346 0 l0 -876 l-238 0 l0 1157 Z" /><glyph glyph-name="s" unicode="s" d="M499 1107 l240 0 q-9 -22 -13.5 -43.5 q-4.5 -21.5 -6.5 -35.5 q-3 -37 12 -67 q15 -30 40.5 -57.5 q25.5 -27.5 59 -54.5 q33.5 -27 68.5 -57 q40 -32 81 -73.5 q41 -41.5 74 -91 q33 -49.5 53.5 -105 q20.5 -55.5 18.5 -115.5 q-2 -42 -18 -80.5 q-16 -38.5 -42 -69 q-26 -30.5 -60.5 -52.5 q-34.5 -22 -72.5 -32 l372 0 q-14 -39 -33.5 -70.5 q-19.5 -31.5 -44 -54.5 q-24.5 -23 -53.5 -35.5 q-29 -12.5 -60 -12.5 l-274 0 q-46 0 -76.5 14.5 q-30.5 14.5 -48 38.5 q-17.5 24 -24 55.5 q-6.5 31.5 -3.5 65.5 q32 4 63 17 q31 13 55.5 37.5 q24.5 24.5 41 61.5 q16.5 37 20.5 89 q4 41 -8 77 q-12 36 -32 68 q-20 32 -46 61 q-26 29 -51 56 q-26 34 -52 82 q-26 48 -37 117 l-316 -840 l-247 0 l420 1107 Z" /><glyph glyph-name="A" unicode="a" d="M227 381 l-231 0 q4 35 19.5 66 q15.5 31 39 54.5 q23.5 23.5 53.5 37 q30 13.5 63 13.5 l86 0 l133 775 q7 41 26.5 76 q19.5 35 46 60 q26.5 25 58.5 39 q32 14 64 14 l243 0 q31 0 63 -14 q32 -14 59 -39.5 q27 -25.5 46.5 -60 q19.5 -34.5 26.5 -76.5 l228 -1326 l-239 0 l-62 381 l-491 0 l-61 -381 l-236 0 l65 381 ZM923 552 l-128 795 l-183 0 q-32 -194 -63 -393.5 q-31 -199.5 -63 -401.5 l437 0 Z" /><glyph glyph-name="one" unicode="1" d="M326 1345 l-154 0 l0 171 l393 0 l0 -1516 l-239 0 l0 1345 Z" /><glyph glyph-name="B" unicode="b" d="M230 565 l-252 0 q3 36 18 67 q15 31 38.5 54 q23.5 23 54 36.5 q30.5 13.5 64.5 13.5 l77 0 l0 780 l702 0 q40 0 77 -19.5 q37 -19.5 65.5 -54 q28.5 -34.5 46 -81 q17.5 -46.5 17.5 -99.5 l0 -374 q0 -73 -33 -134 q-33 -61 -96 -98 q44 -16 76 -45 q32 -29 52.5 -64 q20.5 -35 30.5 -73 q10 -38 10 -72 l0 -150 q0 -52 -15 -98 q-15 -46 -41.5 -80 q-26.5 -34 -61 -54 q-34.5 -20 -73.5 -20 l-757 0 l0 565 ZM901 736 l0 609 l-434 0 l0 -609 l434 0 ZM939 171 l0 394 l-472 0 l0 -394 l472 0 Z" /><glyph glyph-name="C" unicode="c" d="M200 1262 q0 53 15 99.5 q15 46.5 41 81 q26 34.5 60 54 q34 19.5 73 19.5 l556 0 q39 0 73.5 -19.5 q34.5 -19.5 60.5 -54 q26 -34.5 41 -81 q15 -46.5 15 -99.5 l0 -391 l-238 0 l0 476 l-460 0 l0 -1176 l770 0 q-4 -35 -19.5 -66.5 q-15.5 -31.5 -39 -54.5 q-23.5 -23 -53.5 -36.5 q-30 -13.5 -63 -13.5 l-643 0 q-39 0 -73 20 q-34 20 -60 54 q-26 34 -41 80 q-15 46 -15 98 l0 1010 Z" /><glyph glyph-name="D" unicode="d" d="M244 982 q0 52 15.5 97.5 q15.5 45.5 42 80 q26.5 34.5 61.5 54.5 q35 20 75 20 l45 0 l0 -1063 l463 0 l0 1176 l-896 0 q3 35 18.5 66 q15.5 31 39 54 q23.5 23 53.5 36 q30 13 64 13 l768 0 q39 0 74 -19.5 q35 -19.5 60.5 -54 q25.5 -34.5 40.5 -81 q15 -46.5 15 -99.5 l0 -1010 q0 -52 -15 -98 q-15 -46 -40.5 -80 q-25.5 -34 -60 -54 q-34.5 -20 -73.5 -20 l-749 0 l-1 982 Z" /><glyph glyph-name="F" unicode="f" d="M184 564 q3 33 17 62.5 q14 29.5 36.5 51 q22.5 21.5 51 34.5 q28.5 13 60.5 13 l324 0 l0 621 l-647 0 q4 35 19.5 66 q15.5 31 39 54 q23.5 23 53.5 36.5 q30 13.5 63 13.5 l706 0 l0 -791 l204 0 l1 -161 l-205 0 l0 -575 q0 -52 -16 -98 q-16 -46 -43 -80 q-27 -34 -62 -53.5 q-35 -19.5 -73 -19.5 l-40 0 l0 826 l-489 0 l0 0 Z" /><glyph glyph-name="G" unicode="g" d="M200 1261 q0 53 15 99.5 q15 46.5 40.5 81 q25.5 34.5 59.5 54 q34 19.5 73 19.5 l800 0 l0 -169 l-749 0 l0 -1174 l514 0 l0 711 l237 0 l-2 -1000 q0 -51 -14.5 -96.5 q-14.5 -45.5 -39.5 -80 q-25 -34.5 -59 -54.5 q-34 -20 -72 -20 l-50 0 l0 368 l-565 0 q-39 0 -73 20 q-34 20 -59.5 54 q-25.5 34 -40.5 80 q-15 46 -15 98 l0 1009 Z" /><glyph glyph-name="H" unicode="h" d="M230 565 l-239 0 q4 36 19.5 67 q15.5 31 39 54 q23.5 23 53.5 36.5 q30 13.5 63 13.5 l64 0 l0 780 l238 0 l0 -780 l539 0 l0 780 l240 0 l0 -1516 l-240 0 l0 565 l-539 0 l0 -565 l-238 0 l0 565 Z" /><glyph glyph-name="I" unicode="i" d="M319 171 l317 0 l0 1176 l-330 0 l0 -345 l-206 0 l0 260 q0 53 15 99.5 q15 46.5 41 81 q26 34.5 60.5 54 q34.5 19.5 74.5 19.5 l583 0 l0 -1264 q0 -52 -15 -98 q-15 -46 -41 -80 q-26 -34 -60.5 -54 q-34.5 -20 -73.5 -20 l-365 0 l0 171 Z" /><glyph glyph-name="J" unicode="j" d="M134 670 l233 0 l0 -499 l428 0 l0 1176 l-441 0 l0 169 l690 0 l0 -1262 q0 -52 -15 -98.5 q-15 -46.5 -41 -81 q-26 -34.5 -60.5 -54.5 q-34.5 -20 -74.5 -20 l-530 0 q-39 0 -73.5 20 q-34.5 20 -60 54 q-25.5 34 -40.5 80 q-15 46 -15 98 l0 418 Z" /><glyph glyph-name="K" unicode="k" d="M220 1516 l240 0 l0 -753 l199 0 l258 753 l254 0 l-285 -753 l51 0 q39 0 71.5 -20 q32.5 -20 55.5 -54 q23 -34 36 -79.5 q13 -45.5 13 -97.5 l0 -340 l266 0 q-4 -36 -19.5 -67 q-15.5 -31 -39 -54.5 q-23.5 -23.5 -53.5 -37 q-30 -13.5 -63 -13.5 l-141 0 q-39 0 -73.5 20 q-34.5 20 -60.5 54 q-26 34 -41 80 q-15 46 -15 98 l0 343 l-413 0 l0 -595 l-240 0 l0 1516 Z" /><glyph glyph-name="M" unicode="m" d="M220 1516 l239 0 l0 -402 l291 324 q32 38 78.5 58 q46.5 20 94.5 20 q42 0 76 -18 q34 -18 58 -49.5 q24 -31.5 37 -74 q13 -42.5 13 -90.5 l0 -170 l263 324 q29 40 77.5 59 q48.5 19 95.5 19 q42 0 76 -18 q34 -18 58 -49.5 q24 -31.5 37 -74 q13 -42.5 13 -90.5 l0 -1113 l216 0 q-4 -35 -19.5 -66.5 q-15.5 -31.5 -39 -54.5 q-23.5 -23 -53.5 -36.5 q-30 -13.5 -63 -13.5 l-94 0 q-39 0 -72.5 20 q-33.5 20 -58 54 q-24.5 34 -38.5 80 q-14 46 -14 98 l0 1068 l-384 -459 l0 -861 l-236 0 l0 1320 l-412 -459 l0 -861 l-239 0 l0 1516 Z" /><glyph glyph-name="O" unicode="o" d="M200 1262 q0 53 15 99.5 q15 46.5 40.5 81 q25.5 34.5 59.5 54 q34 19.5 73 19.5 l580 0 q39 0 74 -19.5 q35 -19.5 60.5 -54 q25.5 -34.5 40.5 -81 q15 -46.5 15 -99.5 l0 -1010 q0 -52 -15 -98 q-15 -46 -41 -80 q-26 -34 -60.5 -54 q-34.5 -20 -73.5 -20 l-580 0 q-39 0 -73 20 q-34 20 -59.5 54 q-25.5 34 -40.5 80 q-15 46 -15 98 l0 1010 ZM920 171 l0 1176 l-481 0 l0 -1176 l481 0 Z" /><glyph glyph-name="Q" unicode="q" d="M282 0 q4 35 19.5 66 q15.5 31 39.5 54.5 q24 23.5 53.5 37 q29.5 13.5 62.5 13.5 l456 0 l0 1176 l-473 0 l0 -887 l-50 0 q-39 0 -73.5 20 q-34.5 20 -60.5 54.5 q-26 34.5 -41 81 q-15 46.5 -15 99.5 l0 547 q0 53 15 99.5 q15 46.5 41 81 q26 34.5 60 54 q34 19.5 73 19.5 l572 0 q39 0 74 -19.5 q35 -19.5 61 -54 q26 -34.5 41 -81 q15 -46.5 15 -99.5 l0 -853 q0 -41 -10 -78.5 q-10 -37.5 -28 -68 q-18 -30.5 -43 -54 q-25 -23.5 -55 -37.5 l357 0 q-4 -35 -19.5 -66 q-15.5 -31 -39 -54.5 q-23.5 -23.5 -53.5 -37 q-30 -13.5 -63 -13.5 l-916 0 l0 0 Z" /><glyph glyph-name="R" unicode="r" d="M237 564 l-223 0 q3 35 18.5 66 q15.5 31 39 54.5 q23.5 23.5 53.5 37 q30 13.5 64 13.5 l48 0 l0 781 l678 0 q40 0 77 -19.5 q37 -19.5 65.5 -54 q28.5 -34.5 45.5 -81 q17 -46.5 17 -99.5 l0 -373 q0 -73 -33 -134 q-33 -61 -96 -98 q44 -16 76 -45 q32 -29 53 -64 q21 -35 31 -73 q10 -38 10 -72 l-1 -231 l263 0 q-4 -36 -19.5 -67 q-15.5 -31 -39 -54.5 q-23.5 -23.5 -53.5 -37 q-30 -13.5 -63 -13.5 l-138 0 q-39 0 -73.5 20 q-34.5 20 -60.5 54 q-26 34 -41 80 q-15 46 -15 98 l0 312 l-446 0 l-1 -564 l-236 0 l0 564 ZM883 735 l0 610 l-409 0 l0 -610 l409 0 Z" /><glyph glyph-name="U" unicode="u" d="M200 1516 l240 0 l0 -1334 l93 0 l385 304 l0 1030 l238 0 l0 -1344 l200 0 q-4 -36 -19.5 -67 q-15.5 -31 -39 -54.5 q-23.5 -23.5 -53.5 -37 q-30 -13.5 -63 -13.5 l-263 0 l0 288 l-317 -255 q-38 -33 -88 -33 l-115 0 q-40 0 -76 20 q-36 20 -63 54 q-27 34 -43 80 q-16 46 -16 98 l0 1264 Z" /><glyph glyph-name="E" unicode="e" d="M230 564 l-225 0 q3 33 17 62.5 q14 29.5 36.5 51 q22.5 21.5 51 34.5 q28.5 13 60.5 13 l60 0 l0 537 q0 53 14.5 99.5 q14.5 46.5 40 81 q25.5 34.5 60 54 q34.5 19.5 73.5 19.5 l628 0 l0 -169 l-576 0 l0 -622 l396 0 l0 -161 l-396 0 l0 -393 l665 0 q-4 -35 -19.5 -66.5 q-15.5 -31.5 -39 -54.5 q-23.5 -23 -53.5 -36.5 q-30 -13.5 -63 -13.5 l-540 0 q-40 0 -74.5 20 q-34.5 20 -60 54 q-25.5 34 -40.5 80 q-15 46 -15 98 l0 312 Z" /><glyph glyph-name="W" unicode="w" d="M230 1346 l-264 0 q4 35 19.5 66 q15.5 31 39 54.5 q23.5 23.5 53.5 37 q30 13.5 63 13.5 l328 0 l0 -1345 l370 0 l0 1345 l240 0 l0 -1345 l370 0 l0 1345 l239 0 l0 -1263 q0 -53 -15 -99 q-15 -46 -41 -80.5 q-26 -34.5 -60.5 -54.5 q-34.5 -20 -74.5 -20 l-373 0 q-49 0 -93 33.5 q-44 33.5 -73 90.5 q-29 -57 -73 -90.5 q-44 -33.5 -93 -33.5 l-371 0 q-39 0 -74 20 q-35 20 -61 54.5 q-26 34.5 -41 80.5 q-15 46 -15 99 l0 1092 Z" /><glyph glyph-name="a" unicode="a" d="M192 765 q0 60 16.5 112 q16.5 52 45.5 90 q29 38 68.5 59.5 q39.5 21.5 85.5 21.5 l674 0 l0 -877 l217 0 q-4 -35 -19.5 -66.5 q-15.5 -31.5 -39 -54.5 q-23.5 -23 -53.5 -36.5 q-30 -13.5 -63 -13.5 l-107 0 q-49 0 -93 33.5 q-44 33.5 -73 90.5 q-29 -57 -73 -90.5 q-44 -33.5 -93 -33.5 l-303 0 q-39 0 -74 20 q-35 20 -60.5 54 q-25.5 34 -40.5 79.5 q-15 45.5 -15 97.5 l0 514 ZM844 171 l0 705 l-414 0 l0 -705 l414 0 Z" /><glyph glyph-name="o" unicode="o" d="M192 793 q0 53 15 99.5 q15 46.5 40.5 81 q25.5 34.5 59.5 54 q34 19.5 73 19.5 l838 0 q-4 -35 -19.5 -66.5 q-15.5 -31.5 -39 -54.5 q-23.5 -23 -53.5 -36.5 q-30 -13.5 -63 -13.5 l-63 0 q19 -14 37.5 -36 q18.5 -22 33 -51 q14.5 -29 23 -63.5 q8.5 -34.5 8.5 -74.5 l0 -399 q0 -52 -15 -98 q-15 -46 -41 -80 q-26 -34 -60.5 -54 q-34.5 -20 -73.5 -20 l-512 0 q-39 0 -73 20 q-34 20 -59.5 54 q-25.5 34 -40.5 80 q-15 46 -15 98 l0 541 ZM843 171 l0 705 l-412 0 l0 -705 l412 0 Z" /><glyph glyph-name="e" unicode="e" d="M192 793 q0 53 15 99 q15 46 40.5 80.5 q25.5 34.5 60.5 54.5 q35 20 74 20 l531 0 q39 0 73.5 -20 q34.5 -20 60.5 -54.5 q26 -34.5 41 -80.5 q15 -46 15 -99 l0 -333 l-672 0 l0 -289 l734 0 q-4 -35 -19.5 -66.5 q-15.5 -31.5 -39 -54.5 q-23.5 -23 -53.5 -36.5 q-30 -13.5 -63 -13.5 l-608 0 q-39 0 -74 20 q-35 20 -60.5 54.5 q-25.5 34.5 -40.5 80.5 q-15 46 -15 99 l0 539 ZM864 600 l0 276 l-433 0 l0 -276 l433 0 Z" /><glyph glyph-name="T" unicode="t" d="M265 0 q4 35 19.5 66 q15.5 31 39 54.5 q23.5 23.5 53.5 37 q30 13.5 63 13.5 l294 0 l0 1176 l-444 0 l0 -325 l-239 0 l0 240 q0 53 15 99.5 q15 46.5 41 81 q26 34.5 60 54 q34 19.5 73 19.5 l939 0 l0 -169 l-207 0 l0 -1094 q0 -52 -15 -98 q-15 -46 -41 -80.5 q-26 -34.5 -60 -54.5 q-34 -20 -73 -20 l-518 0 l0 0 Z" /><glyph glyph-name="L" unicode="l" d="M50 0 q3 34 18.5 65.5 q15.5 31.5 39 54.5 q23.5 23 53.5 37 q30 14 64 14 l42 0 l0 1091 q0 53 15 99.5 q15 46.5 40.5 81 q25.5 34.5 60 54 q34.5 19.5 73.5 19.5 l320 0 l0 -159 l-271 0 l0 -941 q0 -52 -14.5 -95 q-14.5 -43 -36 -75 q-21.5 -32 -47.5 -51.5 q-26 -19.5 -49 -23.5 l586 0 l0 220 l211 0 l0 -221 q0 -36 -15 -67 q-15 -31 -39.5 -54 q-24.5 -23 -56 -36 q-31.5 -13 -64.5 -13 l-930 0 l0 0 Z" /><glyph glyph-name="P" unicode="p" d="M231 526 l-288 0 q4 35 19.5 66 q15.5 31 39 54.5 q23.5 23.5 53.5 37 q30 13.5 63 13.5 l112 0 l0 819 l745 0 q39 0 73.5 -19.5 q34.5 -19.5 60.5 -54 q26 -34.5 41 -81 q15 -46.5 15 -99.5 l0 -484 q0 -53 -15 -98.5 q-15 -45.5 -41 -80 q-26 -34.5 -60.5 -54 q-34.5 -19.5 -73.5 -19.5 l-504 0 l0 -526 l-240 0 l0 526 ZM932 697 l0 650 l-462 0 l0 -650 l462 0 Z" /><glyph glyph-name="Y" unicode="y" d="M275 0 q4 35 19.5 66 q15.5 31 39 54.5 q23.5 23.5 53.5 37 q30 13.5 63 13.5 l480 0 l0 447 l-304 -184 q-20 -13 -49.5 -21 q-29.5 -8 -53.5 -7 l-113 0 q-40 0 -76 20 q-36 20 -63 54 q-27 34 -43 80 q-16 46 -16 98 l0 687 l-212 0 q4 35 19.5 66 q15.5 31 40 54.5 q24.5 23.5 56.5 37 q32 13.5 69 13.5 l267 0 l0 -938 l93 0 l385 237 l0 701 l238 0 l0 -1265 q0 -51 -15 -96.5 q-15 -45.5 -40.5 -80 q-25.5 -34.5 -60.5 -54.5 q-35 -20 -74 -20 l-703 0 l0 0 Z" /><glyph glyph-name="three" unicode="3" d="M190 322 l238 0 l0 -150 l402 0 l0 471 l-338 0 l0 171 l338 0 l0 527 l-402 0 l0 -189 l-238 0 l0 107 q0 53 15 99 q15 46 41 80.5 q26 34.5 61 54.5 q35 20 74 20 l498 0 q39 0 74 -20 q35 -20 61 -54.5 q26 -34.5 41 -80.5 q15 -46 15 -99 l0 -275 q0 -41 -11.5 -79.5 q-11.5 -38.5 -31.5 -71.5 q-20 -33 -47.5 -58.5 q-27.5 -25.5 -59.5 -41.5 q32 -17 59.5 -42.5 q27.5 -25.5 47.5 -57.5 q20 -32 31.5 -70 q11.5 -38 11.5 -80 l0 -229 q0 -53 -15 -99 q-15 -46 -41 -80.5 q-26 -34.5 -61 -54.5 q-35 -20 -74 -20 l-498 0 q-39 0 -74 20 q-35 20 -61 54.5 q-26 34.5 -41 80.5 q-15 46 -15 99 l0 68 Z" /><glyph glyph-name="zero" unicode="0" d="M227 1262 q0 54 15 100.5 q15 46.5 40.5 81 q25.5 34.5 60.5 54 q35 19.5 74 19.5 l491 0 q39 0 73.5 -19.5 q34.5 -19.5 60.5 -54 q26 -34.5 41 -81 q15 -46.5 15 -100.5 l0 -1008 q0 -53 -15 -99 q-15 -46 -41 -80.5 q-26 -34.5 -60 -54.5 q-34 -20 -73 -20 l-492 0 q-39 0 -74 20 q-35 20 -60.5 54.5 q-25.5 34.5 -40.5 80.5 q-15 46 -15 99 l0 1008 ZM860 172 l0 1174 l-395 0 l0 -1174 l395 0 Z" /><glyph glyph-name="two" unicode="2" d="M190 368 q0 38 7.5 74 q7.5 36 21.5 67 q14 31 34 54 q20 23 44 36 l502 260 l0 485 l-372 0 l0 -187 l-237 0 l0 105 q0 53 15 99 q15 46 40.5 80.5 q25.5 34.5 60.5 54.5 q35 20 74 20 l467 0 q39 0 74 -20 q35 -20 60.5 -54.5 q25.5 -34.5 40.5 -80.5 q15 -46 15 -99 l0 -372 q0 -80 -32.5 -128 q-32.5 -48 -84.5 -75 l-493 -258 l0 -257 l610 0 l0 -172 l-847 0 l0 368 Z" /><glyph glyph-name="five" unicode="5" d="M251 360 l237 0 l0 -188 l397 0 l0 546 l-634 0 l0 798 l836 0 l0 -182 l-599 0 l0 -445 l445 0 q39 0 73 -20 q34 -20 60 -55 q26 -35 41 -81.5 q15 -46.5 15 -100.5 l0 -378 q0 -53 -15 -99 q-15 -46 -41 -80.5 q-26 -34.5 -60 -54.5 q-34 -20 -73 -20 l-492 0 q-39 0 -74 20 q-35 20 -60.5 54.5 q-25.5 34.5 -40.5 80.5 q-15 46 -15 99 l0 106 Z" /><glyph glyph-name="six" unicode="6" d="M227 1262 q0 53 15 99 q15 46 41 80.5 q26 34.5 61 54.5 q35 20 74 20 l628 0 l0 -172 l-581 0 l0 -435 l492 0 q40 0 75 -20 q35 -20 61.5 -55 q26.5 -35 41.5 -81.5 q15 -46.5 15 -100.5 l0 -398 q0 -53 -15 -99 q-15 -46 -41.5 -80.5 q-26.5 -34.5 -61.5 -54.5 q-35 -20 -75 -20 l-539 0 q-39 0 -74 20 q-35 20 -61 54.5 q-26 34.5 -41 80.5 q-15 46 -15 99 l0 1008 ZM910 172 l0 576 l-445 0 l0 -576 l445 0 Z" /><glyph glyph-name="nine" unicode="9" d="M358 172 l502 0 l0 332 l-442 0 q-39 0 -74 20 q-35 20 -61 54.5 q-26 34.5 -41 81 q-15 46.5 -15 100.5 l0 501 q0 53 15 99 q15 46 41 80.5 q26 34.5 61 54.5 q35 20 74 20 l489 0 q40 0 75 -20 q35 -20 61.5 -54.5 q26.5 -34.5 41.5 -80.5 q15 -46 15 -99 l0 -1007 q0 -53 -15 -99 q-15 -46 -41.5 -80.5 q-26.5 -34.5 -61.5 -54.5 q-35 -20 -75 -20 l-549 0 l0 172 ZM860 667 l0 676 l-395 0 l0 -676 l395 0 Z" /><glyph glyph-name="eight" unicode="8" d="M227 569 q0 42 11 80 q11 38 31 70.5 q20 32.5 47.5 58 q27.5 25.5 60.5 41.5 q-33 16 -60.5 42 q-27.5 26 -47.5 58.5 q-20 32.5 -31 71 q-11 38.5 -11 79.5 l0 191 q0 52 15 98.5 q15 46.5 41.5 81 q26.5 34.5 61 54.5 q34.5 20 73.5 20 l498 0 q39 0 74 -20 q35 -20 61 -54.5 q26 -34.5 41 -81 q15 -46.5 15 -98.5 l0 -191 q0 -41 -11.5 -79.5 q-11.5 -38.5 -31.5 -71.5 q-20 -33 -47.5 -58.5 q-27.5 -25.5 -59.5 -41.5 q32 -17 59.5 -42.5 q27.5 -25.5 47.5 -57.5 q20 -32 31.5 -70 q11.5 -38 11.5 -80 l0 -315 q0 -53 -15 -99 q-15 -46 -41 -80.5 q-26 -34.5 -61 -54.5 q-35 -20 -74 -20 l-498 0 q-39 0 -73.5 20 q-34.5 20 -61 54.5 q-26.5 34.5 -41.5 80.5 q-15 46 -15 99 l0 315 ZM867 900 l0 444 l-401 0 l0 -444 l401 0 ZM867 172 l0 557 l-401 0 l0 -557 l401 0 Z" /><glyph glyph-name="seven" unicode="7" d="M886 1344 l-445 0 l0 -251 l-224 0 l0 422 l891 0 l0 -186 l-359 -1329 l-254 0 l391 1344 Z" /><glyph glyph-name="four" unicode="4" d="M153 525 l295 991 l245 0 l-298 -1006 l391 0 l0 555 l238 47 l0 -602 l168 0 l0 -170 l-168 0 l0 -340 l-238 0 l0 340 l-633 0 l0 185 Z" /><glyph glyph-name="N" unicode="n" d="M220 1516 l237 0 l0 -367 l373 292 q18 15 36 28.5 q18 13.5 37.5 24 q19.5 10.5 41 16.5 q21.5 6 46.5 6 q39 0 73 -17.5 q34 -17.5 59.5 -49 q25.5 -31.5 40 -74 q14.5 -42.5 14.5 -91.5 l0 -1112 l225 0 q-4 -36 -19.5 -67 q-15.5 -31 -39 -54.5 q-23.5 -23.5 -53.5 -37 q-30 -13.5 -63 -13.5 l-108 0 q-39 0 -73 20 q-34 20 -59.5 54 q-25.5 34 -40 80 q-14.5 46 -14.5 98 l0 1063 l-476 -371 l0 -944 l-237 0 l0 1516 Z" /><glyph glyph-name="V" unicode="v" d="M170 1345 l-186 0 q4 35 19.5 66 q15.5 31 39 54.5 q23.5 23.5 53.5 37 q30 13.5 63 13.5 l213 0 l320 -1364 l311 1364 l242 0 l-392 -1516 l-322 0 l-361 1345 Z" /><glyph glyph-name="X" unicode="x" d="M450 802 l-388 714 l249 0 l264 -524 l255 524 l249 0 l-391 -718 l341 -627 l217 0 q-4 -35 -19.5 -66.5 q-15.5 -31.5 -39 -54.5 q-23.5 -23 -53.5 -36.5 q-30 -13.5 -63 -13.5 l-197 0 l-314 606 l-293 -606 l-256 0 l439 802 Z" /><glyph glyph-name="Z" unicode="z" d="M136 176 l647 1171 l-622 0 l0 169 l856 0 l0 -173 l-647 -1166 l724 1 q-4 -36 -19.5 -68 q-15.5 -32 -39 -56.5 q-23.5 -24.5 -53.5 -39 q-30 -14.5 -63 -14.5 l-783 0 l0 176 Z" /><glyph glyph-name="S" unicode="s" d="M275 0 q4 35 19.5 66 q15.5 31 39 54.5 q23.5 23.5 53.5 37 q30 13.5 63 13.5 l367 0 l0 243 l-524 261 q-60 30 -96 91 q-36 61 -36 152 l0 344 q0 53 14.5 99.5 q14.5 46.5 40 81 q25.5 34.5 59.5 54 q34 19.5 73 19.5 l553 0 q39 0 73 -19.5 q34 -19.5 59.5 -54 q25.5 -34.5 40.5 -81 q15 -46.5 15 -99.5 l0 -296 l-239 0 l0 379 l-450 0 l0 -474 l542 -277 q26 -13 47 -36 q21 -23 36 -53.5 q15 -30.5 23 -67.5 q8 -37 8 -77 l0 -108 q0 -52 -15 -98 q-15 -46 -40.5 -80 q-25.5 -34 -59.5 -54 q-34 -20 -73 -20 l-593 0 l0 0 Z" /><glyph glyph-name="ampersand" unicode="&amp;" d="M119 633 q0 35 12 80.5 q12 45.5 40.5 88.5 q28.5 43 75.5 76 q47 33 116 44 l-25 35 q-14 19 -24 37 q-10 18 -17.5 39 q-7.5 21 -11 46.5 q-3.5 25.5 -3.5 59.5 l0 120 q0 54 15 100.5 q15 46.5 41 81.5 q26 35 61 55 q35 20 75 20 l343 0 q40 0 74.5 -20 q34.5 -20 60 -54.5 q25.5 -34.5 40 -81 q14.5 -46.5 14.5 -100.5 l0 -105 l-238 0 l0 190 l-249 0 l0 -293 l322 -441 l190 333 l213 0 l-290 -485 l330 -459 l-257 0 l-177 243 l-130 -243 l-410 0 q-39 0 -73.5 20 q-34.5 20 -60.5 54.5 q-26 34.5 -41.5 80.5 q-15.5 46 -15.5 99 l0 379 ZM573 171 l160 235 l-363 513 l0 -748 l203 0 Z" /><glyph glyph-name="IJ" unicode="&#x132;" d="M260 0 q3 35 18.5 66 q15.5 31 39 54.5 q23.5 23.5 53.5 37 q30 13.5 63 13.5 l479 0 l0 1345 l239 0 l0 -1262 q0 -53 -15 -99 q-15 -46 -41 -80.5 q-26 -34.5 -61 -54.5 q-35 -20 -74 -20 l-701 0 ZM388 469 q-39 0 -74 20 q-35 20 -61 54.5 q-26 34.5 -41 80.5 q-15 46 -15 99 l0 793 l239 0 l0 -876 l328 0 q-3 -35 -18.5 -66.5 q-15.5 -31.5 -39 -54.5 q-23.5 -23 -53.5 -36.5 q-30 -13.5 -63 -13.5 l-202 0 Z" /><glyph glyph-name="period" unicode="." d="M210 156 q0 35 13 65.5 q13 30.5 36 53.5 q23 23 53.5 36.5 q30.5 13.5 65.5 13.5 q35 0 65.5 -13.5 q30.5 -13.5 53.5 -36.5 q23 -23 36.5 -53.5 q13.5 -30.5 13.5 -65.5 q0 -35 -13.5 -65.5 q-13.5 -30.5 -36.5 -53.5 q-23 -23 -54 -36 q-31 -13 -65 -13 q-35 0 -65.5 13 q-30.5 13 -53.5 36 q-23 23 -36 53.5 q-13 30.5 -13 65.5 Z" /><glyph glyph-name="acute" unicode="´" d="M150 1415 l381 274 q46 33 93 33 q38 0 70.5 -22 q32.5 -22 51.5 -64 q13 -29 13 -59 q0 -27 -9.5 -51.5 q-9.5 -24.5 -26 -45 q-16.5 -20.5 -39.5 -35.5 q-23 -15 -49 -22 l-424 -113 l-61 105 Z" /><glyph glyph-name="grave" unicode="`" d="M274 1373 q-26 7 -49 22 q-23 15 -39.5 35.5 q-16.5 20.5 -26 45 q-9.5 24.5 -9.5 51.5 q0 30 13 59 q19 42 51.5 64 q32.5 22 70.5 22 q46 0 93 -33 l381 -274 l-61 -105 l-424 113 l0 0 Z" /><glyph glyph-name="tilde" unicode="&#x2dc;" d="M150 1348 q4 28 8.5 48 q4.5 20 10.5 48 q9 45 37 82 q28 37 68.5 64 q40.5 27 91 41.5 q50.5 14.5 104.5 14.5 q43 0 84 -12.5 q41 -12.5 76.5 -35 q35.5 -22.5 64.5 -53.5 q29 -31 49 -68 l101 0 l54 110 l136 0 q-2 -20 -5 -38 q-2 -16 -5.5 -31.5 q-3.5 -15.5 -5.5 -26.5 q-11 -46 -39.5 -83.5 q-28.5 -37.5 -69 -64 q-40.5 -26.5 -90 -40.5 q-49.5 -14 -103.5 -14 q-46 0 -88.5 12.5 q-42.5 12.5 -79.5 35 q-37 22.5 -66.5 53.5 q-29.5 31 -49.5 68 l-92 0 l-55 -110 l-136 0 l0 0 Z" /><glyph glyph-name="asciitilde" unicode="~" d="M128 519 q13 46 45 85.5 q32 39.5 77 68 q45 28.5 100.5 44.5 q55.5 16 117.5 16 q49 0 95 -13.5 q46 -13.5 86.5 -37 q40.5 -23.5 73.5 -56.5 q33 -33 55 -72 l157 0 l68 116 l144 0 l-27 -102 q-13 -48 -45 -88 q-32 -40 -77.5 -68 q-45.5 -28 -101.5 -43 q-56 -15 -116 -15 q-52 0 -100 13.5 q-48 13.5 -90 37 q-42 23.5 -75.5 56.5 q-33.5 33 -56.5 72 l-147 0 l-69 -116 l-144 0 l30 102 Z" /><glyph glyph-name="dieresis" unicode="¨" d="M851 1289 q-36 0 -67 12 q-31 12 -53 34.5 q-22 22.5 -34.5 53 q-12.5 30.5 -12.5 68.5 q0 37 12.5 68.5 q12.5 31.5 34.5 55 q22 23.5 53 36.5 q31 13 67 13 q34 0 64.5 -13 q30.5 -13 53 -36.5 q22.5 -23.5 35.5 -55 q13 -31.5 13 -68.5 q0 -38 -13 -68.5 q-13 -30.5 -35.5 -53 q-22.5 -22.5 -53 -34.5 q-30.5 -12 -64.5 -12 ZM317 1289 q-36 0 -67 12 q-31 12 -53 34.5 q-22 22.5 -34.5 53 q-12.5 30.5 -12.5 68.5 q0 37 12.5 68.5 q12.5 31.5 34.5 55 q22 23.5 53 36.5 q31 13 67 13 q34 0 64.5 -13 q30.5 -13 53 -36.5 q22.5 -23.5 35.5 -55 q13 -31.5 13 -68.5 q0 -38 -13 -68.5 q-13 -30.5 -35.5 -53 q-22.5 -22.5 -53 -34.5 q-30.5 -12 -64.5 -12 Z" /><glyph glyph-name="cedilla" unicode="¸" d="M508 0 l0 -96 l127 0 q34 0 63.5 -16.5 q29.5 -16.5 52 -44.5 q22.5 -28 35.5 -65.5 q13 -37.5 13 -80.5 q0 -42 -13 -79.5 q-13 -37.5 -35.5 -65 q-22.5 -27.5 -52 -44 q-29.5 -16.5 -63.5 -16.5 l-485 0 q4 35 19 66 q15 31 38.5 54 q23.5 23 54 36.5 q30.5 13.5 63.5 13.5 l269 0 l0 116 l-206 0 l0 222 l120 0 Z" /><glyph glyph-name="circumflex" unicode="&#x2c6;" d="M230 1245 q-22 31 -40.5 54 q-18.5 23 -39.5 52 l265 253 q41 38 79.5 56 q38.5 18 77.5 18 q35 0 74.5 -17.5 q39.5 -17.5 80.5 -56.5 l265 -253 q-12 -16 -22.5 -28.5 q-10.5 -12.5 -20 -24.5 q-9.5 -12 -19.5 -24.5 q-10 -12.5 -22 -28.5 l-336 192 q-84 -46 -170.5 -95 q-86.5 -49 -171.5 -97 Z" /><glyph glyph-name="macron" unicode="¯" d="M150 1359 q4 35 19 66 q15 31 38.5 54.5 q23.5 23.5 54 37 q30.5 13.5 63.5 13.5 l727 0 q-3 -35 -18.5 -66.5 q-15.5 -31.5 -38.5 -54.5 q-23 -23 -53.5 -36.5 q-30.5 -13.5 -63.5 -13.5 l-728 0 l0 0 Z" /><glyph glyph-name="ring" unicode="&#x2da;" d="M438 1207 q-60 0 -112.5 22.5 q-52.5 22.5 -91.5 62 q-39 39.5 -61.5 92 q-22.5 52.5 -22.5 112.5 q0 59 22.5 111.5 q22.5 52.5 61.5 91.5 q39 39 91.5 62 q52.5 23 112.5 23 q60 0 112.5 -23 q52.5 -23 92 -62 q39.5 -39 62 -91.5 q22.5 -52.5 22.5 -111.5 q0 -60 -22.5 -112.5 q-22.5 -52.5 -62 -92 q-39.5 -39.5 -92 -62 q-52.5 -22.5 -112.5 -22.5 ZM438 1361 q28 0 52.5 10.5 q24.5 10.5 42.5 29 q18 18.5 28.5 43 q10.5 24.5 10.5 52.5 q0 27 -10.5 51.5 q-10.5 24.5 -28.5 43.5 q-18 19 -42.5 30 q-24.5 11 -52.5 11 q-28 0 -52 -11 q-24 -11 -42 -30 q-18 -19 -28.5 -43.5 q-10.5 -24.5 -10.5 -51.5 q0 -28 10.5 -52.5 q10.5 -24.5 28.5 -43 q18 -18.5 42 -29 q24 -10.5 52 -10.5 Z" /><glyph glyph-name="commaaccent" unicode="&#xf6c3;" d="M150 -256 q0 35 13 66 q13 31 35.5 53.5 q22.5 22.5 53.5 35.5 q31 13 67 13 q35 0 65.5 -13 q30.5 -13 53.5 -35.5 q23 -22.5 36.5 -53.5 q13.5 -31 13.5 -66 q0 -44 -16.5 -84.5 q-16.5 -40.5 -46 -82.5 q-29.5 -42 -69.5 -86.5 q-40 -44.5 -88 -95.5 l-94 45 l68 179 q-42 19 -67 51 q-25 32 -25 74 Z" /><glyph glyph-name="comma" unicode="," d="M219 157 q0 35 13 66 q13 31 35.5 54 q22.5 23 53.5 36 q31 13 67 13 q35 0 65.5 -13 q30.5 -13 53.5 -36 q23 -23 36.5 -54 q13.5 -31 13.5 -66 q0 -44 -9.5 -82 q-9.5 -38 -27.5 -74 q-18 -36 -43.5 -72.5 q-25.5 -36.5 -58.5 -76.5 l-114 -143 l-94 45 l91 258 q-37 22 -59.5 59.5 q-22.5 37.5 -22.5 85.5 Z" /><glyph glyph-name="quotedblright" unicode="&#x201d;" d="M726 1201 q-37 22 -59.5 59.5 q-22.5 37.5 -22.5 85.5 q0 35 13 66 q13 31 35.5 54 q22.5 23 53.5 36 q31 13 67 13 q35 0 65.5 -13 q30.5 -13 53.5 -36 q23 -23 36.5 -54 q13.5 -31 13.5 -66 q0 -44 -9.5 -81.5 q-9.5 -37.5 -27.5 -74 q-18 -36.5 -44 -73 q-26 -36.5 -58 -76.5 l-114 -143 l-94 45 l91 258 ZM120 943 l91 258 q-37 22 -59.5 59.5 q-22.5 37.5 -22.5 85.5 q0 35 13 66 q13 31 35.5 54 q22.5 23 53.5 36 q31 13 67 13 q35 0 65.5 -13 q30.5 -13 53.5 -36 q23 -23 36.5 -54 q13.5 -31 13.5 -66 q0 -44 -9.5 -81.5 q-9.5 -37.5 -27.5 -74 q-18 -36.5 -44 -73 q-26 -36.5 -58 -76.5 l-114 -143 l-94 45 Z" /><glyph glyph-name="quotedblleft" unicode="&#x201c;" d="M774 898 q-35 0 -65.5 13 q-30.5 13 -53.5 36 q-23 23 -36.5 54 q-13.5 31 -13.5 66 q0 43 9.5 81 q9.5 38 27.5 74.5 q18 36.5 44 72.5 q26 36 58 77 l114 143 l94 -45 l-91 -258 q37 -22 59.5 -59.5 q22.5 -37.5 22.5 -85.5 q0 -35 -13 -66 q-13 -31 -35.5 -54 q-22.5 -23 -53.5 -36 q-31 -13 -67 -13 ZM259 898 q-35 0 -65.5 13 q-30.5 13 -53.5 36 q-23 23 -36.5 54 q-13.5 31 -13.5 66 q0 43 9.5 81 q9.5 38 27.5 74.5 q18 36.5 44 72.5 q26 36 58 77 l114 143 l94 -45 l-91 -258 q37 -22 59.5 -59.5 q22.5 -37.5 22.5 -85.5 q0 -35 -13 -66 q-13 -31 -35.5 -54 q-22.5 -23 -53.5 -36 q-31 -13 -67 -13 Z" /><glyph glyph-name="guilsinglleft" unicode="&#x2039;" d="M159 393 q-25 28 -42 61 q-17 33 -17 75 q0 40 17 73 q17 33 42 62 l316 365 l159 0 l-246 -499 l246 -499 l-159 0 l-316 362 l0 0 Z" /><glyph glyph-name="guilsinglright" unicode="&#x203a;" d="M376 530 l-246 499 l159 0 l316 -365 q25 -29 42 -62 q17 -33 17 -73 q0 -42 -17 -75 q-17 -33 -42 -61 l-316 -362 l-159 0 l246 499 Z" /><glyph glyph-name="guillemotleft" unicode="«" d="M706 393 q-25 28 -42 61 q-17 33 -17 75 q0 40 17 73 q17 33 42 62 l316 365 l159 0 l-246 -499 l246 -499 l-159 0 l-316 362 ZM159 393 q-25 28 -42 61 q-17 33 -17 75 q0 40 17 73 q17 33 42 62 l316 365 l159 0 l-246 -499 l246 -499 l-159 0 l-316 362 Z" /><glyph glyph-name="guillemotright" unicode="»" d="M923 530 l-246 499 l159 0 l316 -365 q25 -29 42 -62 q17 -33 17 -73 q0 -42 -17 -75 q-17 -33 -42 -61 l-316 -362 l-159 0 l246 499 ZM376 530 l-246 499 l159 0 l316 -365 q25 -29 42 -62 q17 -33 17 -73 q0 -42 -17 -75 q-17 -33 -42 -61 l-316 -362 l-159 0 l246 499 Z" /><glyph glyph-name="numbersign" unicode="#" d="M300 290 l-226 0 q4 49 7.5 88.5 q3.5 39.5 7.5 86.5 l225 0 l27 299 l-225 0 q4 49 8.5 88.5 q4.5 39.5 9.5 87.5 l220 0 l27 290 l150 0 l-23 -290 l326 0 q3 30 5.5 67.5 q2.5 37.5 5.5 77 q3 39.5 6 77.5 q3 38 6 68 l153 0 l-23 -290 l224 0 q-2 -25 -4 -46.5 q-2 -21.5 -3.5 -42.5 q-1.5 -21 -3.5 -42 q-2 -21 -4 -45 l-225 0 l-26 -299 l226 0 l-17 -175 l-227 0 q-3 -30 -6 -67.5 q-3 -37.5 -6 -77 q-3 -39.5 -5.5 -77.5 q-2.5 -38 -5.5 -68 l-151 0 l23 290 l-325 0 l-26 -290 l-153 0 l28 290 ZM792 465 l24 299 l-325 0 l-23 -299 l324 0 Z" /><glyph glyph-name="sterling" unicode="£" d="M195 0 q3 34 18.5 65.5 q15.5 31.5 39 54.5 q23.5 23 53.5 37 q30 14 64 14 l88 0 l0 366 l-236 0 q3 34 18.5 65.5 q15.5 31.5 39 54.5 q23.5 23 53.5 37 q30 14 64 14 l61 0 l0 383 q0 53 15 99.5 q15 46.5 40.5 81 q25.5 34.5 60 54 q34.5 19.5 73.5 19.5 l337 0 q39 0 73.5 -19.5 q34.5 -19.5 60 -54 q25.5 -34.5 40.5 -81 q15 -46.5 15 -99.5 l0 -91 l-238 0 l0 186 l-239 0 l0 -478 l413 0 q0 -36 -15 -67 q-15 -31 -39.5 -54.5 q-24.5 -23.5 -56 -36.5 q-31.5 -13 -64.5 -13 l-238 0 l0 -121 q0 -52 -14.5 -95 q-14.5 -43 -36 -75 q-21.5 -32 -47.5 -51.5 q-26 -19.5 -49 -23.5 l767 0 q0 -36 -15 -67 q-15 -31 -39.5 -54.5 q-24.5 -23.5 -56 -36.5 q-31.5 -13 -64.5 -13 l-946 0 l0 0 Z" /><glyph glyph-name="Euro" unicode="&#x20ac;" d="M341 404 l-197 0 q3 34 18.5 65.5 q15.5 31.5 39 54.5 q23.5 23 53.5 37 q30 14 64 14 l22 0 l0 146 l-197 0 q3 34 18.5 65.5 q15.5 31.5 39 54.5 q23.5 23 53.5 37 q30 14 64 14 l22 0 l0 199 q0 53 15 99.5 q15 46.5 40.5 81 q25.5 34.5 59.5 54 q34 19.5 73 19.5 l620 0 q39 0 74 -19.5 q35 -19.5 61 -54 q26 -34.5 41 -81 q15 -46.5 15 -99.5 l-1 -111 l-238 0 l0 196 l-521 0 l0 -284 l423 0 q0 -36 -15 -67 q-15 -31 -39.5 -54.5 q-24.5 -23.5 -56 -36.5 q-31.5 -13 -64.5 -13 l-248 0 l0 -146 l391 0 q0 -36 -21 -67 q-21 -31 -53.5 -54.5 q-32.5 -23.5 -70 -36.5 q-37.5 -13 -70.5 -13 l-176 0 l0 -233 l521 0 l0 106 l238 0 l0 -25 q0 -52 -15 -98 q-15 -46 -41 -80 q-26 -34 -60.5 -54 q-34.5 -20 -73.5 -20 l-620 0 q-39 0 -73 20 q-34 20 -59.5 54 q-25.5 34 -40.5 80 q-15 46 -15 98 l0 152 Z" /><glyph glyph-name="yen" unicode="¥" d="M246 294 q3 34 18.5 65.5 q15.5 31.5 39 54.5 q23.5 23 53.5 37 q30 14 64 14 l190 0 l0 205 l-365 0 q3 34 18.5 65.5 q15.5 31.5 39 54.5 q23.5 23 53.5 37 q30 14 64 14 l104 0 l-333 509 l255 0 l286 -452 l284 452 l256 0 l-335 -509 l297 0 q0 -36 -15 -67 q-15 -31 -39.5 -54.5 q-24.5 -23.5 -56 -36.5 q-31.5 -13 -64.5 -13 l-210 0 l0 -205 l385 0 q0 -36 -15 -67 q-15 -31 -39.5 -54.5 q-24.5 -23.5 -56 -36.5 q-31.5 -13 -64.5 -13 l-210 0 l0 -294 l-239 0 l0 294 l-365 0 l0 0 Z" /><glyph glyph-name="dollar" unicode="$" d="M273 357 l239 0 l0 -186 l147 0 l0 439 l-254 127 q-60 30 -96 91 q-36 61 -36 152 l0 112 q0 53 14.5 99.5 q14.5 46.5 40 81 q25.5 34.5 59.5 54 q34 19.5 73 19.5 l200 0 l0 219 l156 0 l0 -219 l187 0 q39 0 73 -19.5 q34 -19.5 59.5 -54 q25.5 -34.5 40.5 -81 q15 -46.5 15 -99.5 l0 -103 l-239 0 l0 186 l-136 0 l0 -426 l243 -121 q60 -30 96 -91 q36 -61 36 -152 l0 -131 q0 -53 -14.5 -99.5 q-14.5 -46.5 -40 -81 q-25.5 -34.5 -59.5 -54 q-34 -19.5 -73 -19.5 l-188 0 l0 -217 l-157 0 l0 217 l-198 0 q-39 0 -73 19.5 q-34 19.5 -59.5 54 q-25.5 34.5 -40.5 81 q-15 46.5 -15 99.5 l0 103 ZM660 827 l0 348 l-148 0 l0 -272 l148 -76 ZM952 171 l0 291 l-136 69 l0 -360 l136 0 Z" /><glyph glyph-name="at" unicode="@" d="M243 1221 q0 51 18 96 q18 45 48.5 78.5 q30.5 33.5 71 52.5 q40.5 19 86.5 19 l1458 0 q47 0 88 -19 q41 -19 72 -52.5 q31 -33.5 48.5 -78.5 q17.5 -45 17.5 -96 l0 -969 q0 -57 -19 -103.5 q-19 -46.5 -50.5 -79.5 q-31.5 -33 -71.5 -51 q-40 -18 -81 -18 l-414 0 q-49 0 -93 33.5 q-44 33.5 -73 90.5 q-29 -57 -73 -90.5 q-44 -33.5 -93 -33.5 l-273 0 q-39 0 -74 20 q-35 20 -60.5 54 q-25.5 34 -40.5 79.5 q-15 45.5 -15 97.5 l0 513 q0 60 16.5 112 q16.5 52 45.5 90 q29 38 68.5 59.5 q39.5 21.5 85.5 21.5 l644 0 l0 -876 l377 0 l0 1152 l-1522 0 l0 -1617 l1280 0 q-13 -33 -34.5 -60 q-21.5 -27 -49 -46.5 q-27.5 -19.5 -59.5 -30 q-32 -10.5 -67 -10.5 l-1038 0 q-46 0 -86.5 19.5 q-40.5 19.5 -71 53 q-30.5 33.5 -48.5 78.5 q-18 45 -18 96 l0 1415 ZM1342 171 l0 705 l-384 0 l0 -705 l384 0 Z" /><glyph glyph-name="ae" unicode="æ" d="M192 765 q0 60 16.5 112 q16.5 52 46 90 q29.5 38 69 59.5 q39.5 21.5 85.5 21.5 l516 0 l76 -172 q12 31 34 61.5 q22 30.5 49.5 55 q27.5 24.5 58 39.5 q30.5 15 58.5 15 l425 0 q39 0 73.5 -20 q34.5 -20 60.5 -54.5 q26 -34.5 41 -80.5 q15 -46 15 -99 l0 -333 l-702 0 l0 -289 l754 0 q-4 -35 -19.5 -66.5 q-15.5 -31.5 -39 -54.5 q-23.5 -23 -53.5 -36.5 q-30 -13.5 -63 -13.5 l-628 0 q-39 0 -73.5 19.5 q-34.5 19.5 -60.5 53.5 q-26 34 -41 80 q-15 46 -15 98 l-252 -218 q-38 -33 -88 -33 l-145 0 q-40 0 -76 20 q-36 20 -63 54 q-27 34 -43 80 q-16 46 -16 98 l0 513 ZM1577 600 l0 276 l-463 0 l0 -276 l463 0 ZM525 172 l350 281 l0 423 l-443 0 l0 -704 l93 0 Z" /><glyph glyph-name="quotesingle" unicode="&#39;" d="M49 1321 q-2 9 -3.5 22 q-1.5 13 -1.5 26 q0 30 10.5 57 q10.5 27 29.5 46.5 q19 19.5 44.5 31 q25.5 11.5 54.5 11.5 q30 0 56 -11.5 q26 -11.5 45.5 -31.5 q19.5 -20 30.5 -46 q11 -26 11 -56 q0 -13 -1 -26 q-1 -13 -3 -25 l-88 -497 l-100 0 l-85 499 Z" /><glyph glyph-name="exclam" unicode="!" d="M228 1282 q-2 14 -4 33.5 q-2 19.5 -2 38.5 q0 39 12.5 73.5 q12.5 34.5 34 60 q21.5 25.5 50.5 40.5 q29 15 63 15 q34 0 64 -14.5 q30 -14.5 52.5 -40 q22.5 -25.5 35 -59.5 q12.5 -34 12.5 -73 q0 -20 -1.5 -39.5 q-1.5 -19.5 -3.5 -37.5 l-101 -774 l-115 0 l-97 777 ZM219 157 q0 35 13 65.5 q13 30.5 36 53.5 q23 23 53.5 36.5 q30.5 13.5 65.5 13.5 q35 0 65.5 -13.5 q30.5 -13.5 53.5 -36.5 q23 -23 36.5 -53.5 q13.5 -30.5 13.5 -65.5 q0 -35 -13.5 -65.5 q-13.5 -30.5 -36.5 -53.5 q-23 -23 -54 -36 q-31 -13 -65 -13 q-35 0 -65.5 13 q-30.5 13 -53.5 36 q-23 23 -36 53.5 q-13 30.5 -13 65.5 Z" /><glyph glyph-name="question" unicode="?" d="M403 645 q0 39 7.5 75 q7.5 36 21.5 66.5 q14 30.5 34 53.5 q20 23 45 36 l250 127 l0 341 l-410 0 l0 -213 l-239 0 l0 131 q0 53 15 99 q15 46 40.5 80.5 q25.5 34.5 60 54.5 q34.5 20 74.5 20 l508 0 q39 0 74 -20 q35 -20 60.5 -54.5 q25.5 -34.5 40.5 -80.5 q15 -46 15 -99 l0 -208 q0 -38 -8.5 -75 q-8.5 -37 -24 -68 q-15.5 -31 -37 -55 q-21.5 -24 -46.5 -37 l-243 -124 l0 -174 l-238 0 l0 124 ZM355 157 q0 35 13 65.5 q13 30.5 36 53.5 q23 23 53.5 36.5 q30.5 13.5 65.5 13.5 q35 0 65.5 -13.5 q30.5 -13.5 53.5 -36.5 q23 -23 36.5 -53.5 q13.5 -30.5 13.5 -65.5 q0 -35 -13.5 -65.5 q-13.5 -30.5 -36.5 -53.5 q-23 -23 -54 -36 q-31 -13 -65 -13 q-35 0 -65.5 13 q-30.5 13 -53.5 36 q-23 23 -36 53.5 q-13 30.5 -13 65.5 Z" /><glyph glyph-name="slash" unicode="/" d="M150 -176 q94 246 187.5 488.5 q93.5 242.5 186 484.5 q92.5 242 185.5 484.5 q93 242.5 188 487.5 l171 0 l-747 -1945 l-171 0 l0 0 Z" /><glyph glyph-name="dotlessj" unicode="&#x237;" d="M192 -368 l0 1415 l239 0 l0 -1332 q0 -53 -15 -99.5 q-15 -46.5 -40.5 -81 q-25.5 -34.5 -60 -55 q-34.5 -20.5 -73.5 -20.5 l-196 0 l0 173 l146 0 Z" /><glyph glyph-name="dotlessi" unicode="&#x131;" d="M180 1047 l239 0 l0 -876 l214 0 q-3 -35 -18.5 -66.5 q-15.5 -31.5 -39 -54.5 q-23.5 -23 -53.5 -36.5 q-30 -13.5 -63 -13.5 l-88 0 q-39 0 -74 20 q-35 20 -61 54.5 q-26 34.5 -41 80.5 q-15 46 -15 99 l0 793 Z" /><glyph glyph-name="less" unicode="&lt;" d="M179 615 l836 268 l0 -182 l-648 -178 l648 -181 l0 -181 l-836 268 l0 186 Z" /><glyph glyph-name="greater" unicode="&gt;" d="M270 342 l648 181 l-648 178 l0 182 l836 -268 l0 -186 l-836 -268 l0 181 Z" /><glyph glyph-name="plus" unicode="+" d="M251 608 l349 0 l0 358 l177 0 l0 -358 l348 0 l0 -176 l-348 0 l0 -361 l-177 0 l0 361 l-349 0 l0 176 Z" /><glyph glyph-name="plusminus" unicode="±" d="M250 819 l349 0 l0 298 l177 0 l0 -298 l348 0 l0 -176 l-348 0 l0 -288 l-177 0 l0 288 l-349 0 l0 176 ZM250 211 l874 0 l0 -176 l-874 0 l0 176 Z" /><glyph glyph-name="hyphen" unicode="-" d="M200 533 q3 35 18.5 68.5 q15.5 33.5 39 59.5 q23.5 26 53.5 42 q30 16 64 16 l679 0 q-4 -35 -19.5 -68.5 q-15.5 -33.5 -39 -59.5 q-23.5 -26 -53.5 -42 q-30 -16 -63 -16 l-679 0 l0 0 Z" /><glyph glyph-name="equal" unicode="=" d="M250 859 l874 0 l0 -176 l-874 0 l0 176 ZM250 356 l874 0 l0 -175 l-874 0 l0 175 Z" /><glyph glyph-name="multiply" unicode="×" d="M551 522 l-297 296 l129 129 l294 -299 l295 297 q18 -18 33.5 -33.5 q15.5 -15.5 30.5 -30 q15 -14.5 30 -29 q15 -14.5 32 -32.5 l-297 -295 q72 -72 149 -148.5 q77 -76.5 151 -148.5 l-129 -132 l-297 299 l-296 -299 l-129 131 l301 295 Z" /><glyph glyph-name="divide" unicode="÷" d="M686 762 q-29 0 -53.5 11 q-24.5 11 -42 30.5 q-17.5 19.5 -27.5 46 q-10 26.5 -10 56.5 q0 30 10 56.5 q10 26.5 27.5 46 q17.5 19.5 42 30.5 q24.5 11 53.5 11 q27 0 52 -11 q25 -11 43.5 -30.5 q18.5 -19.5 29.5 -46 q11 -26.5 11 -56.5 q0 -30 -11 -56.5 q-11 -26.5 -29.5 -46 q-18.5 -19.5 -43.5 -30.5 q-25 -11 -52 -11 ZM250 607 l874 0 l0 -176 l-874 0 l0 176 ZM553 129 q0 31 10 57.5 q10 26.5 27.5 46 q17.5 19.5 42 31 q24.5 11.5 53.5 11.5 q27 0 52 -11.5 q25 -11.5 43.5 -31 q18.5 -19.5 29.5 -46 q11 -26.5 11 -57.5 q0 -31 -11 -57 q-11 -26 -29.5 -45 q-18.5 -19 -43.5 -30 q-25 -11 -52 -11 q-29 0 -53.5 11 q-24.5 11 -42 30 q-17.5 19 -27.5 45 q-10 26 -10 57 Z" /><glyph glyph-name="logicalnot" unicode="¬" d="M130 868 l1001 0 l0 -575 l-177 0 l0 399 l-824 0 l0 176 Z" /><glyph glyph-name="endash" unicode="&#x2013;" d="M200 533 q3 35 18.5 68.5 q15.5 33.5 39 59.5 q23.5 26 53.5 42 q30 16 64 16 l1029 0 q-4 -35 -19.5 -68.5 q-15.5 -33.5 -39 -59.5 q-23.5 -26 -53.5 -42 q-30 -16 -63 -16 l-1029 0 l0 0 Z" /><glyph glyph-name="emdash" unicode="&#x2014;" d="M200 533 q3 35 18.5 68.5 q15.5 33.5 39 59.5 q23.5 26 53.5 42 q30 16 64 16 l1520 0 q-4 -35 -19.5 -68.5 q-15.5 -33.5 -39 -59.5 q-23.5 -26 -53.5 -42 q-30 -16 -63 -16 l-1520 0 l0 0 Z" /><glyph glyph-name="caron" unicode="&#x2c7;" d="M570 1317 q-35 0 -74.5 17.5 q-39.5 17.5 -80.5 56.5 l-265 253 q12 16 22.5 28.5 q10.5 12.5 20 24.5 q9.5 12 19.5 24.5 q10 12.5 22 28.5 l336 -192 q84 46 170.5 95 q86.5 49 171.5 97 q22 -31 40.5 -54 q18.5 -23 39.5 -52 l-265 -253 q-41 -38 -79.5 -56 q-38.5 -18 -77.5 -18 Z" /><glyph glyph-name="thorn" unicode="þ" d="M431 -285 q0 -53 -14.5 -99.5 q-14.5 -46.5 -40 -81 q-25.5 -34.5 -59.5 -55 q-34 -20.5 -73 -20.5 l-52 0 l0 2132 l239 0 l0 -544 l473 0 q39 0 73 -20 q34 -20 60 -54.5 q26 -34.5 41 -80.5 q15 -46 15 -99 l0 -622 l211 0 q-4 -35 -19.5 -66.5 q-15.5 -31.5 -39 -54.5 q-23.5 -23 -53.5 -36.5 q-30 -13.5 -63 -13.5 l-538 0 q-48 0 -90 30.5 q-42 30.5 -71 81.5 l1 -397 ZM854 171 l0 705 l-424 0 l0 -705 l424 0 Z" /><glyph glyph-name="fraction" unicode="&#x2044;" d="M700 1311 l172 0 l-526 -1370 l-171 0 l525 1370 Z" /><glyph glyph-name="onequarter" unicode="¼" d="M1015 1311 l172 0 l-526 -1370 l-171 0 l525 1370 ZM265 1151 l-132 0 l0 98 l343 0 l0 -795 l-211 0 l0 697 ZM1074 244 l210 553 l209 0 l-218 -559 l276 0 l0 389 l203 0 l0 -389 l83 0 l0 -106 l-83 0 l0 -133 l-203 0 l0 133 l-477 0 l0 112 Z" /><glyph glyph-name="onehalf" unicode="½" d="M489 -59 q133 347 263 685.5 q130 338.5 263 684.5 l171 0 l-526 -1370 l-171 0 ZM264 1151 l-132 0 l0 98 l344 0 l0 -795 l-212 0 l0 697 ZM1203 207 q0 51 21.5 90.5 q21.5 39.5 57.5 53.5 l441 170 l0 166 l-298 0 l0 -121 l-222 0 l0 71 q0 33 11.5 62 q11.5 29 31.5 50.5 q20 21.5 47 34 q27 12.5 58 12.5 l445 0 q31 0 58 -12.5 q27 -12.5 47 -34 q20 -21.5 32 -50.5 q12 -29 12 -62 l0 -100 q0 -51 -25 -90 q-25 -39 -64 -55 l-431 -169 l0 -115 l520 0 l0 -108 l-742 0 l0 207 Z" /><glyph glyph-name="threequarters" unicode="¾" d="M1275 1311 l172 0 l-525 -1370 l-171 0 l524 1370 ZM281 454 q-31 0 -58 12.5 q-27 12.5 -47 34.5 q-20 22 -31.5 51 q-11.5 29 -11.5 62 l0 47 l211 0 l0 -97 l297 0 l0 243 l-223 0 l0 108 l223 0 l0 226 l-297 0 l0 -97 l-211 0 l0 47 q0 33 11.5 62 q11.5 29 31.5 50.5 q20 21.5 47 34 q27 12.5 58 12.5 l423 -1 q31 0 58 -12.5 q27 -12.5 47 -34 q20 -21.5 32 -50.5 q12 -29 12 -62 l0 -64 q0 -52 -36.5 -96 q-36.5 -44 -94.5 -67 q58 -22 94.5 -65.5 q36.5 -43.5 36.5 -95.5 l0 -88 q0 -33 -12 -62 q-12 -29 -32 -51 q-20 -22 -47 -34.5 q-27 -12.5 -58 -12.5 l-423 0 ZM1334 245 l210 553 l209 0 l-218 -559 l276 0 l0 389 l203 0 l0 -389 l83 0 l0 -106 l-83 0 l0 -133 l-203 0 l0 133 l-477 0 l0 112 Z" /><glyph glyph-name="percent" unicode="%" d="M1285 1311 l177 0 l-806 -1370 l-178 0 l807 1370 ZM329 615 q-31 0 -58 12.5 q-27 12.5 -47.5 34 q-20.5 21.5 -32 50.5 q-11.5 29 -11.5 62 l0 305 q0 33 11.5 62 q11.5 29 31.5 50.5 q20 21.5 47 34 q27 12.5 58 12.5 l362 -1 q31 0 58 -12.5 q27 -12.5 47 -34 q20 -21.5 32 -50.5 q12 -29 12 -62 l0 -305 q0 -33 -11.5 -62 q-11.5 -29 -31.5 -50.5 q-20 -21.5 -47 -34 q-27 -12.5 -58 -12.5 l-362 1 ZM628 723 l0 406 l-236 0 l0 -406 l236 0 ZM1096 464 q0 33 11.5 62 q11.5 29 31.5 50.5 q20 21.5 47 34 q27 12.5 58 12.5 l362 -1 q31 0 58 -12.5 q27 -12.5 47 -34 q20 -21.5 32 -50.5 q12 -29 12 -62 l0 -305 q0 -33 -11.5 -62 q-11.5 -29 -31.5 -50.5 q-20 -21.5 -47 -34 q-27 -12.5 -58 -12.5 l-362 1 q-31 0 -58 12.5 q-27 12.5 -47.5 34 q-20.5 21.5 -32 50.5 q-11.5 29 -11.5 62 l0 305 ZM1544 108 l0 406 l-236 0 l0 -406 l236 0 Z" /><glyph glyph-name="ordfeminine" unicode="ª" d="M320 492 q-27 0 -50.5 13.5 q-23.5 13.5 -41.5 36.5 q-18 23 -28 54.5 q-10 31.5 -10 66.5 l0 350 q0 41 11.5 76.5 q11.5 35.5 31 61.5 q19.5 26 46.5 40.5 q27 14.5 58 14.5 l550 0 l0 -597 l158 0 q-3 -24 -13.5 -45.5 q-10.5 -21.5 -26.5 -37.5 q-16 -16 -36.5 -25 q-20.5 -9 -42.5 -9 l-123 0 q-34 0 -64 23 q-30 23 -50 61 q-19 -38 -49 -61 q-30 -23 -64 -23 l-256 0 ZM685 609 l0 480 l-293 0 l0 -480 l293 0 ZM428 175 q0 25 9.5 47.5 q9.5 22.5 26.5 39.5 q17 17 39 26.5 q22 9.5 48 9.5 q25 0 47.5 -9.5 q22.5 -9.5 39.5 -26.5 q17 -17 26.5 -39.5 q9.5 -22.5 9.5 -47.5 q0 -26 -10 -48 q-10 -22 -26.5 -39 q-16.5 -17 -39 -26.5 q-22.5 -9.5 -47.5 -9.5 q-26 0 -48 9.5 q-22 9.5 -39 26.5 q-17 17 -26.5 39 q-9.5 22 -9.5 48 Z" /><glyph glyph-name="ordmasculine" unicode="º" d="M320 492 q-27 0 -50.5 13.5 q-23.5 13.5 -41.5 36.5 q-18 23 -28 54.5 q-10 31.5 -10 66.5 l0 350 q0 41 11.5 76.5 q11.5 35.5 31 61.5 q19.5 26 46.5 40.5 q27 14.5 58 14.5 l420 0 q27 0 50.5 -13.5 q23.5 -13.5 41.5 -37 q18 -23.5 28 -54.5 q10 -31 10 -66 l0 -350 q0 -41 -11.5 -76.5 q-11.5 -35.5 -31 -61.5 q-19.5 -26 -46.5 -40.5 q-27 -14.5 -58 -14.5 l-420 0 ZM685 609 l0 480 l-293 0 l0 -480 l293 0 ZM428 175 q0 25 9.5 47.5 q9.5 22.5 26.5 39.5 q17 17 39 26.5 q22 9.5 48 9.5 q25 0 47.5 -9.5 q22.5 -9.5 39.5 -26.5 q17 -17 26.5 -39.5 q9.5 -22.5 9.5 -47.5 q0 -26 -10 -48 q-10 -22 -26.5 -39 q-16.5 -17 -39 -26.5 q-22.5 -9.5 -47.5 -9.5 q-26 0 -48 9.5 q-22 9.5 -39 26.5 q-17 17 -26.5 39 q-9.5 22 -9.5 48 Z" /><glyph glyph-name="degree" unicode="°" d="M475 557 q-74 0 -138.5 28 q-64.5 28 -112.5 76.5 q-48 48.5 -76 113.5 q-28 65 -28 139 q0 74 28 138.5 q28 64.5 76 112.5 q48 48 112.5 76 q64.5 28 138.5 28 q73 0 138 -28 q65 -28 113 -76 q48 -48 76 -112.5 q28 -64.5 28 -138.5 q0 -74 -28 -139 q-28 -65 -76 -113.5 q-48 -48.5 -113 -76.5 q-65 -28 -138 -28 ZM475 724 q37 0 72 15 q35 15 61 40.5 q26 25.5 42 60.5 q16 35 16 74 q0 39 -16 73 q-16 34 -42 60 q-26 26 -61 41 q-35 15 -72 15 q-39 0 -74 -15 q-35 -15 -60.5 -41 q-25.5 -26 -40.5 -60 q-15 -34 -15 -73 q0 -39 15 -74 q15 -35 40.5 -60.5 q25.5 -25.5 60.5 -40.5 q35 -15 74 -15 Z" /><glyph glyph-name="asterisk" unicode="*" d="M420 592 q-27 0 -49.5 11.5 q-22.5 11.5 -38.5 30 q-16 18.5 -24.5 40.5 q-8.5 22 -8.5 43 q0 32 14.5 62 q14.5 30 42.5 54 l179 154 l-240 23 q-25 3 -49 13.5 q-24 10.5 -43 27 q-19 16.5 -30.5 39 q-11.5 22.5 -11.5 48.5 q0 32 11.5 56 q11.5 24 29.5 40.5 q18 16.5 40.5 25 q22.5 8.5 45.5 8.5 q22 0 42.5 -7 q20.5 -7 41.5 -19 l194 -116 l-49 223 q-4 15 -4 35 q0 25 8 50 q8 25 24 45 q16 20 39.5 32 q23.5 12 53.5 12 q30 0 54.5 -11.5 q24.5 -11.5 41 -30 q16.5 -18.5 25.5 -43.5 q9 -25 9 -52 q0 -17 -5 -39 l-54 -226 l205 120 q19 11 40 17.5 q21 6.5 43 5.5 q22 0 44.5 -7.5 q22.5 -7.5 40.5 -23 q18 -15.5 29.5 -39.5 q11.5 -24 11.5 -57 q0 -26 -10.5 -49 q-10.5 -23 -29 -40 q-18.5 -17 -43 -28 q-24.5 -11 -52.5 -13 l-233 -19 l178 -156 q25 -22 40 -54 q15 -32 15 -64 q0 -21 -9 -43 q-9 -22 -25.5 -39 q-16.5 -17 -39 -28 q-22.5 -11 -49.5 -11 q-42 0 -77.5 26 q-35.5 26 -53.5 69 l-89 213 l-94 -216 q-8 -19 -21.5 -36 q-13.5 -17 -31 -30 q-17.5 -13 -37.5 -20 q-20 -7 -41 -7 Z" /><glyph glyph-name="copyright" unicode="©" d="M250 1282 q0 49 17 91.5 q17 42.5 46 74 q29 31.5 67.5 50 q38.5 18.5 82.5 18.5 l1126 0 q43 0 82 -18.5 q39 -18.5 68 -50 q29 -31.5 46 -74 q17 -42.5 17 -91.5 l0 -1047 q0 -48 -17 -91 q-17 -43 -46 -75 q-29 -32 -68 -50.5 q-39 -18.5 -82 -18.5 l-1126 0 q-44 0 -82.5 18.5 q-38.5 18.5 -67.5 50.5 q-29 32 -46 75 q-17 43 -17 91 l0 1047 ZM1619 140 l0 1239 l-1186 0 l0 -1239 l1186 0 ZM636 959 q0 51 14 95.5 q14 44.5 39 77 q25 32.5 57.5 51.5 q32.5 19 70.5 19 l429 0 q37 0 69.5 -19 q32.5 -19 57.5 -51.5 q25 -32.5 39.5 -77 q14.5 -44.5 14.5 -95.5 l0 -125 l-226 0 l0 205 l-338 0 l0 -553 l338 0 l0 123 l226 0 l0 -45 q0 -50 -14.5 -94 q-14.5 -44 -39 -76.5 q-24.5 -32.5 -57 -51.5 q-32.5 -19 -69.5 -19 l-430 0 q-38 0 -70.5 19 q-32.5 19 -57.5 51.5 q-25 32.5 -39 76.5 q-14 44 -14 94 l0 395 Z" /><glyph glyph-name="registered" unicode="®" d="M250 1282 q0 49 17 91.5 q17 42.5 46 74 q29 31.5 67.5 50 q38.5 18.5 82.5 18.5 l1126 0 q43 0 82 -18.5 q39 -18.5 68 -50 q29 -31.5 46 -74 q17 -42.5 17 -91.5 l0 -1047 q0 -48 -17 -91 q-17 -43 -46 -75 q-29 -32 -68 -50.5 q-39 -18.5 -82 -18.5 l-1126 0 q-44 0 -82.5 18.5 q-38.5 18.5 -67.5 50.5 q-29 32 -46 75 q-17 43 -17 91 l0 1047 ZM1619 140 l0 1239 l-1186 0 l0 -1239 l1186 0 ZM637 1201 l594 0 q38 0 73 -17.5 q35 -17.5 62 -47.5 q27 -30 43.5 -71 q16.5 -41 16.5 -87 l0 -64 q0 -69 -33 -124.5 q-33 -55.5 -95 -86.5 q34 -17 58.5 -41.5 q24.5 -24.5 40.5 -53.5 q16 -29 24 -60 q8 -31 8 -59 l0 -166 l-229 0 l0 310 l-337 0 l-1 -310 l-225 0 l0 878 ZM1201 776 l0 262 l-338 0 l0 -262 l338 0 Z" /><glyph glyph-name="section" unicode="§" d="M436 -16 l0 -190 l473 0 l0 207 l-512 252 q-52 27 -83 90 q-31 63 -31 144 l0 199 q0 52 14.5 98 q14.5 46 40 80 q25.5 34 60 54 q34.5 20 73.5 20 l83 0 l-195 79 q-60 30 -96 91 q-36 61 -36 152 l0 77 q0 53 14.5 99.5 q14.5 46.5 40 81 q25.5 34.5 59.5 54 q34 19.5 73 19.5 l536 0 q39 0 70 -19.5 q31 -19.5 52.5 -54 q21.5 -34.5 33.5 -81 q12 -46.5 12 -99.5 l0 -107 l-219 0 l0 190 l-463 0 l0 -207 l512 -252 q52 -27 83 -90 q31 -63 31 -144 l0 -199 q0 -52 -15 -98 q-15 -46 -40.5 -80 q-25.5 -34 -59.5 -54 q-34 -20 -73 -20 l-74 0 l186 -79 q60 -30 96 -91 q36 -61 36 -152 l0 -77 q0 -53 -14.5 -99.5 q-14.5 -46.5 -40 -81 q-25.5 -34.5 -59.5 -54 q-34 -19.5 -73 -19.5 l-536 0 q-39 0 -70 19.5 q-31 19.5 -52.5 54 q-21.5 34.5 -33.5 81 q-12 46.5 -12 99.5 l0 107 l209 0 ZM838 431 l0 352 l-331 0 l0 -352 l331 0 Z" /><glyph glyph-name="dagger" unicode="&#x2020;" d="M526 892 l-348 0 q3 32 17 60.5 q14 28.5 36 49.5 q22 21 49.5 33.5 q27.5 12.5 57.5 12.5 l188 0 l0 530 l238 0 l0 -530 l337 0 q-3 -32 -17 -60.5 q-14 -28.5 -36 -49.5 q-22 -21 -49.5 -33.5 q-27.5 -12.5 -57.5 -12.5 l-177 0 l0 -1161 q0 -53 -16 -99.5 q-16 -46.5 -43.5 -81 q-27.5 -34.5 -64.5 -55 q-37 -20.5 -78 -20.5 l-36 0 l0 1417 Z" /><glyph glyph-name="bar" unicode="|" d="M299 1735 l177 0 l0 -2089 l-177 0 l0 2089 Z" /><glyph glyph-name="bracketleft" unicode="[" d="M317 1534 q0 51 18 95.5 q18 44.5 48.5 78 q30.5 33.5 71 52.5 q40.5 19 86.5 19 l334 0 l0 -145 l-329 0 l0 -1879 l329 0 l0 -147 l-334 0 q-46 0 -86.5 19.5 q-40.5 19.5 -71 53 q-30.5 33.5 -48.5 78 q-18 44.5 -18 95.5 l0 1680 Z" /><glyph glyph-name="bracketright" unicode="]" d="M566 -244 l0 1878 l-328 0 l0 147 l329 0 q48 0 89.5 -19 q41.5 -19 72.5 -52.5 q31 -33.5 49 -78 q18 -44.5 18 -95.5 l0 -1678 q0 -51 -18 -96 q-18 -45 -49 -78 q-31 -33 -72.5 -52.5 q-41.5 -19.5 -89.5 -19.5 l-329 0 l0 144 l328 0 Z" /><glyph glyph-name="parenleft" unicode="(" d="M317 960 q0 174 42 320 q42 146 117 253.5 q75 107.5 177.5 171 q102.5 63.5 222.5 72.5 l0 -148 q-69 -14 -129.5 -60.5 q-60.5 -46.5 -105 -119.5 q-44.5 -73 -70 -169.5 q-25.5 -96.5 -25.5 -210.5 l0 -750 q0 -114 25.5 -210.5 q25.5 -96.5 70 -170 q44.5 -73.5 105 -120 q60.5 -46.5 129.5 -60.5 l0 -146 q-116 15 -218 80.5 q-102 65.5 -178 172.5 q-76 107 -119.5 250.5 q-43.5 143.5 -43.5 313.5 l0 531 Z" /><glyph glyph-name="parenright" unicode=")" d="M200 -242 q69 14 129 61 q60 47 104.5 120 q44.5 73 70 169.5 q25.5 96.5 25.5 210.5 l0 750 q0 114 -25.5 210 q-25.5 96 -70 169 q-44.5 73 -104.5 120 q-60 47 -129 61 l0 148 q119 -9 221.5 -73 q102.5 -64 177.5 -171.5 q75 -107.5 117.5 -253.5 q42.5 -146 42.5 -319 l0 -531 q0 -170 -44 -313.5 q-44 -143.5 -120 -250.5 q-76 -107 -178 -172.5 q-102 -65.5 -217 -80.5 l0 146 l0 0 Z" /><glyph glyph-name="braceleft" unicode="{" d="M466 466 q0 41 -13 71.5 q-13 30.5 -36.5 52.5 q-23.5 22 -56 35 q-32.5 13 -70.5 19 l0 99 q40 4 72.5 17.5 q32.5 13.5 55.5 36.5 q23 23 35.5 56.5 q12.5 33.5 12.5 79.5 l0 316 q0 115 43.5 208.5 q43.5 93.5 119.5 162 q76 68.5 178 109 q102 40.5 218 49.5 l0 -146 q-69 -6 -129 -29.5 q-60 -23.5 -105 -59.5 q-45 -36 -70.5 -83 q-25.5 -47 -25.5 -102 l0 -408 q0 -40 -16 -78 q-16 -38 -44.5 -71 q-28.5 -33 -68 -61 q-39.5 -28 -85.5 -48 q47 -18 86.5 -45.5 q39.5 -27.5 68 -61.5 q28.5 -34 44 -72 q15.5 -38 15.5 -78 l0 -414 q0 -53 25.5 -99 q25.5 -46 70.5 -80.5 q45 -34.5 105 -57 q60 -22.5 129 -29.5 l0 -146 q-118 7 -220 46.5 q-102 39.5 -177.5 106.5 q-75.5 67 -118.5 160 q-43 93 -43 207 l0 337 Z" /><glyph glyph-name="braceright" unicode="}" d="M200 -245 q69 7 129 29.5 q60 22.5 105 57 q45 34.5 70.5 80.5 q25.5 46 25.5 99 l0 414 q0 40 16 78 q16 38 44.5 72 q28.5 34 68 61.5 q39.5 27.5 85.5 45.5 q-46 20 -85 48 q-39 28 -67.5 61 q-28.5 33 -45 71 q-16.5 38 -16.5 78 l0 408 q0 55 -25.5 102 q-25.5 47 -70.5 83 q-45 36 -105 59.5 q-60 23.5 -129 29.5 l0 146 q118 -7 220 -47 q102 -40 177.5 -108.5 q75.5 -68.5 118.5 -163 q43 -94.5 43 -210.5 l0 -316 q0 -46 12.5 -79.5 q12.5 -33.5 35.5 -56.5 q23 -23 55.5 -36.5 q32.5 -13.5 72.5 -17.5 l0 -99 q-38 -6 -70.5 -19 q-32.5 -13 -56 -35 q-23.5 -22 -36.5 -52.5 q-13 -30.5 -13 -71.5 l0 -337 q0 -113 -44 -205 q-44 -92 -119.5 -159 q-75.5 -67 -177.5 -107 q-102 -40 -218 -49 l0 146 l0 0 Z" /><glyph glyph-name="currency" unicode="¤" d="M333 304 q-8 23 -12 49 q-4 26 -4 53 l0 384 q0 52 13 94 l-182 175 l92 87 l158 -146 q23 21 50.5 33 q27.5 12 58.5 12 l451 0 q29 0 57 -12 q28 -12 51 -33 l159 146 l92 -87 l-183 -176 q14 -45 14 -93 l0 -384 q0 -28 -4 -53.5 q-4 -25.5 -12 -48.5 l185 -178 l-92 -87 l-166 152 q-45 -39 -100 -39 l-452 0 q-55 0 -102 39 l-165 -152 l-92 87 l185 178 ZM910 325 l0 549 l-355 0 l0 -549 l355 0 Z" /><glyph glyph-name="cent" unicode="¢" d="M277 894 q0 53 15 99.5 q15 46.5 40.5 81 q25.5 34.5 59.5 54 q34 19.5 73 19.5 l202 0 l0 260 l156 0 l0 -260 l174 0 q39 0 74 -19.5 q35 -19.5 61 -54 q26 -34.5 41 -81 q15 -46.5 15 -99.5 l-1 -167 l-238 0 l0 252 l-126 0 l0 -705 l126 0 l0 116 l238 0 l0 -35 q0 -52 -15 -98 q-15 -46 -41 -80 q-26 -34 -60.5 -54 q-34.5 -20 -73.5 -20 l-174 0 l0 -259 l-157 0 l0 259 l-201 0 q-39 0 -73 20 q-34 20 -59.5 54 q-25.5 34 -40.5 80 q-15 46 -15 98 l0 539 ZM666 274 q0 91 0 178.5 q0 87.5 0.5 173.5 q0.5 86 0.5 173.5 q0 87.5 0 179.5 l-151 0 l0 -705 l150 0 Z" /><glyph glyph-name="paragraph" unicode="¶" d="M394 249 q-39 0 -73.5 19.5 q-34.5 19.5 -60.5 54 q-26 34.5 -41 80 q-15 45.5 -15 98.5 l0 760 q0 53 15 99.5 q15 46.5 41 81 q26 34.5 60.5 54 q34.5 19.5 73.5 19.5 l1083 0 q-4 -35 -19.5 -66.5 q-15.5 -31.5 -39 -54.5 q-23.5 -23 -53.5 -36.5 q-30 -13.5 -63 -13.5 l-68 0 l0 -1353 q0 -53 -16 -99.5 q-16 -46.5 -43.5 -81 q-27.5 -34.5 -64.5 -55 q-37 -20.5 -78 -20.5 l-16 0 l0 1609 l-212 0 l0 -1358 q0 -53 -16.5 -99.5 q-16.5 -46.5 -44 -81 q-27.5 -34.5 -64.5 -55 q-37 -20.5 -78 -20.5 l-16 0 l0 519 l-191 0 l0 0 Z" /><glyph glyph-name="Oslash" unicode="ø" d="M267 59 q-31 35 -49 85 q-18 50 -18 108 l0 1010 q0 53 15 99.5 q15 46.5 40.5 81 q25.5 34.5 59.5 54 q34 19.5 73 19.5 l556 0 l94 201 l161 0 l-118 -251 q35 -35 56.5 -88 q21.5 -53 21.5 -116 l-1 -1010 q0 -52 -15 -98 q-15 -46 -41 -80 q-26 -34 -60.5 -54 q-34.5 -20 -73.5 -20 l-577 0 l-83 -177 l-151 0 l110 236 ZM866 1347 l-427 0 l0 -918 l427 918 ZM920 171 l0 952 l-448 -952 l448 0 Z" /><glyph glyph-name="AE" unicode="æ" d="M251 512 l-241 0 q3 33 17 62.5 q14 29.5 36.5 51 q22.5 21.5 51 34.5 q28.5 13 60.5 13 l103 0 l113 654 q7 41 26.5 76 q19.5 35 46 60 q26.5 25 58.5 39 q32 14 64 14 l1092 0 l0 -169 l-556 0 l0 -674 l426 0 l0 -161 l-426 0 l0 -341 l675 0 q-4 -35 -19.5 -66.5 q-15.5 -31.5 -39 -54.5 q-23.5 -23 -53.5 -36.5 q-30 -13.5 -63 -13.5 l-550 0 q-40 0 -74.5 20 q-34.5 20 -60 54 q-25.5 34 -40.5 80 q-15 46 -15 98 l0 260 l-402 0 q-20 -131 -40.5 -259 q-20.5 -128 -40.5 -253 l-236 0 l88 512 ZM882 673 l0 674 l-269 0 l-107 -674 l376 0 Z" /><glyph glyph-name="eth" unicode="ð" d="M192 706 q0 53 15 99.5 q15 46.5 40.5 81 q25.5 34.5 59.5 54 q34 19.5 73 19.5 l389 0 l-227 285 l-269 -93 l-55 142 l248 79 l-176 220 l171 88 l191 -231 l334 113 l55 -142 l-295 -100 l296 -388 q24 -35 38 -79.5 q14 -44.5 14 -95.5 l-1 -506 q0 -52 -15 -98 q-15 -46 -41 -80 q-26 -34 -60.5 -54 q-34.5 -20 -73.5 -20 l-523 0 q-39 0 -73 20 q-34 20 -59.5 54 q-25.5 34 -40.5 80 q-15 46 -15 98 l0 454 ZM865 171 l0 618 l-444 0 l0 -618 l444 0 Z" /><glyph glyph-name="Thorn" unicode="þ" d="M231 307 l-288 0 q4 35 19.5 66 q15.5 31 39 54.5 q23.5 23.5 53.5 37 q30 13.5 63 13.5 l112 0 l0 1038 l239 0 l0 -260 l546 0 q39 0 73.5 -19.5 q34.5 -19.5 60.5 -54 q26 -34.5 41 -81 q15 -46.5 15 -99.5 l0 -443 q0 -53 -15 -98.5 q-15 -45.5 -41 -80 q-26 -34.5 -60.5 -54 q-34.5 -19.5 -73.5 -19.5 l-544 0 l0 -307 l-240 0 l0 307 ZM972 478 l0 609 l-502 0 l0 -609 l502 0 Z" /><glyph glyph-name="Lslash" unicode="&#x141;" d="M30 0 q3 34 18.5 65.5 q15.5 31.5 39 54.5 q23.5 23 53.5 37 q30 14 64 14 l62 0 l0 468 l-237 -76 l0 169 l237 76 l0 454 q0 53 15 99.5 q15 46.5 40.5 81 q25.5 34.5 60 54 q34.5 19.5 73.5 19.5 l320 0 l0 -159 l-271 0 l0 -473 l355 115 l0 -169 l-355 -115 l0 -299 q0 -52 -14.5 -95 q-14.5 -43 -36 -75 q-21.5 -32 -47.5 -51.5 q-26 -19.5 -49 -23.5 l586 0 l0 200 l211 0 l0 -201 q0 -36 -15 -67 q-15 -31 -39.5 -54 q-24.5 -23 -56 -36 q-31.5 -13 -64.5 -13 l-950 0 l0 0 Z" /><glyph glyph-name="Eth" unicode="ð" d="M244 549 l-193 0 l0 154 l193 0 l0 279 q0 52 15.5 97.5 q15.5 45.5 42 80 q26.5 34.5 61.5 54.5 q35 20 75 20 l45 0 l0 -531 l241 0 l0 -154 l-241 0 l0 -378 l461 0 l0 1176 l-894 0 q3 35 18.5 66 q15.5 31 39 54 q23.5 23 53.5 36 q30 13 64 13 l768 0 q39 0 74 -19.5 q35 -19.5 60.5 -54 q25.5 -34.5 40.5 -81 q15 -46.5 15 -99.5 l0 -1010 q0 -52 -15 -98 q-15 -46 -40.5 -80 q-25.5 -34 -60 -54 q-34.5 -20 -73.5 -20 l-749 0 l-1 549 Z" /><glyph glyph-name="nonmarkingreturn" unicode="" d="" /><glyph glyph-name="underscore" unicode="_" d="M1608 -127 l0 -128 l-1686 0 l0 128 l1686 0 Z" /><glyph glyph-name="asciicircum" unicode="^" d="M567 1515 l202 0 q89 -265 177.5 -524 q88.5 -259 178.5 -524 l-215 0 l-242 816 l-236 -816 l-205 0 l340 1048 Z" /><glyph glyph-name="kgreenlandic" unicode="&#x138;" d="M220 1047 l239 0 l0 -452 l165 0 l187 452 l251 0 l-201 -449 q40 -7 75 -29.5 q35 -22.5 60.5 -57 q25.5 -34.5 40 -78 q14.5 -43.5 14.5 -92.5 l0 -170 l190 0 q-4 -35 -19.5 -66.5 q-15.5 -31.5 -39 -54.5 q-23.5 -23 -53.5 -36.5 q-30 -13.5 -63 -13.5 l-63 0 q-39 0 -73.5 20 q-34.5 20 -60.5 54.5 q-26 34.5 -41 80.5 q-15 46 -15 99 l0 173 l-354 0 l0 -427 l-239 0 l0 1047 Z" /><glyph glyph-name="brokenbar" unicode="¦" d="M299 1735 l177 0 l0 -843 l-177 0 l0 843 ZM299 510 l177 0 l0 -864 l-177 0 l0 864 Z" /><glyph glyph-name="backslash" unicode="\" d="M150 1769 l170 0 q188 -489 374.5 -973 q186.5 -484 374.5 -972 l-173 0 l-746 1945 Z" /><glyph glyph-name="exclamdown" unicode="¡" d="M387 1206 q-35 0 -65.5 13 q-30.5 13 -53.5 36 q-23 23 -36 53.5 q-13 30.5 -13 65.5 q0 35 13 65.5 q13 30.5 36 53.5 q23 23 53.5 36.5 q30.5 13.5 65.5 13.5 q35 0 65.5 -13.5 q30.5 -13.5 53.5 -36.5 q23 -23 36.5 -53.5 q13.5 -30.5 13.5 -65.5 q0 -35 -13.5 -65.5 q-13.5 -30.5 -36.5 -53.5 q-23 -23 -54 -36 q-31 -13 -65 -13 ZM222 178 q0 19 2 38.5 q2 19.5 4 33.5 l97 777 l115 0 l101 -774 q2 -18 3.5 -37.5 q1.5 -19.5 1.5 -39.5 q0 -39 -12.5 -73 q-12.5 -34 -35 -59.5 q-22.5 -25.5 -52.5 -40 q-30 -14.5 -64 -14.5 q-34 0 -63 15 q-29 15 -50.5 40.5 q-21.5 25.5 -34 60 q-12.5 34.5 -12.5 73.5 Z" /><glyph glyph-name="questiondown" unicode="¿" d="M589 1190 q-35 0 -65.5 13 q-30.5 13 -53.5 36 q-23 23 -36 53.5 q-13 30.5 -13 65.5 q0 35 13 65.5 q13 30.5 36 53.5 q23 23 53.5 36.5 q30.5 13.5 65.5 13.5 q35 0 65.5 -13.5 q30.5 -13.5 53.5 -36.5 q23 -23 36.5 -53.5 q13.5 -30.5 13.5 -65.5 q0 -35 -13.5 -65.5 q-13.5 -30.5 -36.5 -53.5 q-23 -23 -54 -36 q-31 -13 -65 -13 ZM113 462 q0 38 8.5 75 q8.5 37 24 68 q15.5 31 37 55 q21.5 24 46.5 37 l243 124 l0 174 l238 0 l0 -124 q0 -39 -7.5 -75 q-7.5 -36 -21.5 -66.5 q-14 -30.5 -34 -53.5 q-20 -23 -45 -36 l-250 -127 l0 -341 l410 0 l0 213 l239 0 l0 -131 q0 -53 -15 -99 q-15 -46 -40.5 -80.5 q-25.5 -34.5 -60 -54.5 q-34.5 -20 -74.5 -20 l-508 0 q-39 0 -74 20 q-35 20 -60.5 54.5 q-25.5 34.5 -40.5 80.5 q-15 46 -15 99 l0 208 Z" /><glyph glyph-name="quoteleft" unicode="&#x2018;" d="M259 898 q-35 0 -65.5 13 q-30.5 13 -53.5 36 q-23 23 -36.5 54 q-13.5 31 -13.5 66 q0 43 9.5 81.5 q9.5 38.5 27.5 74.5 q18 36 43.5 72.5 q25.5 36.5 58.5 76.5 l114 143 l94 -45 l-91 -258 q37 -22 59.5 -59.5 q22.5 -37.5 22.5 -85.5 q0 -35 -13 -66 q-13 -31 -35.5 -54 q-22.5 -23 -53.5 -36 q-31 -13 -67 -13 Z" /><glyph glyph-name="quoteright" unicode="&#x2019;" d="M120 943 l91 258 q-37 22 -59.5 59.5 q-22.5 37.5 -22.5 85.5 q0 35 13 66 q13 31 35.5 54 q22.5 23 53.5 36 q31 13 67 13 q35 0 65.5 -13 q30.5 -13 53.5 -36 q23 -23 36.5 -54 q13.5 -31 13.5 -66 q0 -44 -9.5 -82 q-9.5 -38 -27.5 -74 q-18 -36 -43.5 -72.5 q-25.5 -36.5 -58.5 -76.5 l-114 -143 l-94 45 Z" /><glyph glyph-name="quotedblbase" unicode="&#x201e;" d="M644 157 q0 35 13 66 q13 31 35.5 54 q22.5 23 53.5 36 q31 13 67 13 q35 0 65.5 -13 q30.5 -13 53.5 -36 q23 -23 36.5 -54 q13.5 -31 13.5 -66 q0 -44 -9.5 -81.5 q-9.5 -37.5 -27.5 -74 q-18 -36.5 -44 -73 q-26 -36.5 -58 -76.5 l-114 -143 l-94 45 l91 258 q-37 22 -59.5 59.5 q-22.5 37.5 -22.5 85.5 ZM129 157 q0 35 13 66 q13 31 35.5 54 q22.5 23 53.5 36 q31 13 67 13 q35 0 65.5 -13 q30.5 -13 53.5 -36 q23 -23 36.5 -54 q13.5 -31 13.5 -66 q0 -44 -9.5 -81.5 q-9.5 -37.5 -27.5 -74 q-18 -36.5 -44 -73 q-26 -36.5 -58 -76.5 l-114 -143 l-94 45 l91 258 q-37 22 -59.5 59.5 q-22.5 37.5 -22.5 85.5 Z" /><glyph glyph-name="lozenge" unicode="&#x25ca;" d="M130 762 l380 754 l229 0 l374 -754 l-372 -762 l-229 0 l-382 762 ZM891 762 l-270 574 l-278 -574 l277 -582 l271 582 Z" /><glyph glyph-name="dotaccent" unicode="&#x2d9;" d="M317 1319 q-36 0 -67 12 q-31 12 -53 34.5 q-22 22.5 -34.5 53 q-12.5 30.5 -12.5 68.5 q0 37 12.5 68.5 q12.5 31.5 34.5 55 q22 23.5 53 36.5 q31 13 67 13 q34 0 64.5 -13 q30.5 -13 53 -36.5 q22.5 -23.5 35.5 -55 q13 -31.5 13 -68.5 q0 -38 -13 -68.5 q-13 -30.5 -35.5 -53 q-22.5 -22.5 -53 -34.5 q-30.5 -12 -64.5 -12 Z" /><glyph glyph-name="hungarumlaut" unicode="&#x2dd;" d="M150 1391 l136 362 q18 48 54.5 75.5 q36.5 27.5 80.5 27.5 q38 0 75 -22 q34 -21 50 -53.5 q16 -32.5 16 -69.5 q0 -32 -12 -64.5 q-12 -32.5 -35 -58.5 l-241 -272 l-124 75 ZM633 1385 l158 349 q19 45 54.5 70.5 q35.5 25.5 77.5 25.5 q42 0 82 -28 q30 -22 44 -53 q14 -31 14 -65 q0 -35 -14 -69.5 q-14 -34.5 -41 -61.5 l-249 -249 l-126 81 Z" /><glyph glyph-name="breve" unicode="&#x2d8;" d="M509 1248 q-75 0 -140 28.5 q-65 28.5 -114 80 q-49 51.5 -77 122.5 q-28 71 -28 156 l151 0 q0 -27 18.5 -55.5 q18.5 -28.5 50.5 -52.5 q32 -24 73.5 -39 q41.5 -15 88.5 -15 l46 0 q46 0 88 15 q42 15 73.5 39 q31.5 24 50.5 52.5 q19 28.5 19 55.5 l150 0 q0 -85 -28 -156 q-28 -71 -77 -122.5 q-49 -51.5 -114 -80 q-65 -28.5 -140 -28.5 l-91 0 l0 0 Z" /><glyph glyph-name="ogonek" unicode="&#x2db;" d="M512 111 l166 -52 l-347 -360 l382 0 l0 -208 l-400 0 q-34 0 -64 14 q-30 14 -52 38 q-22 24 -34.5 55 q-12.5 31 -12.5 65 q0 45 13 74.5 q13 29.5 36 55.5 l313 318 Z" /><glyph glyph-name="perthousand" unicode="&#x2030;" d="M1934 414 q0 33 11.5 62 q11.5 29 31.5 50.5 q20 21.5 47 34 q27 12.5 58 12.5 l332 -1 q31 0 58 -12.5 q27 -12.5 47 -34 q20 -21.5 32 -50.5 q12 -29 12 -62 l0 -255 q0 -33 -11.5 -62 q-11.5 -29 -31.5 -50.5 q-20 -21.5 -47 -34 q-27 -12.5 -58 -12.5 l-332 1 q-31 0 -58 12.5 q-27 12.5 -47.5 34 q-20.5 21.5 -32 50.5 q-11.5 29 -11.5 62 l0 255 ZM2352 108 l0 356 l-206 0 l0 -356 l206 0 ZM1285 1311 l177 0 l-806 -1370 l-178 0 l807 1370 ZM329 615 q-31 0 -58 12.5 q-27 12.5 -47.5 34 q-20.5 21.5 -32 50.5 q-11.5 29 -11.5 62 l0 305 q0 33 11.5 62 q11.5 29 31.5 50.5 q20 21.5 47 34 q27 12.5 58 12.5 l362 -1 q31 0 58 -12.5 q27 -12.5 47 -34 q20 -21.5 32 -50.5 q12 -29 12 -62 l0 -305 q0 -33 -11.5 -62 q-11.5 -29 -31.5 -50.5 q-20 -21.5 -47 -34 q-27 -12.5 -58 -12.5 l-362 1 ZM628 723 l0 406 l-236 0 l0 -406 l236 0 ZM1096 464 q0 33 11.5 62 q11.5 29 31.5 50.5 q20 21.5 47 34 q27 12.5 58 12.5 l362 -1 q31 0 58 -12.5 q27 -12.5 47 -34 q20 -21.5 32 -50.5 q12 -29 12 -62 l0 -305 q0 -33 -11.5 -62 q-11.5 -29 -31.5 -50.5 q-20 -21.5 -47 -34 q-27 -12.5 -58 -12.5 l-362 1 q-31 0 -58 12.5 q-27 12.5 -47.5 34 q-20.5 21.5 -32 50.5 q-11.5 29 -11.5 62 l0 305 ZM1544 108 l0 406 l-236 0 l0 -406 l236 0 Z" /><glyph glyph-name="trademark" unicode="&#x2122;" d="M877 1516 l131 0 l0 -107 l122 78 q16 14 34 21.5 q18 7.5 45 7.5 q20 0 38.5 -8 q18.5 -8 32.5 -21 q14 -13 22.5 -31 q8.5 -18 8.5 -37 l0 -11 l124 79 q16 14 32.5 21.5 q16.5 7.5 44.5 7.5 q20 0 38.5 -8 q18.5 -8 33 -21 q14.5 -13 23 -31 q8.5 -18 8.5 -37 l0 -464 l-133 0 l0 455 l-171 -106 l0 -349 l-131 0 l0 455 l-172 -105 l0 -350 l-131 0 l0 561 ZM338 1421 l-179 0 l1 95 l491 0 l0 -95 l-179 0 l0 -466 l-134 0 l0 466 Z" /><glyph glyph-name="daggerdbl" unicode="&#x2021;" d="M177 527 q3 32 17 60.5 q14 28.5 36 49.5 q22 21 49.5 33.5 q27.5 12.5 57.5 12.5 l188 0 l0 209 l-348 0 q3 32 17 60.5 q14 28.5 36 49.5 q22 21 49.5 33.5 q27.5 12.5 57.5 12.5 l188 0 l0 530 l238 0 l0 -530 l337 0 q-3 -32 -17 -60.5 q-14 -28.5 -36 -49.5 q-22 -21 -49.5 -33.5 q-27.5 -12.5 -57.5 -12.5 l-177 0 l0 -209 l337 0 q-3 -32 -17 -60.5 q-14 -28.5 -36 -49.5 q-22 -21 -49.5 -33.5 q-27.5 -12.5 -57.5 -12.5 l-177 0 l0 -796 q0 -53 -16 -99.5 q-16 -46.5 -43.5 -81 q-27.5 -34.5 -64.5 -55 q-37 -20.5 -78 -20.5 l-36 0 l0 1052 l-348 0 l0 0 Z" /><glyph glyph-name="notequal" unicode="&#x2260;" d="M250 376 l294 0 l118 307 l-412 0 l0 176 l479 0 l101 262 l172 0 l-101 -262 l224 0 l0 -176 l-291 0 l-118 -307 l409 0 l0 -175 l-476 0 l-99 -260 l-173 0 l100 260 l-227 0 l0 175 Z" /><glyph glyph-name="lessequal" unicode="&#x2264;" d="M179 807 q107 33 211 65 q104 32 207.5 64 q103.5 32 207 64 q103.5 32 210.5 65 l0 -182 l-648 -168 q75 -20 162.5 -43 q87.5 -23 174.5 -46 q87 -23 168 -44.5 q81 -21.5 143 -37.5 l0 -181 l-836 258 l0 186 ZM179 259 l836 0 l0 -176 l-836 0 l0 176 Z" /><glyph glyph-name="greaterequal" unicode="&#x2265;" d="M270 544 q62 16 143 37.5 q81 21.5 168 44.5 q87 23 174.5 46 q87.5 23 162.5 43 l-648 168 l0 182 q107 -33 210.5 -65 q103.5 -32 207 -64 q103.5 -32 207.5 -64 q104 -32 211 -65 l0 -186 l-836 -258 l0 181 ZM270 259 l836 0 l0 -176 l-836 0 l0 176 Z" /><glyph glyph-name="Ldot" unicode="&#x13f;" d="M863 792 q0 37 12.5 68.5 q12.5 31.5 34.5 55 q22 23.5 53 36.5 q31 13 67 13 q34 0 64.5 -13 q30.5 -13 53 -36.5 q22.5 -23.5 35.5 -55 q13 -31.5 13 -68.5 q0 -38 -13 -68.5 q-13 -30.5 -35.5 -53 q-22.5 -22.5 -53 -34.5 q-30.5 -12 -64.5 -12 q-36 0 -67 12 q-31 12 -53 34.5 q-22 22.5 -34.5 53 q-12.5 30.5 -12.5 68.5 ZM50 0 q3 34 18.5 65.5 q15.5 31.5 39 54.5 q23.5 23 53.5 37 q30 14 64 14 l42 0 l0 1091 q0 53 15 99.5 q15 46.5 40.5 81 q25.5 34.5 60 54 q34.5 19.5 73.5 19.5 l320 0 l0 -159 l-271 0 l0 -941 q0 -52 -14.5 -95 q-14.5 -43 -36 -75 q-21.5 -32 -47.5 -51.5 q-26 -19.5 -49 -23.5 l586 0 l0 220 l211 0 l0 -221 q0 -36 -15 -67 q-15 -31 -39.5 -54 q-24.5 -23 -56 -36 q-31.5 -13 -64.5 -13 l-930 0 Z" /><glyph glyph-name="OE" unicode="&#x152;" d="M200 1262 q0 53 15 99.5 q15 46.5 40.5 81 q25.5 34.5 59.5 54 q34 19.5 73 19.5 l489 0 q49 0 93 -33.5 q44 -33.5 73 -90.5 q29 57 73 90.5 q44 33.5 93 33.5 l527 0 l0 -173 l-576 0 l0 -588 l446 0 l0 -161 l-446 0 l0 -423 l665 0 q-4 -35 -19.5 -66.5 q-15.5 -31.5 -39 -54.5 q-23.5 -23 -53.5 -36.5 q-30 -13.5 -63 -13.5 l-447 0 q-49 0 -93 33.5 q-44 33.5 -73 90.5 q-29 -57 -73 -90.5 q-44 -33.5 -93 -33.5 l-483 0 q-39 0 -73 20 q-34 20 -59.5 54 q-25.5 34 -40.5 80 q-15 46 -15 98 l0 1010 ZM920 171 l0 1172 l-481 0 l0 -1172 l481 0 Z" /><glyph glyph-name="hbar" unicode="&#x127;" d="M192 1237 l-191 0 l0 154 l191 0 l0 199 l239 0 l0 -199 l412 0 l0 -154 l-412 0 l0 -304 q28 54 69.5 84 q41.5 30 90.5 30 l273 0 q39 0 73.5 -20 q34.5 -20 60.5 -54.5 q26 -34.5 41 -80.5 q15 -46 15 -99 l0 -622 l214 0 q-4 -35 -19.5 -66.5 q-15.5 -31.5 -38.5 -54.5 q-23 -23 -53 -36.5 q-30 -13.5 -62 -13.5 l-89 0 q-39 0 -74 20 q-35 20 -61 54.5 q-26 34.5 -41 80.5 q-15 46 -15 99 l0 622 l-384 0 l0 -876 l-239 0 l0 1237 Z" /><glyph glyph-name="ldot" unicode="&#x140;" d="M728 583 q-36 0 -67 12 q-31 12 -53 34.5 q-22 22.5 -34.5 53 q-12.5 30.5 -12.5 68.5 q0 37 12.5 68.5 q12.5 31.5 34.5 55 q22 23.5 53 36.5 q31 13 67 13 q34 0 64.5 -13 q30.5 -13 53 -36.5 q22.5 -23.5 35.5 -55 q13 -31.5 13 -68.5 q0 -38 -13 -68.5 q-13 -30.5 -35.5 -53 q-22.5 -22.5 -53 -34.5 q-30.5 -12 -64.5 -12 ZM172 1591 l239 0 l0 -1420 l213 0 q-6 -40 -22.5 -72 q-16.5 -32 -40 -54 q-23.5 -22 -53 -33.5 q-29.5 -11.5 -61.5 -11.5 l-84 0 q-39 0 -74 20 q-35 20 -61 54.5 q-26 34.5 -41 80.5 q-15 46 -15 99 l0 1337 Z" /><glyph glyph-name="oe" unicode="&#x153;" d="M192 793 q0 53 15 99.5 q15 46.5 40.5 81 q25.5 34.5 59.5 54 q34 19.5 73 19.5 l460 0 q49 0 93 -33.5 q44 -33.5 73 -90.5 q29 57 73 90.5 q44 33.5 93 33.5 l463 0 q39 0 73.5 -20 q34.5 -20 60.5 -54.5 q26 -34.5 41 -80.5 q15 -46 15 -99 l0 -333 l-702 0 l0 -289 l754 0 q-4 -35 -19.5 -66.5 q-15.5 -31.5 -39 -54.5 q-23.5 -23 -53.5 -36.5 q-30 -13.5 -63 -13.5 l-536 0 q-49 0 -93 33.5 q-44 33.5 -73 90.5 q-29 -57 -73 -90.5 q-44 -33.5 -93 -33.5 l-454 0 q-39 0 -73 20 q-34 20 -59.5 54 q-25.5 34 -40.5 80 q-15 46 -15 98 l0 541 ZM1586 600 l0 276 l-463 0 l0 -276 l463 0 ZM883 171 l0 705 l-452 0 l0 -705 l452 0 Z" /><glyph glyph-name="lslash" unicode="&#x142;" d="M186 753 l-118 -40 l0 171 l118 40 l0 667 l239 0 l0 -584 l215 74 l0 -171 l-215 -74 l0 -665 l213 0 q-6 -40 -22.5 -72 q-16.5 -32 -40 -54 q-23.5 -22 -53 -33.5 q-29.5 -11.5 -61.5 -11.5 l-84 0 q-39 0 -74 20 q-35 20 -61 54.5 q-26 34.5 -41 80.5 q-15 46 -15 99 l0 499 Z" /><glyph glyph-name="uni1E9E" unicode="&#x1e9e;" d="M459 -269 q0 -53 -16 -99.5 q-16 -46.5 -43.5 -81 q-27.5 -34.5 -64.5 -55 q-37 -20.5 -78 -20.5 l-37 0 l0 1786 q0 53 15 99.5 q15 46.5 40.5 81 q25.5 34.5 59.5 54 q34 19.5 73 19.5 l573 0 q37 0 69.5 -15 q32.5 -15 56.5 -40.5 q24 -25.5 38 -59.5 q14 -34 14 -73 q0 -23 -7.5 -51 q-7.5 -28 -17.5 -44 l-206 -346 l60 0 q39 0 74 -19.5 q35 -19.5 61 -54 q26 -34.5 41 -81 q15 -46.5 15 -99.5 l-1 -380 q0 -52 -15 -98 q-15 -46 -41 -80 q-26 -34 -60.5 -54 q-34.5 -20 -73.5 -20 l-321 0 l0 171 l273 0 l0 546 l-274 0 l0 132 l274 497 l-481 0 l0 -1615 l0 0 Z" /><glyph glyph-name="itilde" unicode="&#x129;" d="M-116 1349 q4 28 8.5 48 q4.5 20 10.5 48 q9 45 37 82 q28 37 68.5 64 q40.5 27 91 41.5 q50.5 14.5 104.5 14.5 q43 0 84 -12.5 q41 -12.5 76.5 -35 q35.5 -22.5 64.5 -53.5 q29 -31 49 -68 l101 0 l54 110 l136 0 q-2 -20 -5 -38 q-2 -16 -5.5 -31.5 q-3.5 -15.5 -5.5 -26.5 q-11 -46 -39.5 -83.5 q-28.5 -37.5 -69 -64 q-40.5 -26.5 -90 -40.5 q-49.5 -14 -103.5 -14 q-46 0 -88.5 12.5 q-42.5 12.5 -79.5 35 q-37 22.5 -66.5 53.5 q-29.5 31 -49.5 68 l-92 0 l-55 -110 l-136 0 ZM180 1047 l239 0 l0 -876 l214 0 q-3 -35 -18.5 -66.5 q-15.5 -31.5 -39 -54.5 q-23.5 -23 -53.5 -36.5 q-30 -13.5 -63 -13.5 l-88 0 q-39 0 -74 20 q-35 20 -61 54.5 q-26 34.5 -41 80.5 q-15 46 -15 99 l0 793 Z" /><glyph glyph-name="germandbls" unicode="ß" d="M192 1336 q0 53 15 99.5 q15 46.5 40.5 81 q25.5 34.5 60.5 54.5 q35 20 74 20 l420 0 q40 0 77 -19.5 q37 -19.5 65.5 -53.5 q28.5 -34 45.5 -80 q17 -46 17 -99 l0 -208 q0 -68 -29.5 -126 q-29.5 -58 -83.5 -96 q53 -11 92 -39.5 q39 -28.5 64.5 -66 q25.5 -37.5 37.5 -79 q12 -41.5 12 -79.5 l0 -229 q0 -52 -14.5 -95 q-14.5 -43 -36.5 -75 q-22 -32 -48 -51.5 q-26 -19.5 -49 -23.5 l297 0 q-3 -36 -18.5 -67 q-15.5 -31 -39 -54.5 q-23.5 -23.5 -54 -36.5 q-30.5 -13 -63.5 -13 l-472 0 q3 34 18.5 65.5 q15.5 31.5 39 54.5 q23.5 23 53.5 37 q30 14 64 14 l81 0 l0 635 l-220 0 l0 171 l127 0 l0 446 l-335 0 l0 -1423 l-238 0 l0 1336 Z" /><glyph glyph-name="oslash" unicode="ø" d="M307 20 q-51 29 -83 91 q-32 62 -32 141 l0 541 q0 53 15 99.5 q15 46.5 40.5 81 q25.5 34.5 59.5 54 q34 19.5 73 19.5 l457 0 l91 176 l151 0 l-101 -196 q25 -15 46.5 -38.5 q21.5 -23.5 37 -53.5 q15.5 -30 24 -66 q8.5 -36 8.5 -76 l-1 -541 q0 -52 -15 -98 q-15 -46 -41 -80 q-26 -34 -60.5 -54 q-34.5 -20 -73.5 -20 l-456 0 l-91 -177 l-151 0 l102 197 ZM748 876 l-327 0 l0 -635 l327 635 ZM865 171 l0 637 l-329 -637 l329 0 Z" /><glyph glyph-name="ellipsis" unicode="&#x2026;" d="M1724 156 q0 35 13 65.5 q13 30.5 36 53.5 q23 23 53.5 36.5 q30.5 13.5 65.5 13.5 q35 0 65.5 -13.5 q30.5 -13.5 53.5 -36.5 q23 -23 36.5 -53.5 q13.5 -30.5 13.5 -65.5 q0 -35 -13.5 -65.5 q-13.5 -30.5 -36.5 -53.5 q-23 -23 -54 -36 q-31 -13 -65 -13 q-35 0 -65.5 13 q-30.5 13 -53.5 36 q-23 23 -36 53.5 q-13 30.5 -13 65.5 ZM967 156 q0 35 13 65.5 q13 30.5 36 53.5 q23 23 53.5 36.5 q30.5 13.5 65.5 13.5 q35 0 65.5 -13.5 q30.5 -13.5 53.5 -36.5 q23 -23 36.5 -53.5 q13.5 -30.5 13.5 -65.5 q0 -35 -13.5 -65.5 q-13.5 -30.5 -36.5 -53.5 q-23 -23 -54 -36 q-31 -13 -65 -13 q-35 0 -65.5 13 q-30.5 13 -53.5 36 q-23 23 -36 53.5 q-13 30.5 -13 65.5 ZM210 156 q0 35 13 65.5 q13 30.5 36 53.5 q23 23 53.5 36.5 q30.5 13.5 65.5 13.5 q35 0 65.5 -13.5 q30.5 -13.5 53.5 -36.5 q23 -23 36.5 -53.5 q13.5 -30.5 13.5 -65.5 q0 -35 -13.5 -65.5 q-13.5 -30.5 -36.5 -53.5 q-23 -23 -54 -36 q-31 -13 -65 -13 q-35 0 -65.5 13 q-30.5 13 -53.5 36 q-23 23 -36 53.5 q-13 30.5 -13 65.5 Z" /><glyph glyph-name="Itilde" unicode="&#x128;" d="M128 1731 q5 26 8.5 43.5 q3.5 17.5 8.5 42.5 q8 40 33 73.5 q25 33.5 62 57.5 q37 24 82 37.5 q45 13.5 94 13.5 q39 0 76 -11 q37 -11 69 -31.5 q32 -20.5 58 -48.5 q26 -28 44 -61 l91 0 l48 99 l123 0 q-2 -18 -5 -34 q-2 -14 -5 -28.5 q-3 -14.5 -5 -23.5 q-10 -41 -35.5 -75 q-25.5 -34 -62 -58 q-36.5 -24 -81 -36.5 q-44.5 -12.5 -92.5 -12.5 q-41 0 -79.5 11.5 q-38.5 11.5 -71.5 31.5 q-33 20 -60 48 q-27 28 -45 61 l-83 0 l-49 -99 l-123 0 ZM319 171 l317 0 l0 1176 l-330 0 l0 -345 l-206 0 l0 260 q0 53 15 99.5 q15 46.5 41 81 q26 34.5 60.5 54 q34.5 19.5 74.5 19.5 l583 0 l0 -1264 q0 -52 -15 -98 q-15 -46 -41 -80 q-26 -34 -60.5 -54 q-34.5 -20 -73.5 -20 l-365 0 l0 171 Z" /><glyph glyph-name="Atilde" unicode="ã" d="M296 1731 q5 26 8.5 43.5 q3.5 17.5 8.5 42.5 q8 40 33 73.5 q25 33.5 62 57.5 q37 24 82 37.5 q45 13.5 94 13.5 q39 0 76 -11 q37 -11 69 -31.5 q32 -20.5 58 -48.5 q26 -28 44 -61 l91 0 l48 99 l123 0 q-2 -18 -5 -34 q-2 -14 -5 -28.5 q-3 -14.5 -5 -23.5 q-10 -41 -35.5 -75 q-25.5 -34 -62 -58 q-36.5 -24 -81 -36.5 q-44.5 -12.5 -92.5 -12.5 q-41 0 -79.5 11.5 q-38.5 11.5 -71.5 31.5 q-33 20 -60 48 q-27 28 -45 61 l-83 0 l-49 -99 l-123 0 ZM227 381 l-231 0 q4 35 19.5 66 q15.5 31 39 54.5 q23.5 23.5 53.5 37 q30 13.5 63 13.5 l86 0 l133 775 q7 41 26.5 76 q19.5 35 46 60 q26.5 25 58.5 39 q32 14 64 14 l243 0 q31 0 63 -14 q32 -14 59 -39.5 q27 -25.5 46.5 -60 q19.5 -34.5 26.5 -76.5 l228 -1326 l-239 0 l-62 381 l-491 0 l-61 -381 l-236 0 l65 381 ZM923 552 l-128 795 l-183 0 q-32 -194 -63 -393.5 q-31 -199.5 -63 -401.5 l437 0 Z" /><glyph glyph-name="Dcroat" unicode="&#x110;" d="M244 549 l-193 0 l0 154 l193 0 l0 279 q0 52 15.5 97.5 q15.5 45.5 42 80 q26.5 34.5 61.5 54.5 q35 20 75 20 l45 0 l0 -531 l241 0 l0 -154 l-241 0 l0 -378 l461 0 l0 1176 l-894 0 q3 35 18.5 66 q15.5 31 39 54 q23.5 23 53.5 36 q30 13 64 13 l768 0 q39 0 74 -19.5 q35 -19.5 60.5 -54 q25.5 -34.5 40.5 -81 q15 -46.5 15 -99.5 l0 -1010 q0 -52 -15 -98 q-15 -46 -40.5 -80 q-25.5 -34 -60 -54 q-34.5 -20 -73.5 -20 l-749 0 l-1 549 Z" /><glyph glyph-name="florin" unicode="&#x192;" d="M299 -269 q-8 -53 -31 -99.5 q-23 -46.5 -55.5 -81 q-32.5 -34.5 -72.5 -55 q-40 -20.5 -81 -20.5 l-36 0 l214 1419 l-140 0 l23 154 l140 0 l44 288 q8 53 30 99.5 q22 46.5 52.5 81 q30.5 34.5 68.5 54.5 q38 20 77 20 l378 0 l-26 -174 l-330 0 l-56 -369 l246 0 l-23 -154 l-246 0 l-176 -1163 l0 0 Z" /><glyph glyph-name="dcroat" unicode="&#x111;" d="M192 793 q0 53 15 99 q15 46 40.5 80.5 q25.5 34.5 60.5 54.5 q35 20 74 20 l462 0 l0 161 l-306 0 l0 166 l306 0 l0 216 l238 0 l0 -216 l95 0 l0 -166 l-95 0 l0 -1037 l190 0 q-4 -35 -19.5 -66.5 q-15.5 -31.5 -39 -54.5 q-23.5 -23 -53.5 -36.5 q-30 -13.5 -63 -13.5 l-253 0 l0 109 q-27 -51 -69 -80 q-42 -29 -89 -29 l-304 0 q-39 0 -74 20 q-35 20 -60.5 54.5 q-25.5 34.5 -40.5 80.5 q-15 46 -15 99 l0 539 ZM844 171 l0 705 l-414 0 l0 -705 l414 0 Z" /><glyph glyph-name="minus" unicode="&#x2212;" d="M250 607 l874 0 l0 -176 l-874 0 l0 176 Z" /><glyph glyph-name="infinity" unicode="&#x221e;" d="M98 832 q0 39 20 74 q20 35 54.5 61 q34.5 26 80.5 41 q46 15 99 15 l101 0 q41 0 79.5 -11.5 q38.5 -11.5 71.5 -31.5 q33 -20 58.5 -47.5 q25.5 -27.5 41.5 -59.5 q16 32 42 59.5 q26 27.5 58 47.5 q32 20 70 31.5 q38 11.5 80 11.5 l139 0 q52 0 98.5 -15 q46.5 -15 81 -41 q34.5 -26 54.5 -61 q20 -35 20 -74 l0 -498 q0 -39 -20 -73.5 q-20 -34.5 -54.5 -61 q-34.5 -26.5 -81 -41.5 q-46.5 -15 -98.5 -15 l-139 0 q-42 0 -80 11 q-38 11 -70.5 31 q-32.5 20 -58 47.5 q-25.5 27.5 -41.5 60.5 q-16 -33 -42 -60.5 q-26 -27.5 -58.5 -47.5 q-32.5 -20 -71 -31 q-38.5 -11 -79.5 -11 l-101 0 q-53 0 -99 15 q-46 15 -80.5 41.5 q-34.5 26.5 -54.5 61 q-20 34.5 -20 73.5 l0 498 ZM1175 382 l0 401 l-381 0 l0 -401 l381 0 ZM623 382 l0 401 l-354 0 l0 -401 l354 0 Z" /><glyph glyph-name="Eng" unicode="&#x14a;" d="M220 1516 l237 0 l0 -367 l373 292 q18 15 36 28.5 q18 13.5 37.5 24 q19.5 10.5 41 16.5 q21.5 6 46.5 6 q39 0 73 -17.5 q34 -17.5 59.5 -49 q25.5 -31.5 40 -74 q14.5 -42.5 14.5 -91.5 l0 -1570 q0 -52 -14 -98.5 q-14 -46.5 -38.5 -81 q-24.5 -34.5 -58 -54.5 q-33.5 -20 -73.5 -20 l-494 0 l0 171 l433 0 l0 1684 l-476 -371 l0 -944 l-237 0 l0 1516 Z" /><glyph glyph-name="eng" unicode="&#x14b;" d="M220 1047 l239 0 l0 -396 l309 320 q32 37 66.5 57 q34.5 20 82.5 20 q40 0 77 -20 q37 -20 65 -54.5 q28 -34.5 44.5 -80.5 q16.5 -46 16.5 -99 l0 -1079 q0 -53 -15 -99.5 q-15 -46.5 -41 -81 q-26 -34.5 -61 -55 q-35 -20.5 -74 -20.5 l-196 0 l0 173 l146 0 l0 1230 l-420 -432 l0 -430 l-239 0 l0 1047 Z" /><glyph glyph-name="partialdiff" unicode="&#x2202;" d="M192 706 q0 53 15 99.5 q15 46.5 40.5 81 q25.5 34.5 59.5 54 q34 19.5 73 19.5 l389 0 l-479 633 l171 88 l581 -748 q24 -35 38 -79.5 q14 -44.5 14 -95.5 l-1 -506 q0 -52 -15 -98 q-15 -46 -41 -80 q-26 -34 -60.5 -54 q-34.5 -20 -73.5 -20 l-523 0 q-39 0 -73 20 q-34 20 -59.5 54 q-25.5 34 -40.5 80 q-15 46 -15 98 l0 454 ZM865 171 l0 618 l-444 0 l0 -618 l444 0 Z" /><glyph glyph-name="product" unicode="&#x220f;" d="M200 1345 l-199 0 q4 36 19.5 67 q15.5 31 39 54 q23.5 23 53.5 36.5 q30 13.5 63 13.5 l1021 0 l0 -1686 l-240 0 l0 1515 l-519 0 l0 -1515 l-238 0 l0 1515 Z" /><glyph glyph-name="radical" unicode="&#x221a;" d="M293 871 l-140 0 l0 176 l320 0 l237 -880 l357 1533 l239 0 l-434 -1700 l-326 0 l-253 871 Z" /><glyph glyph-name="summation" unicode="&#x2211;" d="M404 684 l-291 676 q0 53 12 84 q12 31 34.5 47 q22.5 16 54 20.5 q31.5 4.5 70.5 4.5 l678 0 l0 -169 l-600 0 l313 -667 l-328 -679 l704 0 q-4 -35 -19.5 -66.5 q-15.5 -31.5 -39 -54.5 q-23.5 -23 -53.5 -36.5 q-30 -13.5 -63 -13.5 l-590 0 q-40 0 -74 7 q-34 7 -59 26 q-25 19 -39.5 52 q-14.5 33 -14.5 85 l305 684 Z" /><glyph glyph-name="integral" unicode="&#x222b;" d="M352 -166 l0 1502 q0 53 15 99.5 q15 46.5 40.5 81 q25.5 34.5 60.5 54.5 q35 20 74 20 l378 0 l0 -174 l-330 0 l0 -1502 q0 -53 -15 -99.5 q-15 -46.5 -40.5 -81 q-25.5 -34.5 -60.5 -54.5 q-35 -20 -74 -20 l-327 0 l0 174 l279 0 Z" /><glyph glyph-name="Delta" unicode="&#x2206;" d="M320 171 l341 1345 l362 0 l372 -1516 l-1166 0 q-33 0 -63 13.5 q-30 13.5 -53.5 36.5 q-23.5 23 -39 54.5 q-15.5 31.5 -19.5 66.5 l266 0 ZM1107 176 l-266 1169 l-272 -1169 l538 0 Z" /><glyph glyph-name="Hbar" unicode="&#x126;" d="M230 1022 l-188 0 q4 35 19 66 q15 31 38.5 54.5 q23.5 23.5 54 37 q30.5 13.5 63.5 13.5 l13 0 l0 323 l238 0 l0 -323 l519 0 l0 323 l240 0 l0 -323 l188 0 q-3 -35 -18.5 -66.5 q-15.5 -31.5 -38.5 -54.5 q-23 -23 -53.5 -36.5 q-30.5 -13.5 -63.5 -13.5 l-14 0 l0 -1022 l-240 0 l0 565 l-519 0 l0 -565 l-238 0 l0 1022 ZM987 736 l0 286 l-519 0 l0 -286 l519 0 Z" /><glyph glyph-name="lacute" unicode="&#x13a;" d="M172 1451 l239 0 l0 -1280 l213 0 q-6 -40 -22.5 -72 q-16.5 -32 -40 -54 q-23.5 -22 -53 -33.5 q-29.5 -11.5 -61.5 -11.5 l-84 0 q-39 0 -74 20 q-35 20 -61 54.5 q-26 34.5 -41 80.5 q-15 46 -15 99 l0 1197 ZM133 1751 l313 267 q41 29 83 29 q35 0 64 -19.5 q29 -19.5 46 -57.5 q12 -27 12 -53 q0 -24 -8.5 -46 q-8.5 -22 -23.5 -40.5 q-15 -18.5 -35.5 -32 q-20.5 -13.5 -44.5 -19.5 l-351 -122 l-55 94 Z" /><glyph glyph-name="tbar" unicode="&#x167;" d="M111 679 l573 0 l0 -131 l-573 0 l0 131 ZM222 893 l-80 0 l0 154 l80 0 l0 278 l239 119 l0 -397 l269 0 l0 -154 l-269 0 l0 -722 l358 0 q-4 -35 -19.5 -66.5 q-15.5 -31.5 -39.5 -54.5 q-24 -23 -54 -36.5 q-30 -13.5 -63 -13.5 l-231 0 q-39 0 -74 20 q-35 20 -60.5 54.5 q-25.5 34.5 -40.5 80.5 q-15 46 -15 99 l0 639 Z" /><glyph glyph-name="Tbar" unicode="&#x166;" d="M489 689 l-245 0 l0 161 l245 0 l0 497 l-436 0 q0 53 15 86 q15 33 41 51.5 q26 18.5 60 25 q34 6.5 73 6.5 l939 0 l0 -169 l-454 0 l0 -497 l304 0 l0 -161 l-304 0 l0 -436 q0 -52 -15 -98 q-15 -46 -41 -80.5 q-26 -34.5 -60 -54.5 q-34 -20 -73 -20 l-49 0 l0 689 Z" /><glyph glyph-name="pi" unicode="&#x3c0;" d="M270 765 q6 58 29 110 l-219 0 l0 172 l1098 0 l0 -172 l-151 0 l0 -704 l217 0 q-4 -35 -19.5 -66.5 q-15.5 -31.5 -39 -54.5 q-23.5 -23 -53.5 -36.5 q-30 -13.5 -63 -13.5 l-107 0 q-24 0 -52.5 10 q-28.5 10 -53 28.5 q-24.5 18.5 -41 44 q-16.5 25.5 -16.5 57.5 l0 735 l-318 0 l-102 -875 q-39 0 -79 20 q-40 20 -71 54 q-31 34 -48 79.5 q-17 45.5 -11 97.5 l100 514 Z" /><glyph glyph-name="Omega" unicode="&#x2126;" d="M349 171 q-20 9 -37.5 34 q-17.5 25 -32.5 59.5 q-15 34.5 -27.5 75 q-12.5 40.5 -21 80.5 q-8.5 40 -13 77 q-4.5 37 -4.5 65 l0 700 q0 53 15 99.5 q15 46.5 40.5 81 q25.5 34.5 59.5 54 q34 19.5 73 19.5 l580 0 q39 0 74 -19.5 q35 -19.5 61 -54 q26 -34.5 41 -81 q15 -46.5 15 -99.5 l0 -700 q0 -28 -4.5 -65 q-4.5 -37 -13 -77 q-8.5 -40 -21 -80.5 q-12.5 -40.5 -27.5 -75 q-15 -34.5 -32.5 -59.5 q-17.5 -25 -37.5 -34 l287 0 q-4 -35 -19.5 -66 q-15.5 -31 -39 -54.5 q-23.5 -23.5 -53.5 -37 q-30 -13.5 -63 -13.5 l-215 0 l0 1347 l-481 0 l0 -1347 l-185 0 q-33 0 -63 13.5 q-30 13.5 -53.5 37 q-23.5 23.5 -39 54.5 q-15.5 31 -19.5 66 l257 0 Z" /><glyph glyph-name="uniEFFD" unicode="&#xeffd;" d="" /><glyph glyph-name="thinspace" unicode="&#x2009;" d="" /><glyph glyph-name="enspace" unicode="&#x2002;" d="" /><glyph glyph-name="zerowidthspace" unicode="&#x200b;" d="" /><glyph glyph-name="zerowidthjoiner" unicode="&#xfeff;" d="" /><glyph glyph-name="zerowidthnonjoiner" unicode="&#x200c;" d="" /><glyph glyph-name="HT" unicode="" d="" /><glyph glyph-name="DEL" unicode="" d="" /><glyph glyph-name="US" unicode="" d="" /><glyph glyph-name="RS" unicode="" d="" /><glyph glyph-name="DC4" unicode="" d="" /><glyph glyph-name="DC3" unicode="" d="" /><glyph glyph-name="DC2" unicode="" d="" /><glyph glyph-name="DC1" unicode="" d="" /><glyph glyph-name="DLE" unicode="" d="" /><glyph glyph-name="LF" unicode="" d="" /><glyph glyph-name="uniF000" unicode="&#xf000;" d="" /><glyph glyph-name="Omegagreek" unicode="&#x3a9;" d="M349 171 q-20 9 -37.5 34 q-17.5 25 -32.5 59.5 q-15 34.5 -27.5 75 q-12.5 40.5 -21 80.5 q-8.5 40 -13 77 q-4.5 37 -4.5 65 l0 700 q0 53 15 99.5 q15 46.5 40.5 81 q25.5 34.5 59.5 54 q34 19.5 73 19.5 l580 0 q39 0 74 -19.5 q35 -19.5 61 -54 q26 -34.5 41 -81 q15 -46.5 15 -99.5 l0 -700 q0 -28 -4.5 -65 q-4.5 -37 -13 -77 q-8.5 -40 -21 -80.5 q-12.5 -40.5 -27.5 -75 q-15 -34.5 -32.5 -59.5 q-17.5 -25 -37.5 -34 l287 0 q-4 -35 -19.5 -66 q-15.5 -31 -39 -54.5 q-23.5 -23.5 -53.5 -37 q-30 -13.5 -63 -13.5 l-215 0 l0 1347 l-481 0 l0 -1347 l-185 0 q-33 0 -63 13.5 q-30 13.5 -53.5 37 q-23.5 23.5 -39 54.5 q-15.5 31 -19.5 66 l257 0 Z" /><glyph glyph-name="Deltagreek" unicode="&#x394;" d="M320 171 l341 1345 l362 0 l372 -1516 l-1166 0 q-33 0 -63 13.5 q-30 13.5 -53.5 36.5 q-23.5 23 -39 54.5 q-15.5 31.5 -19.5 66.5 l266 0 ZM1107 176 l-266 1169 l-272 -1169 l538 0 Z" /><glyph glyph-name="uniE0FF" unicode="&#xe0ff;" d="" /><glyph glyph-name="one.superior" unicode="¹" d="M211 1151 l-132 0 l0 98 l344 0 l0 -795 l-212 0 l0 697 Z" /><glyph glyph-name="two.superior" unicode="²" d="M225 661 q0 51 21.5 90.5 q21.5 39.5 57.5 53.5 l441 170 l0 166 l-298 0 l0 -121 l-222 0 l0 71 q0 33 11.5 62 q11.5 29 31.5 50.5 q20 21.5 47 34 q27 12.5 58 12.5 l445 0 q31 0 58 -12.5 q27 -12.5 47 -34 q20 -21.5 32 -50.5 q12 -29 12 -62 l0 -100 q0 -51 -25 -90 q-25 -39 -64 -55 l-431 -169 l0 -115 l520 0 l0 -108 l-742 0 l0 207 Z" /><glyph glyph-name="three.superior" unicode="³" d="M374 454 q-31 0 -58 12.5 q-27 12.5 -47 34.5 q-20 22 -31.5 51 q-11.5 29 -11.5 62 l0 47 l211 0 l0 -97 l297 0 l0 243 l-223 0 l0 108 l223 0 l0 226 l-297 0 l0 -97 l-211 0 l0 47 q0 33 11.5 62 q11.5 29 31.5 50.5 q20 21.5 47 34 q27 12.5 58 12.5 l423 -1 q31 0 58 -12.5 q27 -12.5 47 -34 q20 -21.5 32 -50.5 q12 -29 12 -62 l0 -64 q0 -52 -36.5 -96 q-36.5 -44 -94.5 -67 q58 -22 94.5 -65.5 q36.5 -43.5 36.5 -95.5 l0 -88 q0 -33 -12 -62 q-12 -29 -32 -51 q-20 -22 -47 -34.5 q-27 -12.5 -58 -12.5 l-423 0 l0 0 Z" /><glyph glyph-name="f_f" unicode="&#xfb00;" d="M496 -269 q0 -53 -16 -99.5 q-16 -46.5 -43.5 -81 q-27.5 -34.5 -64.5 -55 q-37 -20.5 -78 -20.5 l-36 0 l0 1419 l-80 0 l0 154 l80 0 l0 288 q0 53 15 99.5 q15 46.5 40.5 81 q25.5 34.5 60.5 54.5 q35 20 74 20 l382 0 l0 -174 l-334 0 l0 -369 l524 0 l0 288 q0 53 15 99.5 q15 46.5 40.5 81 q25.5 34.5 60.5 54.5 q35 20 74 20 l382 0 l0 -174 l-334 0 l0 -369 l250 0 l0 -154 l-250 0 l0 -1163 q0 -53 -16 -99.5 q-16 -46.5 -43.5 -81 q-27.5 -34.5 -64.5 -55 q-37 -20.5 -78 -20.5 l-36 0 l0 1419 l-524 0 l0 -1163 l0 0 Z" /><glyph glyph-name="NULL" unicode="" d="" /><glyph glyph-name="quotereversed" unicode="&#x201b;" d="M229 1041 q-33 40 -58.5 76.5 q-25.5 36.5 -43.5 72.5 q-18 36 -27.5 74 q-9.5 38 -9.5 82 q0 35 13.5 66 q13.5 31 36.5 54 q23 23 53.5 36 q30.5 13 65.5 13 q36 0 67 -13 q31 -13 53.5 -36 q22.5 -23 35.5 -54 q13 -31 13 -66 q0 -48 -22.5 -85.5 q-22.5 -37.5 -59.5 -59.5 l91 -258 l-94 -45 l-114 143 Z" /><glyph glyph-name="uni201F" unicode="&#x201f;" d="M744 1041 q-32 40 -58 76.5 q-26 36.5 -44 73 q-18 36.5 -27.5 74 q-9.5 37.5 -9.5 81.5 q0 35 13.5 66 q13.5 31 36.5 54 q23 23 53.5 36 q30.5 13 65.5 13 q36 0 67 -13 q31 -13 53.5 -36 q22.5 -23 35.5 -54 q13 -31 13 -66 q0 -48 -22.5 -85.5 q-22.5 -37.5 -59.5 -59.5 l91 -258 l-94 -45 l-114 143 ZM229 1041 q-32 40 -58 76.5 q-26 36.5 -44 73 q-18 36.5 -27.5 74 q-9.5 37.5 -9.5 81.5 q0 35 13.5 66 q13.5 31 36.5 54 q23 23 53.5 36 q30.5 13 65.5 13 q36 0 67 -13 q31 -13 53.5 -36 q22.5 -23 35.5 -54 q13 -31 13 -66 q0 -48 -22.5 -85.5 q-22.5 -37.5 -59.5 -59.5 l91 -258 l-94 -45 l-114 143 Z" /><glyph glyph-name="minute" unicode="&#x2032;" d="M181 1321 q0 9 -0.5 22 q-0.5 13 0.5 26 q3 30 17 57 q14 27 35 46.5 q21 19.5 47.5 31 q26.5 11.5 55.5 11.5 q30 0 55 -11.5 q25 -11.5 42 -31.5 q17 -20 25 -46 q8 -26 5 -56 q-2 -27 -9 -51 l-140 -497 l-100 0 l-33 499 Z" /><glyph glyph-name="uni0306" unicode="&#x306;" d="M-45 1289 q-75 0 -140 28.5 q-65 28.5 -114 80 q-49 51.5 -77 122.5 q-28 71 -28 156 l151 0 q0 -27 18.5 -55.5 q18.5 -28.5 50.5 -52.5 q32 -24 73.5 -39 q41.5 -15 88.5 -15 l46 0 q46 0 88 15 q42 15 73.5 39 q31.5 24 50.5 52.5 q19 28.5 19 55.5 l150 0 q0 -85 -28 -156 q-28 -71 -77 -122.5 q-49 -51.5 -114 -80 q-65 -28.5 -140 -28.5 l-91 0 l0 0 Z" /><glyph glyph-name="uni030C" unicode="&#x30c;" d="M-1 1287 q-35 0 -74.5 17.5 q-39.5 17.5 -80.5 56.5 l-265 253 q12 16 22.5 28.5 q10.5 12.5 20 24.5 q9.5 12 19.5 24.5 q10 12.5 22 28.5 l336 -192 q84 46 170.5 95 q86.5 49 171.5 97 q22 -31 40.5 -54 q18.5 -23 39.5 -52 l-265 -253 q-41 -38 -79.5 -56 q-38.5 -18 -77.5 -18 Z" /><glyph glyph-name="uni0302" unicode="&#x302;" d="M1 1407 q-84 -46 -170.5 -95 q-86.5 -49 -171.5 -97 q-22 31 -40.5 54 q-18.5 23 -39.5 52 l265 253 q41 38 79.5 56 q38.5 18 77.5 18 q35 0 74.5 -17.5 q39.5 -17.5 80.5 -56.5 l265 -253 q-12 -16 -22.5 -28.5 q-10.5 -12.5 -20 -24.5 q-9.5 -12 -19.5 -24.5 q-10 -12.5 -22 -28.5 l-336 192 Z" /><glyph glyph-name="uni0301" unicode="&#x301;" d="M-304 1385 l381 274 q46 33 93 33 q38 0 70.5 -22 q32.5 -22 51.5 -64 q13 -29 13 -59 q0 -27 -9.5 -51.5 q-9.5 -24.5 -26 -45 q-16.5 -20.5 -39.5 -35.5 q-23 -15 -49 -22 l-424 -113 l-61 105 Z" /><glyph glyph-name="uni0300" unicode="&#x300;" d="M-180 1393 q-26 7 -49 22 q-23 15 -39.5 35.5 q-16.5 20.5 -26 45 q-9.5 24.5 -9.5 51.5 q0 30 13 59 q19 42 51.5 64 q32.5 22 70.5 22 q46 0 93 -33 l381 -274 l-61 -105 l-424 113 Z" /><glyph glyph-name="uni030B" unicode="&#x30b;" d="M-374 1317 l124 360 q16 48 49 75 q33 27 73 27 q35 0 69 -22 q31 -20 45.5 -52.5 q14.5 -32.5 14.5 -69.5 q0 -32 -11 -64 q-11 -32 -32 -58 l-219 -271 l-113 75 ZM65 1311 l144 347 q17 45 49 70 q32 25 70 25 q40 0 75 -28 q27 -22 40 -52.5 q13 -30.5 13 -64.5 q0 -35 -13 -69.5 q-13 -34.5 -37 -60.5 l-226 -248 l-115 81 Z" /><glyph glyph-name="uni030A" unicode="&#x30a;" d="M0 1287 q-60 0 -112.5 22.5 q-52.5 22.5 -91.5 62 q-39 39.5 -61.5 92 q-22.5 52.5 -22.5 112.5 q0 59 22.5 111.5 q22.5 52.5 61.5 91.5 q39 39 91.5 62 q52.5 23 112.5 23 q60 0 112.5 -23 q52.5 -23 92 -62 q39.5 -39 62 -91.5 q22.5 -52.5 22.5 -111.5 q0 -60 -22.5 -112.5 q-22.5 -52.5 -62 -92 q-39.5 -39.5 -92 -62 q-52.5 -22.5 -112.5 -22.5 ZM0 1441 q28 0 52.5 10.5 q24.5 10.5 42.5 29 q18 18.5 28.5 43 q10.5 24.5 10.5 52.5 q0 27 -10.5 51.5 q-10.5 24.5 -28.5 43.5 q-18 19 -42.5 30 q-24.5 11 -52.5 11 q-28 0 -52 -11 q-24 -11 -42 -30 q-18 -19 -28.5 -43.5 q-10.5 -24.5 -10.5 -51.5 q0 -28 10.5 -52.5 q10.5 -24.5 28.5 -43 q18 -18.5 42 -29 q24 -10.5 52 -10.5 Z" /><glyph glyph-name="uni0307" unicode="&#x307;" d="M1 1289 q-36 0 -67 12 q-31 12 -53 34.5 q-22 22.5 -34.5 53 q-12.5 30.5 -12.5 68.5 q0 37 12.5 68.5 q12.5 31.5 34.5 55 q22 23.5 53 36.5 q31 13 67 13 q34 0 64.5 -13 q30.5 -13 53 -36.5 q22.5 -23.5 35.5 -55 q13 -31.5 13 -68.5 q0 -38 -13 -68.5 q-13 -30.5 -35.5 -53 q-22.5 -22.5 -53 -34.5 q-30.5 -12 -64.5 -12 Z" /><glyph glyph-name="uni0308" unicode="&#x308;" d="M268 1288 q-36 0 -67 12 q-31 12 -53 34.5 q-22 22.5 -34.5 53 q-12.5 30.5 -12.5 68.5 q0 37 12.5 68.5 q12.5 31.5 34.5 55 q22 23.5 53 36.5 q31 13 67 13 q34 0 64.5 -13 q30.5 -13 53 -36.5 q22.5 -23.5 35.5 -55 q13 -31.5 13 -68.5 q0 -38 -13 -68.5 q-13 -30.5 -35.5 -53 q-22.5 -22.5 -53 -34.5 q-30.5 -12 -64.5 -12 ZM-266 1288 q-36 0 -67 12 q-31 12 -53 34.5 q-22 22.5 -34.5 53 q-12.5 30.5 -12.5 68.5 q0 37 12.5 68.5 q12.5 31.5 34.5 55 q22 23.5 53 36.5 q31 13 67 13 q34 0 64.5 -13 q30.5 -13 53 -36.5 q22.5 -23.5 35.5 -55 q13 -31.5 13 -68.5 q0 -38 -13 -68.5 q-13 -30.5 -35.5 -53 q-22.5 -22.5 -53 -34.5 q-30.5 -12 -64.5 -12 Z" /><glyph glyph-name="uni0304" unicode="&#x304;" d="M-421 1324 q4 35 19 71.5 q15 36.5 38.5 66.5 q23.5 30 54 49 q30.5 19 63.5 19 l667 0 q-3 -35 -18.5 -71.5 q-15.5 -36.5 -38.5 -66.5 q-23 -30 -53.5 -49 q-30.5 -19 -63.5 -19 l-668 0 Z" /><glyph glyph-name="uni0323" unicode="&#x323;" d="M1 -171 q34 0 64.5 -13 q30.5 -13 53 -36.5 q22.5 -23.5 35.5 -55 q13 -31.5 13 -68.5 q0 -38 -13 -68.5 q-13 -30.5 -35.5 -53 q-22.5 -22.5 -53 -34.5 q-30.5 -12 -64.5 -12 q-36 0 -67 12 q-31 12 -53 34.5 q-22 22.5 -34.5 53 q-12.5 30.5 -12.5 68.5 q0 37 12.5 68.5 q12.5 31.5 34.5 55 q22 23.5 53 36.5 q31 13 67 13 Z" /><glyph glyph-name="fi" unicode="&#xfb01;" d="M496 -269 q0 -53 -16 -99.5 q-16 -46.5 -43.5 -81 q-27.5 -34.5 -64.5 -55 q-37 -20.5 -78 -20.5 l-36 0 l0 1419 l-80 0 l0 154 l80 0 l0 288 q0 53 15 99.5 q15 46.5 40.5 81 q25.5 34.5 60.5 54.5 q35 20 74 20 l342 0 l0 -174 l-294 0 l0 -369 l250 0 l0 -154 l-250 0 l0 -1163 ZM1137 1289 q-35 0 -65.5 13 q-30.5 13 -53.5 36 q-23 23 -36 53.5 q-13 30.5 -13 65.5 q0 35 13 65.5 q13 30.5 36 53.5 q23 23 53.5 36.5 q30.5 13.5 65.5 13.5 q35 0 65.5 -13.5 q30.5 -13.5 53.5 -36.5 q23 -23 36.5 -53.5 q13.5 -30.5 13.5 -65.5 q0 -35 -13.5 -65.5 q-13.5 -30.5 -36.5 -53.5 q-23 -23 -54 -36 q-31 -13 -65 -13 ZM1020 1047 l239 0 l0 -876 l214 0 q-3 -35 -18.5 -66.5 q-15.5 -31.5 -39 -54.5 q-23.5 -23 -53.5 -36.5 q-30 -13.5 -63 -13.5 l-88 0 q-39 0 -74 20 q-35 20 -61 54.5 q-26 34.5 -41 80.5 q-15 46 -15 99 l0 793 Z" /><glyph glyph-name="fl" unicode="&#xfb02;" d="M1021 1591 l239 0 l0 -1420 l213 0 q-6 -40 -22.5 -72 q-16.5 -32 -40 -54 q-23.5 -22 -53 -33.5 q-29.5 -11.5 -61.5 -11.5 l-84 0 q-39 0 -74 20 q-35 20 -61 54.5 q-26 34.5 -41 80.5 q-15 46 -15 99 l0 1337 ZM496 -269 q0 -53 -16 -99.5 q-16 -46.5 -43.5 -81 q-27.5 -34.5 -64.5 -55 q-37 -20.5 -78 -20.5 l-36 0 l0 1419 l-80 0 l0 154 l80 0 l0 288 q0 53 15 99.5 q15 46.5 40.5 81 q25.5 34.5 60.5 54.5 q35 20 74 20 l342 0 l0 -174 l-294 0 l0 -369 l250 0 l0 -154 l-250 0 l0 -1163 Z" /><glyph glyph-name="uni0327" unicode="&#x327;" d="M34 -96 l127 0 q34 0 63.5 -16.5 q29.5 -16.5 52 -44.5 q22.5 -28 35.5 -65.5 q13 -37.5 13 -80.5 q0 -42 -13 -79.5 q-13 -37.5 -35.5 -65 q-22.5 -27.5 -52 -44 q-29.5 -16.5 -63.5 -16.5 l-485 0 q4 35 19 66 q15 31 38.5 54 q23.5 23 54 36.5 q30.5 13.5 63.5 13.5 l269 0 l0 116 l-206 0 l0 222 l120 0 l0 -96 Z" /><glyph glyph-name="uni0328" unicode="&#x328;" d="M247 59 l-347 -360 l382 0 l0 -208 l-400 0 q-34 0 -64 14 q-30 14 -52 38 q-22 24 -34.5 55 q-12.5 31 -12.5 65 q0 45 13 74.5 q13 29.5 36 55.5 l313 318 l166 -52 Z" /><glyph glyph-name="uni032E" unicode="&#x32e;" d="M-253 -154 q0 -27 18.5 -55.5 q18.5 -28.5 50.5 -52.5 q32 -24 73.5 -39 q41.5 -15 88.5 -15 l46 0 q46 0 88 15 q42 15 73.5 39 q31.5 24 50.5 52.5 q19 28.5 19 55.5 l150 0 q0 -85 -28 -156 q-28 -71 -77 -122.5 q-49 -51.5 -114 -80 q-65 -28.5 -140 -28.5 l-91 0 q-75 0 -140 28.5 q-65 28.5 -114 80 q-49 51.5 -77 122.5 q-28 71 -28 156 l151 0 l0 0 Z" /><glyph glyph-name="uni0331" unicode="&#x331;" d="M443 -247 q-3 -35 -18.5 -66.5 q-15.5 -31.5 -38.5 -54.5 q-23 -23 -53.5 -36.5 q-30.5 -13.5 -63.5 -13.5 l-728 0 q4 35 19 66 q15 31 38.5 54.5 q23.5 23.5 54 37 q30.5 13.5 63.5 13.5 l727 0 Z" /><glyph glyph-name="uni030F" unicode="&#x30f;" d="M0 1513 q-21 26 -32 58 q-11 32 -11 64 q0 37 14.5 69.5 q14.5 32.5 45.5 52.5 q34 22 69 22 q40 0 73 -27 q33 -27 49 -75 l124 -360 l-113 -75 l-219 271 ZM-448 1478 q-24 26 -37 60.5 q-13 34.5 -13 69.5 q0 34 13 64.5 q13 30.5 40 52.5 q35 28 75 28 q38 0 70 -25 q32 -25 49 -70 l144 -347 l-115 -81 l-226 248 Z" /><glyph glyph-name="uni0313" unicode="&#x313;" d="M-137 1264 l50 172 q-37 22 -59.5 59.5 q-22.5 37.5 -22.5 85.5 q0 35 13 66 q13 31 35.5 54 q22.5 23 53.5 36 q31 13 67 13 q35 0 65.5 -11 q30.5 -11 53.5 -31.5 q23 -20.5 36.5 -49.5 q13.5 -29 13.5 -64 q0 -44 -6.5 -79 q-6.5 -35 -19.5 -65.5 q-13 -30.5 -33 -59 q-20 -28.5 -46 -58.5 l-107 -113 l-94 45 Z" /><glyph glyph-name="uni0312" unicode="&#x312;" d="M0 1289 q-35 0 -65.5 11 q-30.5 11 -53.5 31.5 q-23 20.5 -36.5 49.5 q-13.5 29 -13.5 64 q0 43 6.5 78.5 q6.5 35.5 19.5 66 q13 30.5 33 59 q20 28.5 46 58.5 l107 113 l94 -45 l-50 -172 q37 -22 59.5 -59.5 q22.5 -37.5 22.5 -85.5 q0 -35 -13 -66 q-13 -31 -35.5 -54 q-22.5 -23 -53.5 -36 q-31 -13 -67 -13 Z" /><glyph glyph-name="uni0315" unicode="&#x315;" d="M-20 1491 q6 27 23 40.5 q17 13.5 57 13.5 q35 0 62 -1 q27 -1 45 -9.5 q18 -8.5 27.5 -27.5 q9.5 -19 9.5 -54 q0 -41 -6.5 -79.5 q-6.5 -38.5 -19.5 -77.5 q-13 -39 -33 -81.5 q-20 -42.5 -46 -90.5 l-134 0 l15 367 Z" /><glyph glyph-name="uni0326" unicode="&#x326;" d="M0 -138 q35 0 65.5 -13 q30.5 -13 53.5 -35.5 q23 -22.5 36.5 -53.5 q13.5 -31 13.5 -66 q0 -44 -16.5 -84.5 q-16.5 -40.5 -46 -82.5 q-29.5 -42 -69.5 -86.5 q-40 -44.5 -88 -95.5 l-94 45 l68 179 q-42 19 -67 51 q-25 32 -25 74 q0 35 13 66 q13 31 35.5 53.5 q22.5 22.5 53.5 35.5 q31 13 67 13 Z" /><glyph glyph-name="uni015F" unicode="&#x15f;" d="M858 -96 q34 0 63.5 -16.5 q29.5 -16.5 52 -44.5 q22.5 -28 35.5 -65.5 q13 -37.5 13 -80.5 q0 -42 -13 -79.5 q-13 -37.5 -35.5 -65 q-22.5 -27.5 -52 -44 q-29.5 -16.5 -63.5 -16.5 l-485 0 q4 35 19 66 q15 31 38.5 54 q23.5 23 54 36.5 q30.5 13.5 63.5 13.5 l269 0 l0 116 l-246 0 l2 126 l285 0 ZM499 1107 l240 0 q-9 -22 -13.5 -43.5 q-4.5 -21.5 -6.5 -35.5 q-3 -37 12 -67 q15 -30 40.5 -57.5 q25.5 -27.5 59 -54.5 q33.5 -27 68.5 -57 q40 -32 81 -73.5 q41 -41.5 74 -91 q33 -49.5 53.5 -105 q20.5 -55.5 18.5 -115.5 q-2 -42 -18 -80.5 q-16 -38.5 -42 -69 q-26 -30.5 -60.5 -52.5 q-34.5 -22 -72.5 -32 l372 0 q-14 -39 -33.5 -70.5 q-19.5 -31.5 -44 -54.5 q-24.5 -23 -53.5 -35.5 q-29 -12.5 -60 -12.5 l-274 0 q-46 0 -76.5 14.5 q-30.5 14.5 -48 38.5 q-17.5 24 -24 55.5 q-6.5 31.5 -3.5 65.5 q32 4 63 17 q31 13 55.5 37.5 q24.5 24.5 41 61.5 q16.5 37 20.5 89 q4 41 -8 77 q-12 36 -32 68 q-20 32 -46 61 q-26 29 -51 56 q-26 34 -52 82 q-26 48 -37 117 l-316 -840 l-247 0 l420 1107 Z" /><glyph glyph-name="uni0259" unicode="&#x259;" d="M172 587 l672 0 l0 289 l-734 0 q4 35 19.5 66 q15.5 31 39 54.5 q23.5 23.5 53.5 37 q30 13.5 63 13.5 l608 0 q39 0 74 -20 q35 -20 60.5 -54.5 q25.5 -34.5 40.5 -81 q15 -46.5 15 -98.5 l0 -539 q0 -53 -15 -99 q-15 -46 -40.5 -80.5 q-25.5 -34.5 -60.5 -54.5 q-35 -20 -74 -20 l-531 0 q-39 0 -73.5 20 q-34.5 20 -60.5 54.5 q-26 34.5 -41 80.5 q-15 46 -15 99 l0 333 ZM844 171 l0 276 l-433 0 l0 -276 l433 0 Z" /><glyph glyph-name="uni018F" unicode="&#x18f;" d="M170 843 l698 0 l0 502 l-698 0 q4 35 19.5 66 q15.5 31 39 54.5 q23.5 23.5 53.5 37 q30 13.5 63 13.5 l571 0 q39 0 73 -20 q34 -20 60 -54 q26 -34 41 -80 q15 -46 15 -98 l0 -1010 q0 -53 -15 -99.5 q-15 -46.5 -41 -81 q-26 -34.5 -60 -54 q-34 -19.5 -73 -19.5 l-556 0 q-39 0 -73.5 19.5 q-34.5 19.5 -60.5 54 q-26 34.5 -41 81 q-15 46.5 -15 99.5 l0 589 ZM868 169 l0 498 l-460 0 l0 -498 l460 0 Z" /><glyph glyph-name="uni0180" unicode="&#x180;" d="M58 1374 l639 0 l0 -166 l-639 0 l0 166 ZM192 1591 l238 0 l0 -660 q28 54 70 85 q42 31 91 31 l302 0 q39 0 73 -20 q34 -20 60 -54.5 q26 -34.5 41 -80.5 q15 -46 15 -99 l0 -622 l211 0 q-4 -35 -19.5 -66.5 q-15.5 -31.5 -39 -54.5 q-23.5 -23 -53.5 -36.5 q-30 -13.5 -63 -13.5 l-527 0 q-49 0 -90.5 30.5 q-41.5 30.5 -70.5 82.5 l0 -113 l-238 0 l0 1591 ZM844 171 l0 705 l-414 0 l0 -705 l414 0 Z" /><glyph glyph-name="uni00B5" unicode="µ" d="M408 -285 q0 -53 -14.5 -99.5 q-14.5 -46.5 -40 -81 q-25.5 -34.5 -59.5 -55 q-34 -20.5 -73 -20.5 l-39 0 l0 1588 l226 0 l0 -876 l413 0 l0 876 l238 0 l0 -876 l171 0 q-4 -35 -19.5 -66.5 q-15.5 -31.5 -39 -54.5 q-23.5 -23 -53.5 -36.5 q-30 -13.5 -63 -13.5 l-234 0 l0 131 q-15 -25 -32.5 -48.5 q-17.5 -23.5 -38 -42 q-20.5 -18.5 -42.5 -29.5 q-22 -11 -44 -11 l-86 0 q-27 0 -51.5 11 q-24.5 11 -46.5 29.5 q-22 18.5 -40 42 q-18 23.5 -32 48.5 l0 -416 Z" /><glyph glyph-name="uni03BC" unicode="&#x3bc;" d="M408 -285 q0 -53 -14.5 -99.5 q-14.5 -46.5 -40 -81 q-25.5 -34.5 -59.5 -55 q-34 -20.5 -73 -20.5 l-39 0 l0 1588 l226 0 l0 -876 l413 0 l0 876 l238 0 l0 -876 l171 0 q-4 -35 -19.5 -66.5 q-15.5 -31.5 -39 -54.5 q-23.5 -23 -53.5 -36.5 q-30 -13.5 -63 -13.5 l-234 0 l0 131 q-15 -25 -32.5 -48.5 q-17.5 -23.5 -38 -42 q-20.5 -18.5 -42.5 -29.5 q-22 -11 -44 -11 l-86 0 q-27 0 -51.5 11 q-24.5 11 -46.5 29.5 q-22 18.5 -40 42 q-18 23.5 -32 48.5 l0 -416 Z" /><glyph glyph-name="f_f_l" unicode="&#xfb04;" d="M496 -269 q0 -53 -16 -99.5 q-16 -46.5 -43.5 -81 q-27.5 -34.5 -64.5 -55 q-37 -20.5 -78 -20.5 l-36 0 l0 1419 l-80 0 l0 154 l80 0 l0 288 q0 53 15 99.5 q15 46.5 40.5 81 q25.5 34.5 60.5 54.5 q35 20 74 20 l382 0 l0 -174 l-334 0 l0 -369 l524 0 l0 288 q0 53 15 99.5 q15 46.5 40.5 81 q25.5 34.5 60.5 54.5 q35 20 74 20 l725 0 l0 -1420 l213 0 q-6 -40 -22.5 -72 q-16.5 -32 -40 -54 q-23.5 -22 -53 -33.5 q-29.5 -11.5 -61.5 -11.5 l-84 0 q-39 0 -74 20 q-35 20 -61 54.5 q-26 34.5 -41 80.5 q-15 46 -15 99 l0 1163 l-438 0 l0 -369 l250 0 l0 -154 l-250 0 l0 -1163 q0 -53 -16 -99.5 q-16 -46.5 -43.5 -81 q-27.5 -34.5 -64.5 -55 q-37 -20.5 -78 -20.5 l-36 0 l0 1419 l-524 0 l0 -1163 l0 0 Z" /><glyph glyph-name="f_f_i" unicode="&#xfb03;" d="M496 -269 q0 -53 -16 -99.5 q-16 -46.5 -43.5 -81 q-27.5 -34.5 -64.5 -55 q-37 -20.5 -78 -20.5 l-36 0 l0 1419 l-80 0 l0 154 l80 0 l0 288 q0 53 15 99.5 q15 46.5 40.5 81 q25.5 34.5 60.5 54.5 q35 20 74 20 l382 0 l0 -174 l-334 0 l0 -369 l524 0 l0 288 q0 53 15 99.5 q15 46.5 40.5 81 q25.5 34.5 60.5 54.5 q35 20 74 20 l332 0 l0 -174 l-284 0 l0 -369 l250 0 l0 -154 l-250 0 l0 -1163 q0 -53 -16 -99.5 q-16 -46.5 -43.5 -81 q-27.5 -34.5 -64.5 -55 q-37 -20.5 -78 -20.5 l-36 0 l0 1419 l-524 0 l0 -1163 ZM1821 1289 q-35 0 -65.5 13 q-30.5 13 -53.5 36 q-23 23 -36 53.5 q-13 30.5 -13 65.5 q0 35 13 65.5 q13 30.5 36 53.5 q23 23 53.5 36.5 q30.5 13.5 65.5 13.5 q35 0 65.5 -13.5 q30.5 -13.5 53.5 -36.5 q23 -23 36.5 -53.5 q13.5 -30.5 13.5 -65.5 q0 -35 -13.5 -65.5 q-13.5 -30.5 -36.5 -53.5 q-23 -23 -54 -36 q-31 -13 -65 -13 ZM1704 1047 l239 0 l0 -876 l214 0 q-3 -35 -18.5 -66.5 q-15.5 -31.5 -39 -54.5 q-23.5 -23 -53.5 -36.5 q-30 -13.5 -63 -13.5 l-88 0 q-39 0 -74 20 q-35 20 -61 54.5 q-26 34.5 -41 80.5 q-15 46 -15 99 l0 793 Z" /><glyph glyph-name="uni0303" unicode="&#x303;" d="M125 1290 q-46 0 -88.5 12.5 q-42.5 12.5 -79.5 35 q-37 22.5 -66.5 53.5 q-29.5 31 -49.5 68 l-92 0 l-55 -110 l-136 0 q4 28 8.5 48 q4.5 20 10.5 48 q9 45 37 82 q28 37 68.5 64 q40.5 27 91 41.5 q50.5 14.5 104.5 14.5 q43 0 84 -12.5 q41 -12.5 76.5 -35 q35.5 -22.5 64.5 -53.5 q29 -31 49 -68 l101 0 l54 110 l136 0 q-2 -20 -5 -38 q-2 -16 -5.5 -31.5 q-3.5 -15.5 -5.5 -26.5 q-11 -46 -39.5 -83.5 q-28.5 -37.5 -69 -64 q-40.5 -26.5 -90 -40.5 q-49.5 -14 -103.5 -14 Z" /></font>
</defs>
</svg>
